<?xml version="1.0" standalone="no"?><!DOCTYPE svg PUBLIC "-//W3C//DTD SVG 1.1//EN" "http://www.w3.org/Graphics/SVG/1.1/DTD/svg11.dtd" ><svg xmlns="http://www.w3.org/2000/svg"><metadata></metadata><defs><font id="Hanyi HYXingQiuTiW Regular v5.00" horiz-adv-x="1000"><font-face font-family="HYXingQiuTiW" font-weight="400" font-stretch="normal" units-per-em="1000" panose-1="0 2 6 0 4 1 1 1 1 1" ascent="998" descent="-299" x-height="1" bbox="8 -288 993 830" underline-thickness="50" underline-position="-75" unicode-range="U+0041-fa97" /><missing-glyph horiz-adv-x="1000"  /><glyph glyph-name="A" unicode="a" d="M688 3 q2 -6 1 -10 q-1 -4 -3.5 -8 q-2.5 -4 -10.5 -6 q-12 -2 -16 3 q-4 5 -5 7 q0 -2 -2 -5.5 q-2 -3.5 -10 -5.5 q-11 -3 -15 0 q-3 1 -3 4 q0 -5 -3 -10 q-2 -5 -6 -9.5 q-4 -4.5 -11 -6.5 q-13 -4 -19 -1 q-4 1 -5 4 l3 -9 q2 -8 -2.5 -13 q-4.5 -5 -13.5 -5 q-7 -1 -12 4 q-2 2 -3 4 l-37 115 q-1 8 -4 13 q-2 5 -5 8.5 q-3 3.5 -7 3.5 q-4 0 -5 -3 q-1 -3 -1 -6 q0 -4 2 -9 l34 -110 q1 -6 0 -10 q-2 -11 -15 -15 q-11 -4 -19 4 q-4 4 -6 8 l-78 264 l-258 0 l-70 -258 q-2 -10 -11.5 -15.5 q-9.5 -5.5 -20.5 -2.5 q-11 3 -16.5 12 q-5.5 9 -3.5 20 l201 739 q3 8 11 13 q8 5 17 5 l215 0 l213 -713 ZM396 256 l-119 402 l-109 -402 l228 0 ZM569 262 q3 0 3 2 l0 2 l-5 16 q-1 2 -2 3 q-2 2 -4 1 q-2 0 -2 -3 l0 -3 l2 -6 q1 -2 1.5 -4.5 q0.5 -2.5 1.5 -4.5 q0 -4 3 -4 q1 0 2 1 ZM639 27 q2 0 0 11 q-1 4 -3 11 l-52 174 l-2 8 q-2 8 -5 8 q-5 -2 -3 -8 q0 -4 2 -7 l16 -53 q8 -28 15 -52 q6 -21 11.5 -41 q5.5 -20 9.5 -30 q6 -18 8 -20 q2 -2 3 -1 Z" /><glyph glyph-name="B" unicode="b" d="M460 347 q74 -23 116 -74.5 q42 -51.5 42 -123.5 q0 -45 -20.5 -84 q-20.5 -39 -56 -68 q-35.5 -29 -82.5 -46 q-47 -17 -100 -17 q-6 0 -12 0 q-6 0 -12 1 q-20 -2 -36 -2 q-16 0 -23 0 l-211 0 l0 800 l210 -1 q24 1 48 0 l9 0 q51 0 98.5 -15 q47.5 -15 84 -41.5 q36.5 -26.5 58.5 -63 q22 -36.5 22 -79.5 q0 -61 -37.5 -110.5 q-37.5 -49.5 -97.5 -75.5 ZM543 529 q0 34 -17 63.5 q-17 29.5 -46.5 51.5 q-29.5 22 -69.5 34.5 q-40 12.5 -85 13.5 l0 -329 q58 3 96.5 17 q38.5 14 61.5 31 q29 23 44.5 53.5 q15.5 30.5 15.5 64.5 ZM325 -20 q53 1 97.5 13 q44.5 12 76.5 34 q32 22 50 51.5 q18 29.5 18 64.5 q0 40 -18 73 q-18 33 -50 56 q-32 23 -76.5 35.5 q-44.5 12.5 -97.5 12.5 l0 -340 ZM290 236 q4 0 4 2 l0 2 l0 17 l0 3 q0 3 -3 3 q-4 0 -4 -3 q-1 -1 0 -2 l0 -6 q0 -3 -0.5 -6 q-0.5 -3 -0.5 -5 q0 -5 2 -5 q1 -1 2 0 ZM291 -8 q2 -1 2.5 2.5 q0.5 3.5 0.5 8.5 l0 11 l0 181 l0 8 q0 7 -3 9 q-2 0 -4 -6 q-1 -3 -1 -7 l0 -183 q0 -11 0.5 -15.5 q0.5 -4.5 1.5 -6.5 q1 -3 3 -2 Z" /><glyph glyph-name="C" unicode="c" d="M588 91 q8 -6 10 -13.5 q2 -7.5 0 -13.5 q-2 -8 -7 -15 q-19 -26 -45.5 -47.5 q-26.5 -21.5 -56.5 -37 q-30 -15.5 -61.5 -23.5 q-31.5 -8 -58.5 -8 q-64 -5 -120 18 q-56 23 -98 66.5 q-42 43.5 -68 103.5 q-26 60 -30 129 q-7 97 3 184.5 q10 87.5 41.5 153.5 q31.5 66 86.5 106 q55 40 139 43 q42 1 76 -4.5 q34 -5.5 60.5 -15.5 q26.5 -10 46.5 -23.5 q20 -13.5 35 -27.5 q34 -33 51 -78 q0 -6 -3 -11 q-2 -5 -6 -8.5 q-4 -3.5 -11 -5.5 q-7 -2 -12.5 0 q-5.5 2 -10.5 6 q-5 4 -10 10 q-16 36 -42.5 57 q-26.5 21 -55 31.5 q-28.5 10.5 -55 13 q-26.5 2.5 -42.5 2.5 l0 -696 q31 -3 58.5 4 q27.5 7 51 19 q23.5 12 41.5 26.5 q18 14.5 29 26.5 q5 6 12.5 13.5 q7.5 7.5 16.5 13 q9 5.5 18 6.5 q9 1 17 -5 ZM306 250 q0 1 -1 3 q-2 3 -4 3 q-2 0 -2 -1 q0 -1 -1 -2 q-1 -1 -1 -2 l0 -17 q0 -5 2 -5 q1 -1 2 0 q2 0 4 2 q1 1 1 2 l0 17 ZM305 -5 l0 8 l0 4 l0 182 l0 8 q0 6 -3 8 q-2 0 -4 -6 q-1 -3 -1 -7 l0 -183 l0 -11 l8 -3 Z" /><glyph glyph-name="E" unicode="e" d="M572 -15 q11 0 18 -8 q7 -8 7 -19 q0 -11 -7 -19 q-7 -8 -18 -8 l-483 0 l0 1 q-11 0 -17.5 7 q-6.5 7 -6.5 18 l0 752 q1 11 7.5 18 q6.5 7 16.5 7 l458 0 q11 0 18.5 -8 q7.5 -8 7.5 -19 q0 -11 -7.5 -18.5 q-7.5 -7.5 -18.5 -7.5 l-238 0 l0 -312 l224 0 q11 0 18 -8 q7 -8 7 -20 q0 -11 -7 -18.5 q-7 -7.5 -18 -7.5 l-224 0 l0 -330 l263 0 ZM260 245 q0 -5 2 -5 q1 -1 2 0 q3 0 4 1 q1 1 1 2 l0 17 q0 1 -1 3 q-3 3 -4 3 q-2 -1 -2 -1.5 q0 -0.5 -1 -1.5 q-1 -1 -1 -2 l0 -16 ZM265 215 q-5 0 -5 -6 q-1 -3 0 -7 l0 -183 q0 -11 0.5 -15.5 q0.5 -4.5 1.5 -6.5 q1 -3 2 -2 q2 -1 3 2.5 q1 3.5 1 8.5 l0 11 l0 182 l0 8 q0 6 -3 8 Z" /><glyph glyph-name="F" unicode="f" d="M605 724 q11 0 18.5 -8 q7.5 -8 7.5 -19 q0 -11 -7.5 -19 q-7.5 -8 -18.5 -8 l-314 0 l0 -320 l287 0 q10 0 17 -8 q7 -8 7 -20 q0 -11 -7 -18.5 q-7 -7.5 -17 -7.5 l-287 0 l0 -176 q-2 -122 0 -151 q0 -24 -3 -32.5 q-3 -8.5 -16 -5.5 q-7 1 -9.5 7 q-2.5 6 -3.5 10 q0 -6 -4 -14 q-4 -8 -18 -7 q-14 0 -16 9 q-2 4 0 10 q-5 -5 -9 -5 q-4 0 -7 2 q-4 2 -6 5 q0 -4 -3 -8 q-6 -8 -18 -9 q-13 -1 -20 6 q-4 3 -6 7 q-1 -4 -4 -7 q-2 -2 -6 -4 q-4 -2 -12 -2 q-13 0 -17 9 q-2 4 -1 10 l0 45 q1 25 0 45 q-1 17 -2.5 32.5 q-1.5 15.5 -5.5 19.5 q-4 4 -5 -11 q-1 -15 -1 -37 q0 -22 0.5 -43.5 q0.5 -21.5 -0.5 -30.5 q-2 -19 -7 -25 q-5 -6 -12 -5 q-5 1 -7.5 6.5 q-2.5 5.5 -4.5 11.5 q-2 7 -2 15 l0 718 l1 0 q-1 2 -1 6 q0 11 7 18.5 q7 7.5 17 8.5 l516 0 ZM251 253 q-1 1 -1 3 q-1 1 -1 2 q0 1 -2 1 q-1 0 -4 -3 q-1 -1 -1 -2 l0 -16 q0 -5 2 -5 q1 -1 3 0 q2 0 3 1 q0 1 1 2 l0 17 ZM248 -12 q2 -1 2 2.5 q0 3.5 0 8.5 l0 11 l0 182 q1 4 1 8 q0 7 -3 9 q-3 0 -5 -7 q-1 -4 -1 -7 l0 -183 q0 -18 3 -22 q1 -3 3 -2 Z" /><glyph glyph-name="G" unicode="g" d="M622 323 q3 -14 3 -32.5 q0 -18.5 -1 -36.5 q-1 -18 -3 -32.5 q-2 -14.5 -2 -19.5 q-1 -5 -4.5 -27 q-3.5 -22 -14 -52.5 q-10.5 -30.5 -30.5 -64.5 q-20 -34 -53 -61.5 q-33 -27.5 -82 -45 q-49 -17.5 -117 -14.5 q-74 1 -132 41 q-25 17 -49 45 q-24 28 -43 70 q-19 42 -31 100 q-12 58 -13 136 q-1 81 10.5 141 q11.5 60 32 103 q20.5 43 46 70.5 q25.5 27.5 52 44.5 q26.5 17 51.5 24.5 q25 7.5 43 10.5 q1 1 2 1 q67 5 125 -6 q25 -5 50.5 -14 q25.5 -9 48 -24.5 q22.5 -15.5 41.5 -38.5 q19 -23 30 -54 q3 -9 3 -16 q0 -16 -16 -23 q-13 -5 -22.5 1.5 q-9.5 6.5 -20.5 25.5 q-5 9 -18.5 26 q-13.5 17 -38 34 q-24.5 17 -62 28 q-37.5 11 -89.5 8 l0 -677 q13 0 37 2 q24 2 52 11.5 q28 9.5 57 28.5 q29 19 53 52 q24 33 39 83 q15 50 15 122 l-161 0 q-11 1 -18 9 q-7 8 -7 19 q0 11 7 18 q7 7 18 8 l186 0 q10 0 17.5 -7 q7.5 -7 8.5 -17 ZM281 261 q3 0 4 1 q1 1 1 2 l0 17 q0 1 -1 3 q-3 3 -4 3 q-2 0 -2 -1 q0 -1 -1 -2 q-1 -1 -1 -2 l0 -16 q0 -5 2 -5 q1 -1 2 0 ZM282 16 q3 0 3 11 l0 11 l0 182 l0 8 q0 7 -3 9 q-2 0 -4 -7 q-1 -4 -1 -7 l0 -184 q0 -10 0.5 -14.5 q0.5 -4.5 1.5 -6.5 q1 -3 3 -2 Z" /><glyph glyph-name="H" unicode="h" d="M612 -14 q2 -12 0 -22 q-2 -8 -6.5 -15.5 q-4.5 -7.5 -15.5 -8.5 q-12 -1 -17.5 6 q-5.5 7 -7.5 15 q-3 10 -1 21 l-1 79 q1 9 1 17 q0 7 0 13.5 q0 6.5 -1 11.5 q-1 3 -2 -0.5 q-1 -3.5 -3 -9.5 l-4 -16 l-1 -100 q1 -7 1 -12 q0 -5 -2 -10 q-2 -5 -8 -10 q-5 -5 -10 -4 q-5 1 -8 3 q-4 3 -7 8 q-8 -8 -13.5 -8.5 q-5.5 -0.5 -9.5 3.5 q-4 4 -7 12 q0 -12 -7.5 -20.5 q-7.5 -8.5 -21.5 -5.5 q-10 2 -12.5 9 q-2.5 7 -2.5 12 q-1 -2 -3.5 -6 q-2.5 -4 -11.5 -4 q-9 0 -12 5 q-3 -11 -14 -15 q-6 -1 -10 2 q-4 3 -6 7.5 q-2 4.5 -2.5 8.5 q-0.5 4 -0.5 5 l0 374 l-267 0 l0 -377 q0 -11 -8 -19 q-8 -8 -19 -8 q-11 0 -18.5 8 q-7.5 8 -7.5 19 l0 754 q0 11 7.5 19 q7.5 8 18.5 8 q11 0 19 -8 q8 -8 8 -19 l0 -323 l267 0 l0 299 q-2 10 -1 17 q0 6 2.5 11 q2.5 5 9.5 6 q8 1 11 -3.5 q3 -4.5 5 -10.5 l0 3 q-1 7 2 13 q2 5 6.5 9 q4.5 4 15.5 5 q9 0 14.5 -3.5 q5.5 -3.5 8 -8.5 q2.5 -5 2.5 -10 q0 -5 0 -7 q0 -2 0 -14 q0 -12 1 -26 q1 -14 2 -25.5 q1 -11.5 2 -12.5 q1 0 3 -7 q0 -3 1 -6 q0 -4 1 -8 q2 -7 3 -4 q1 2 1 20.5 q0 18.5 0 38.5 q0 24 -1 54 q1 6 4 10 q2 4 7 7 q5 3 13 3 q8 -1 12.5 -4 q4.5 -3 6.5 -7 q3 -4 3 -11 q1 4 5 8 q3 3 7 5 q4 2 12 0 q8 -2 11.5 -6 q3.5 -4 5.5 -9 q2 -5 3 -12 q3 -1 6 -1 q5 0 6 9 q1 10 5 16 q4 6 15 7 q6 0 9 -4.5 q3 -4.5 5 -9.5 q2 -6 2 -15 l0 -715 ZM569 159 q-1 1 -1 3 q-1 1 -1 2 q0 1 -2 1 q-2 -1 -4 -3 q-1 -1 -1 -2 l0 -17 q0 -2 2 -4 q1 -1 3 -1 q1 0 3 2 q0 1 1 2 l0 17 Z" /><glyph glyph-name="I" unicode="i" d="M496 -8 q10 0 17.5 -8 q7.5 -8 7.5 -19 q0 -11 -7.5 -19 q-7.5 -8 -17.5 -8 l-442 0 l0 1 q-11 0 -17.5 7.5 q-6.5 7.5 -6.5 18.5 q0 11 6.5 19 q6.5 8 17.5 8 l110 0 l0 681 l-86 0 q-10 1 -17 8.5 q-7 7.5 -7 18.5 q0 11 7 18.5 q7 7.5 17 8.5 l393 0 q11 0 18 -8 q7 -8 7 -19 q0 -11 -7 -19 q-7 -8 -18 -8 l-86 0 l0 -681 l111 0 ZM347 266 q0 -5 2 -5 q1 -1 2 0 q2 0 3 1 q0 1 1 2 l0 17 q-1 1 -1 3 q-1 1 -1 2 q0 1 -2 1 q-4 0 -4 -3 q-1 -1 0 -2 l0 -16 ZM351 237 q-4 0 -4 -7 l0 -7 l0 -184 q0 -10 0.5 -14.5 q0.5 -4.5 1.5 -6.5 q1 -3 2 -2 q1 0 3 11 q0 4 1 11 l0 182 l0 8 q0 8 -4 9 Z" /><glyph glyph-name="J" unicode="j" d="M603 720 q11 0 18 -7.5 q7 -7.5 7 -18.5 q0 -11 -7 -19.5 q-7 -8.5 -18 -8.5 l-147 0 l0 -448 q0 -50 -6.5 -99.5 q-6.5 -49.5 -28 -90.5 q-21.5 -41 -61 -67.5 q-39.5 -26.5 -104.5 -29.5 q-51 -3 -87.5 7 q-36.5 10 -61 28.5 q-24.5 18.5 -39.5 42.5 q-15 24 -23 49 q-7 25 -11 49.5 q-4 24.5 -4 45.5 q0 21 3.5 36.5 q3.5 15.5 12.5 21.5 q6 4 14.5 5.5 q8.5 1.5 16 -3 q7.5 -4.5 12 -17 q4.5 -12.5 3.5 -35.5 q-1 -21 2 -48.5 q3 -27.5 12 -51.5 q9 -24 24.5 -39 q15.5 -15 39.5 -12 q29 5 42 31.5 q13 26.5 18 57.5 q5 36 3 80 l0 5 l1 1 l0 481 l-171 0 l0 1 q-10 0 -17.5 8 q-7.5 8 -7.5 19 q0 11 7.5 18.5 q7.5 7.5 17.5 7.5 l540 0 ZM414 72 q5 16 5.5 22.5 q0.5 6.5 -1.5 10.5 q-1 2 -2.5 -1 q-1.5 -3 -3.5 -8.5 q-2 -5.5 -3.5 -12 q-1.5 -6.5 -2.5 -9.5 q-5 -14 -14 -29 q-9 -15 -18 -26 q-9 -9 -15 -15 q-6 -6 -11 -10 q-5 -4 -8 -6 q-1 -2 12.5 4 q13.5 6 27.5 21 q8 10 17 23 q9 13 17 36 Z" /><glyph glyph-name="K" unicode="k" d="M590 721 q8 -8 7.5 -19 q-0.5 -11 -8.5 -19 l-160 -184 l159 -526 q3 -10 -2.5 -19.5 q-5.5 -9.5 -15.5 -12.5 q-11 -3 -20.5 2 q-9.5 5 -13.5 15 l-149 493 l-94 -109 l0 -354 q2 -12 0 -22 q-2 -8 -6.5 -15.5 q-4.5 -7.5 -15.5 -8.5 q-12 -1 -17.5 5.5 q-5.5 6.5 -7.5 14.5 q-3 10 -1 22 l-1 79 q1 9 1 17 q0 7 0 13.5 q0 6.5 -1 10.5 q-1 4 -2 0 q-1 -4 -3 -9 l-4 -16 l-1 -100 q1 -6 1 -12 q0 -5 -2 -10.5 q-2 -5.5 -8 -10.5 q-5 -5 -10 -4 q-5 1 -8 3 q-4 3 -7 8 q-8 -8 -14 -8 q-6 0 -9 4 q-4 4 -6 12 q0 -12 -8 -20.5 q-8 -8.5 -22 -6.5 q-10 2 -12.5 9.5 q-2.5 7.5 -3.5 12.5 q0 -3 -2.5 -7 q-2.5 -4 -10.5 -4 q-9 0 -13 6 q-3 -11 -14 -15 q-6 -1 -10 2 q-4 3 -6 7.5 q-2 4.5 -2.5 8.5 q-0.5 4 -0.5 5 l0 727 q-2 9 -1 16 q0 6 2.5 11.5 q2.5 5.5 9.5 6.5 q8 1 11 -4 q3 -5 5 -10 l0 3 q-1 7 2 13 q2 5 6.5 9 q4.5 4 15.5 4 q9 0 14.5 -3.5 q5.5 -3.5 8 -8.5 q2.5 -5 2.5 -10 q0 -5 0 -7 q0 -2 0 -14 q0 -12 1 -26 q1 -14 2 -25.5 q1 -11.5 2 -11.5 q1 0 3 -7 q0 -3 1 -6 q0 -4 1 -8 q2 -7 3 -4 q1 2 1 20.5 q0 18.5 0 38.5 q0 24 -1 54 q1 5 4 9 q2 4 7 7 q5 3 13 3 q8 -1 12.5 -4 q4.5 -3 6.5 -7 q3 -4 3 -10 q1 4 5 8 q3 3 7 5 q4 2 12 0 q8 -2 11.5 -6.5 q3.5 -4.5 5.5 -9.5 q2 -5 3 -12 q3 -1 6 0 q2 1 3.5 2.5 q1.5 1.5 2.5 6.5 q1 10 5 16 q4 6 15 7 q6 0 9 -4.5 q3 -4.5 5 -9.5 q2 -6 2 -15 l0 -279 l261 299 q8 8 18 7 q10 -1 18 -9 ZM240 156 q3 0 3 1 l0 2 l0 17 l0 3 q0 3 -3 3 q-4 -2 -4 -3 q-1 -1 0 -2 l0 -17 q0 -4 2 -4 l2 0 Z" /><glyph glyph-name="L" unicode="l" d="M572 -17 q11 0 18.5 -8 q7.5 -8 7.5 -19 q0 -11 -7.5 -19 q-7.5 -8 -18.5 -8 l-482 0 q-11 1 -18 8.5 q-7 7.5 -7 18.5 q0 5 1 7 l0 727 q0 9 1 16 q1 6 3.5 11 q2.5 5 8.5 6 q6 1 12 -5.5 q6 -6.5 8 -23.5 q0 -9 -0.5 -31.5 q-0.5 -22.5 -0.5 -44 q0 -21.5 1.5 -37 q1.5 -15.5 5.5 -11.5 q3 4 4.5 19.5 q1.5 15.5 2.5 33.5 q1 20 0 46 l0 44 q0 5 2 9 q2 4 5 7 q3 3 11 3 q8 0 12 -2.5 q4 -2.5 6 -4.5 q3 -3 4 -6 q2 3 6 7 q3 2 7.5 4.5 q4.5 2.5 12.5 1.5 q12 -1 18 -9 q3 -4 3 -8 q2 3 6 5 q7 3 16 -3 q-2 5 0 9 q2 9 16 10 q16 1 19 -8.5 q3 -9.5 2 -14.5 q0 -3 0 -0.5 q0 2.5 1.5 6.5 q1.5 4 4.5 8.5 q3 4.5 9 5.5 q11 2 15 -6.5 q4 -8.5 3 -32.5 l0 -711 l281 0 ZM238 242 q0 -5 2 -5 q1 -1 2 0 q2 0 3 1 q0 1 1 2 l0 18 q-1 1 -1 2 q-1 1 -1 2 q0 1 -2 1 q-4 0 -4 -3 q-1 -1 0 -2 l0 -16 ZM243 213 q-5 0 -5 -7 q-1 -4 0 -7 l0 -183 q0 -10 0.5 -14.5 q0.5 -4.5 1.5 -6.5 q1 -3 2 -3 q1 0 3 11 q0 5 1 12 l0 181 l0 8 q0 7 -3 9 Z" /><glyph glyph-name="M" unicode="m" d="M783 -21 q4 -24 2 -32 q-2 -8 -11 -8 q-5 1 -7.5 6 q-2.5 5 -4.5 10 q1 -6 -1 -14 q-2 -8 -13 -8 q-6 -1 -8.5 2 q-2.5 3 -4.5 7 q-2 4 -1 9 q-7 -8 -12 -5 q-3 1 -5 5 q0 -4 -1 -8 q-1 -3 -3.5 -6.5 q-2.5 -3.5 -7.5 -4.5 q-6 -2 -10 0 q-4 2 -7 4 q-4 3 -5 7 q0 -3 -2 -7 q-4 -8 -12 -9 q-10 -1 -14 9 q-2 4 -2 9 l-5 45 q-3 25 -6 45 q-2 17 -5 32.5 q-3 15.5 -6 19.5 q-3 3 -2 -12 q1 -15 3.5 -37 q2.5 -22 5 -43.5 q2.5 -21.5 3.5 -30.5 q0 -19 -3.5 -25.5 q-3.5 -6.5 -8.5 -5.5 q-5 0 -7 4.5 q-2 4.5 -4 10.5 q-2 7 -2 16 l-95 623 l-51 -536 q-3 -14 -19 -18 q-7 -2 -13 0 l-153 0 l-90 534 l-78 -621 q-2 -10 -11.5 -15 q-9.5 -5 -20.5 -2 q-11 3 -16.5 12 q-5.5 9 -2.5 20 l94 755 q3 10 12 14 l3 3 l5 0 q6 1 12 0 l141 1 l95 -565 l52 545 q5 14 19 17 l0 1 l4 0 l3 0 l159 0 q32 -205 58 -369 q11 -70 21.5 -137.5 q10.5 -67.5 19 -121 q8.5 -53.5 14 -88 q5.5 -34.5 5.5 -37.5 ZM352 373 q0 -4 3 -4 l3 0 q3 0 3 3 l0 2 l-3 16 q-1 2 -2 3 q-2 2 -4 2 q-3 -2 -3 -3 l0 -3 l3 -16 ZM405 129 q2 -1 2 2.5 q0 3.5 -1 8.5 q-1 5 -2 11 l-35 179 q0 4 -1 8 q-2 8 -5 8 q-4 0 -4 -8 q0 -4 1 -7 l36 -180 q3 -17 6 -20 q2 -2 3 -2 Z" /><glyph glyph-name="O" unicode="o" d="M50 328 q-2 103 18.5 173 q20.5 70 52 115 q31.5 45 68 69 q36.5 24 68.5 34.5 q32 10.5 53.5 11.5 q21.5 1 22.5 1 q82 -4 144 -47 q27 -18 52 -47 q25 -29 44.5 -72 q19.5 -43 31 -101.5 q11.5 -58.5 10.5 -136.5 q-1 -77 -13.5 -135.5 q-12.5 -58.5 -32.5 -101 q-20 -42.5 -45.5 -71.5 q-25.5 -29 -51.5 -47 q-62 -43 -139 -46 q-77 3 -139 46 q-26 18 -51.5 47 q-25.5 29 -45.5 71.5 q-20 42.5 -33 100.5 q-13 58 -14 136 ZM328 -27 q58 5 106 39 q20 15 40 37 q20 22 37 55 q17 33 29 77 q12 44 17 102 q6 81 -4 142 q-10 61 -29.5 105.5 q-19.5 44.5 -46 73.5 q-26.5 29 -54 47 q-27.5 18 -53 25.5 q-25.5 7.5 -42.5 8.5 l0 -712 ZM295 218 q1 0 3 2 q0 1 1 2 l0 17 q-1 1 -1 3 q-1 1 -1 2 q0 1 -2 1 q-4 0 -4 -3 q-1 -1 0 -2 l0 -17 q0 -5 2 -5 q1 -1 2 0 ZM292 -26 q2 -1 3 2.5 q1 3.5 1 8.5 l0 11 l2 182 l0 8 q0 6 -3 8 q-2 0 -4 -6 q-1 -3 -1 -7 l0 -56 q-1 -29 -1 -54 q-1 -22 -1 -42.5 q0 -20.5 0 -30.5 q0 -10 0.5 -15 q0.5 -5 1.5 -7 q1 -3 2 -2 Z" /><glyph glyph-name="P" unicode="p" d="M412 720 q43 -7 80 -25 q37 -18 64 -45 q27 -27 42 -62.5 q15 -35.5 14 -78.5 q-1 -40 -15 -76 q-14 -36 -41 -64 q-27 -28 -65.5 -47 q-38.5 -19 -87.5 -26 q-15 -3 -32 -5 q-17 -2 -32.5 -3 q-15.5 -1 -28.5 -1.5 q-13 -0.5 -20 -0.5 l0 -311 q1 -23 -3 -31.5 q-4 -8.5 -15 -6.5 q-6 1 -9 5 q-3 4 -4.5 8.5 q-1.5 4.5 -1.5 7 q0 2.5 0 -0.5 q1 -5 -2.5 -14.5 q-3.5 -9.5 -18.5 -9.5 q-14 0 -16 10 q-2 4 0 10 q-5 -5 -9 -5 q-4 0 -7 2 q-4 2 -6 5 q0 -4 -3 -8 q-2 -3 -6 -6 q-4 -3 -11 -3 q-15 -1 -22 6 q-4 3 -6 7 q0 -4 -3 -7 q-2 -2 -6 -4 q-4 -2 -12 -2 q-13 0 -17 9 q-2 4 -1 10 l0 44 q1 25 0 45 q-1 17 -2.5 33 q-1.5 16 -5.5 20 q-4 4 -5 -11 q-1 -15 -1 -37 q0 -22 0.5 -44 q0.5 -22 -0.5 -31 q-1 -18 -6.5 -24.5 q-5.5 -6.5 -12.5 -4.5 q-6 1 -8.5 6 q-2.5 5 -3.5 11 q-1 7 -1 16 l0 748 l220 0 l17 0 q8 0 20 0 q12 0 28 -1 q16 -1 31.5 -2.5 q15.5 -1.5 30.5 -4.5 ZM291 336 q51 1 100 9 q49 8 87.5 28 q38.5 20 61.5 54 q23 34 22 87 q-1 44 -23.5 78.5 q-22.5 34.5 -59.5 56.5 q-37 22 -85.5 31 q-48.5 9 -102.5 2 l0 -346 ZM267 242 q-1 1 -1 3 q-2 3 -3 3 q-4 0 -4 -2 q-1 -1 0 -2 l0 -6 q0 -3 -0.5 -6 q-0.5 -3 -0.5 -5 q0 -5 2 -5 q1 -1 2 0 q2 0 4 2 q1 1 1 2 l0 16 ZM266 189 q0 7 -3 9 q-5 0 -5 -7 q-1 -4 0 -7 l-1 -56 l-1 -127 q-1 -10 0 -14.5 q1 -4.5 2 -6.5 q1 -3 3 -2 q2 -1 2.5 2 q0.5 3 0.5 8 l0 11 l2 182 l0 8 Z" /><glyph glyph-name="S" unicode="s" d="M321 360 q61 -2 115.5 -19 q54.5 -17 94.5 -46 q40 -29 63.5 -67.5 q23.5 -38.5 23.5 -82.5 q0 -45 -23.5 -84.5 q-23.5 -39.5 -64.5 -69 q-41 -29.5 -96 -46.5 q-55 -17 -117 -17 q-1 0 -16.5 0 q-15.5 0 -40.5 4 q-25 4 -56 13.5 q-31 9.5 -62.5 28 q-31.5 18.5 -60.5 48.5 q-29 30 -49 74 q-2 6 -2 11 q0 5 2.5 10 q2.5 5 10.5 9 q9 5 16 2.5 q7 -2.5 13 -9 q6 -6.5 10.5 -14.5 q4.5 -8 8.5 -13 q22 -32 46 -53 q24 -21 51.5 -34 q27.5 -13 59 -19 q31.5 -6 69.5 -7 l0 340 q-53 1 -99.5 17.5 q-46.5 16.5 -81 44 q-34.5 27.5 -54.5 65 q-20 37.5 -20 80.5 q0 42 19.5 79 q19.5 37 54 65 q34.5 28 80 45 q45.5 17 98.5 18 q2 0 3.5 0.5 q1.5 0.5 3.5 0.5 q92 0 152.5 -22.5 q60.5 -22.5 103.5 -76.5 q9 -10 15 -20 q5 -8 7 -18 q2 -10 -6 -17 q-9 -8 -16.5 -9 q-7.5 -1 -14.5 2 q-7 3 -12 8 q-5 5 -8 9 q-35 50 -87 71.5 q-52 21.5 -134 20.5 l0 -322 ZM281 554 q3 0 3 2 l0 2 l1 18 q-1 1 -1 3 q-1 1 -1 2 q0 1 -2 1 q-2 -1 -4 -3 q-1 -1 -1 -3 l0 -17 q0 -2 2 -4 q1 -1 3 -1 ZM283 514 q1 4 1 8 q0 6 -3 8 q-2 0 -4 -6 q-1 -3 -1 -7 l0 -56 q-1 -10 -1 -21 q-1 -9 -1 -20 q0 -11 0 -21 q0 -10 0.5 -15 q0.5 -5 1.5 -7 q1 -3 2 -2 q1 0 3 11 q0 4 1 11 l1 117 ZM587 147 q1 -1 1 14 q0 15 -8 32 q-6 13 -14.5 26.5 q-8.5 13.5 -26.5 30.5 q-12 11 -17.5 14.5 q-5.5 3.5 -10.5 2.5 q-3 0 -0.5 -3 q2.5 -3 7 -6.5 q4.5 -3.5 9.5 -7.5 q5 -4 8 -7 q11 -10 21 -24 q10 -14 15 -28 q5 -11 8 -19.5 q3 -8.5 5 -13.5 q2 -6 3 -11 Z" /><glyph glyph-name="T" unicode="t" d="M653 725 q10 0 17 -7.5 q7 -7.5 7 -18.5 q0 -12 -7 -20 q-7 -8 -17 -8 l-186 0 l0 -540 l-1 0 q0 -62 0 -99.5 q0 -37.5 1 -53.5 q0 -23 -3.5 -31.5 q-3.5 -8.5 -15.5 -5.5 q-7 1 -9.5 7 q-2.5 6 -3.5 10 q0 -6 -4 -14 q-4 -8 -18 -8 q-14 0 -16 10 q-2 4 0 10 q-5 -5 -9 -5 q-4 0 -7 2 q-4 2 -6 5 q0 -4 -3 -8 q-2 -3 -6.5 -6 q-4.5 -3 -11.5 -3 q-13 -1 -20 6 q-4 3 -6 7 q-1 -4 -4 -7 q-6 -6 -18 -6 q-13 0 -17 9 q-2 4 -1 10 l0 45 q1 25 0 45 q-1 17 -2.5 33 q-1.5 16 -5.5 20 q-4 4 -5 -11.5 q-1 -15.5 -1 -37 q0 -21.5 0.5 -43.5 q0.5 -22 -0.5 -31 q-2 -19 -7 -25.5 q-5 -6.5 -13 -4.5 q-5 1 -7 6.5 q-2 5.5 -4 11.5 q-2 7 -2 15 l0 688 l-186 0 q-11 1 -18 9 q-7 8 -7 19 q0 11 7 18 q7 7 18 8 l598 0 ZM429 219 q3 0 3 1 l0 2 l1 17 q-1 1 -1 3 q-1 1 -1 2 q0 1 -2 1 q-2 0 -2.5 -1 q-0.5 -1 -1.5 -2 q-1 -1 -1 -2 l0 -16 q0 -5 2 -5 q1 -1 3 0 ZM431 178 q1 4 1 8 q0 7 -3 9 q-2 0 -4 -7 q-1 -4 -1 -7 l-1 -56 l-1 -127 q0 -10 0.5 -15 q0.5 -5 1.5 -7 q1 -3 2 -2 q2 -1 2 2.5 q0 3.5 1 8.5 q0 5 1 11 l1 182 Z" /><glyph glyph-name="U" unicode="u" d="M622 692 q0 -6 0 -23.5 q0 -17.5 0 -63 q0 -45.5 0 -126.5 q0 -81 0 -214 q0 -38 -5 -76 q-5 -32 -14.5 -69.5 q-9.5 -37.5 -29.5 -67.5 q-40 -61 -106 -90 q-66 -29 -145 -29 q-68 0 -115.5 20 q-47.5 20 -78 56 q-30.5 36 -45.5 85 q-15 49 -18 106 l0 3 l0 501 q0 11 7.5 18.5 q7.5 7.5 18.5 7.5 q11 0 19 -7.5 q8 -7.5 8 -18.5 l0 -499 q5 -97 43.5 -152.5 q38.5 -55.5 101.5 -55.5 q28 0 49 11.5 q21 11.5 36 30 q15 18.5 24.5 42 q9.5 23.5 14.5 48.5 q12 58 10 133 l-1 217 l0 209 q-1 8 1 15 q2 6 4.5 11 q2.5 5 8.5 7 q7 1 12 -5 q5 -6 7 -25 q1 -9 0.5 -31 q-0.5 -22 -0.5 -44 q0 -22 1 -37.5 q1 -15.5 5 -11.5 q4 4 5.5 19.5 q1.5 15.5 2.5 33.5 q1 20 0 46 l0 46 q-1 5 1 9 q2 3 5.5 6 q3.5 3 11.5 3 q8 0 12 -2.5 q4 -2.5 6 -4.5 q3 -3 4 -6 q2 4 6 7 q3 2 7.5 4 q4.5 2 12.5 2 q12 -1 18 -9 q3 -4 4 -9 q1 3 5 5 q6 4 16 -3 q-2 6 0 10 q2 9 16 10 q15 1 18.5 -8.5 q3.5 -9.5 3.5 -13.5 q0 -4 0 -2 q0 2 1.5 6.5 q1.5 4.5 4 8.5 q2.5 4 8.5 5 q11 2 15 -6 q4 -8 3 -32 ZM590 243 q1 11 -2.5 13.5 q-3.5 2.5 -4.5 -4.5 q-1 -6 -1 -10 q-2 -9 0 -14 q2 -5 5 -0.5 q3 4.5 3 15.5 ZM583 159 q4 20 3.5 27.5 q-0.5 7.5 -2.5 12.5 q-2 3 -3 -1.5 q-1 -4.5 -2 -11.5 q-1 -7 -2 -14.5 q-1 -7.5 -2 -11.5 q-8 -36 -19 -57 q-11 -21 -24 -37 q-5 -8 -10 -11.5 q-5 -3.5 -3 -7.5 q2 -3 7.5 1 q5.5 4 10.5 9 q20 23 30.5 48.5 q10.5 25.5 15.5 53.5 Z" /><glyph glyph-name="Y" unicode="y" d="M650 670 q8 -7 11 -12.5 q3 -5.5 3 -10.5 q0 -5 -3 -10 l-77 -118 l-12 -18 l-125 -184 l0 -194 l-1 0 q0 -60 0 -98 q0 -38 1 -53 q0 -25 -3.5 -33 q-3.5 -8 -15.5 -6 q-7 2 -9.5 8 q-2.5 6 -3.5 10 q0 -5 -4 -14 q-4 -9 -18 -7 q-14 0 -16 10 q-2 4 0 10 q-9 -8 -16 -4 q-4 2 -6 5 q0 -4 -3 -8 q-2 -3 -6.5 -6 q-4.5 -3 -11.5 -4 q-13 0 -20 7 q-4 3 -6 7 q-1 -4 -4 -7 q-5 -7 -18 -7 q-13 0 -17 10 q-2 4 -1 10 l0 45 q1 25 0 45 q-1 17 -2.5 33 q-1.5 16 -5.5 20 q-3 4 -4 -11.5 q-1 -15.5 -1 -37 q0 -21.5 0 -43.5 q0 -22 -1 -31 q-2 -18 -7 -24.5 q-5 -6.5 -13 -5.5 q-4 1 -5.5 6 q-1.5 5 -2.5 11 q-1 7 -1 16 l0 413 l-191 300 q-6 11 -4 22 q2 11 11 17 q9 5 20 2.5 q11 -2.5 19 -13.5 l0 1 l189 -298 l5 0 l128 192 l11 18 l56 87 q5 9 10 14 q5 5 11 6.5 q6 1.5 14 -4.5 q8 -6 8.5 -11.5 q0.5 -5.5 -1.5 -10.5 q-3 -5 -7 -9 q7 -4 8 -8 q1 -4 -1 -8 q-2 -4 -6 -9 q-4 -6 -8 -12 q-3 -5 -5 -10.5 q-2 -5.5 -1 -7.5 q0 -6 4 -4 l4 2 l46 68 q4 8 10 12 q5 4 12 5 q7 1 16 -5 q15 -10 10.5 -20.5 q-4.5 -10.5 -7.5 -15.5 q2 2 6 3 q4 1 12 -4 q9 -6 9 -12 q0 -4 -1 -6 q5 4 11 6 q5 2 12 1 q7 -1 15 -7 ZM419 243 l0 3 q0 2 -3 2 q-2 0 -4 -2 q-1 -1 -1 -2 q-1 -3 -1 -6 l0 -11 q0 -5 2 -5 q1 -1 3 0 q1 0 3 2 q0 1 1 2 l0 17 ZM418 181 q1 4 1 8 q0 8 -4 9 q-2 0 -4 -7 q-1 -4 -1 -7 l0 -56 q-1 -28 -1 -53 q0 -21 -0.5 -42 q-0.5 -21 -0.5 -31 q0 -11 0.5 -15.5 q0.5 -4.5 1.5 -6.5 q1 -3 3 -2 q2 -1 2.5 2.5 q0.5 3.5 0.5 7.5 l0 11 l2 182 Z" /><glyph glyph-name="Z" unicode="z" d="M620 -10 q10 0 16 -8 q6 -8 6 -19 q0 -11 -6.5 -19 q-6.5 -8 -15.5 -8 l-569 0 q-8 1 -14.5 8.5 q-6.5 7.5 -6.5 18.5 q0 9 5 17 l-1 0 l346 692 l-298 0 q-9 1 -15 8.5 q-6 7.5 -6 18.5 q0 11 6 18.5 q6 7.5 15 8.5 l534 0 q10 0 16 -8 q6 -8 6 -19 q0 -12 -6 -19 l-336 -690 l324 0 ZM356 215 q-2 -3 0 -5 q1 -1 2 -1 q2 -2 4 0 q1 0 1 1 l7 16 q1 1 1 3 q0 2 -2 4 q-4 0 -5 -1 q-1 -1 -1 -2 q-2 -2 -3 -5 q-2 -2 -2.5 -5 q-0.5 -3 -1.5 -5 ZM315 126 q-12 -26 -23 -49 q-9 -20 -17.5 -39.5 q-8.5 -19.5 -12.5 -27.5 q-7 -15 -7 -20 l5 0 q2 2 2.5 5 q0.5 3 2.5 5 q1 3 3 5 l76 165 q2 3 4 7 q2 8 -1 10 q-3 1 -6 -4 q-2 -3 -3 -7 l-23 -50 Z" /><glyph glyph-name="a" unicode="a" d="M552 -28 q2 -11 0 -20 q-2 -8 -6.5 -14.5 q-4.5 -6.5 -15.5 -7.5 q-12 -1 -17.5 5 q-5.5 6 -7.5 14 q-3 9 -1 19 l0 74 l0 16 l0 22 q-1 3 -2 -0.5 q-1 -3.5 -3 -8.5 l-4 -14 l-2 -93 q2 -6 2 -11 q0 -5 -2 -10 q-2 -5 -7 -9 q-6 -5 -10.5 -4 q-4.5 1 -8.5 3 q-4 3 -7 8 q-3 -8 -14 -8 q-11 0 -14 14 q-2 -24 -25 -24 q-9 0 -14.5 6 q-5.5 6 -4.5 17 q-4 -5 -9 -8.5 q-5 -3.5 -14 -3.5 q-18 0 -18 16 q-17 -8 -33.5 -11 q-16.5 -3 -30.5 -3 q-56 0 -99 21.5 q-43 21.5 -73 59 q-30 37.5 -45.5 87.5 q-15.5 50 -15.5 107 q0 66 22 122 q22 56 64 95 q42 39 102 57.5 q60 18.5 136 9.5 q38 -5 70.5 -15.5 q32.5 -10.5 56 -26 q23.5 -15.5 37 -34 q13.5 -18.5 14.5 -39.5 l0 -408 ZM112 211 q0 -48 13 -87.5 q13 -39.5 36.5 -68 q23.5 -28.5 54.5 -44.5 q31 -16 67 -16 q30 0 64 17 l0 424 l-7 1 q-50 6 -91.5 -8.5 q-41.5 -14.5 -72 -45 q-30.5 -30.5 -47.5 -74.5 q-17 -44 -17 -98 Z" /><glyph glyph-name="b" unicode="b" d="M290 491 q73 12 131 -7 q58 -19 98 -57.5 q40 -38.5 61.5 -90.5 q21.5 -52 21.5 -107 q0 -62 -15.5 -115.5 q-15.5 -53.5 -45.5 -93 q-30 -39.5 -73.5 -62 q-43.5 -22.5 -99.5 -22.5 q-17 0 -36 2.5 q-19 2.5 -41 11.5 q1 -10 -3 -23 q-4 -13 -21 -14 q-14 -1 -20 5.5 q-6 6.5 -8 14.5 q-3 10 -1 22 l-1 80 l0 17 l0 25 q-1 3 -2 -0.5 q-1 -3.5 -3 -8.5 q-2 -6 -4 -16 l-2 -102 q2 -6 2 -11 q0 -5 -2 -10.5 q-2 -5.5 -8 -10.5 q-6 -5 -11 -4 q-5 1 -9 3 q-4 3 -8 8 q-9 -8 -15 -8.5 q-6 -0.5 -10 3.5 q-4 4 -7 12 q0 -12 -8 -20.5 q-8 -8.5 -23 -6.5 q-8 1 -11 5 q-3 4 -5 9 q-2 5 -1 12 q-2 -4 -6 -7 q-7 -7 -19 -7 q-12 0 -17 9 q-3 4 -3 9 l0 750 q1 7 5 12 q7 11 27 12 q10 0 16.5 -3 q6.5 -3 9.5 -7.5 q3 -4.5 4 -9 q1 -4.5 1 -6.5 q0 -2 0.5 -14 q0.5 -12 1 -26 q0.5 -14 1.5 -25.5 q1 -11.5 3 -12.5 q3 -3 3 -7 l0 -6 q0 -4 1 -8 q2 -7 4 -4 q1 2 1 20 q0 18 0 39 q0 24 -1 54 q1 6 4 10 q2 4 7 7 q5 3 14 3 q9 -1 14 -4 q5 -3 7 -7 q3 -4 4 -10 q1 3 5 7 q3 2 8 4.5 q5 2.5 13 0.5 q8 -2 11.5 -6 q3.5 -4 5.5 -9 q2 -5 3 -12 q3 -1 6 -1 q6 0 7 9 q1 11 5.5 17.5 q4.5 6.5 17.5 6.5 q6 0 9 -5 q3 -5 5 -10 q2 -7 2 -15 l0 -188 ZM368 -5 q35 0 66.5 15.5 q31.5 15.5 55 44.5 q23.5 29 37 70.5 q13.5 41.5 13.5 94.5 q0 43 -14.5 85.5 q-14.5 42.5 -45 74.5 q-30.5 32 -77.5 48 q-47 16 -113 7 l0 -417 q20 -11 41 -17 q21 -6 37 -6 ZM227 104 q2 -5 6.5 -0.5 q4.5 4.5 4.5 16.5 q0 12 -4.5 16 q-4.5 4 -5.5 -4 q-1 -6 -1 -11 q-2 -11 0 -17 Z" /><glyph glyph-name="c" unicode="c" d="M533 47 q10 -14 2.5 -27.5 q-7.5 -13.5 -23.5 -24.5 q-39 -29 -91.5 -45 q-52.5 -16 -107.5 -16 q-33 0 -65.5 6.5 q-32.5 6.5 -61.5 21 q-29 14.5 -53.5 36.5 q-24.5 22 -42.5 53 q-15 26 -23.5 55.5 q-8.5 29.5 -13.5 59.5 q-5 35 -3 71 q2 36 12 70 q20 72 69 113.5 q49 41.5 111 56.5 q62 15 129.5 5 q67.5 -10 124.5 -40 q9 -4 14 -9 q5 -5 7.5 -12.5 q2.5 -7.5 -1.5 -17.5 q-5 -14 -18 -14.5 q-13 -0.5 -20 3.5 q-31 18 -72 29.5 q-41 11.5 -79 11.5 q-29 0 -56 -6 l0 -422 q18 -3 35.5 -4 q17.5 -1 31.5 0 q42 2 77.5 15 q35.5 13 70.5 36 q15 10 27.5 7.5 q12.5 -2.5 19.5 -12.5 ZM239 272 q-2 1 -3.5 -1.5 q-1.5 -2.5 -1.5 -5.5 q-1 -4 0 -9 l-1 -69 q-1 -31 -1 -57 q0 -23 -0.5 -46 q-0.5 -23 -0.5 -35 q0 -12 0.5 -18.5 q0.5 -6.5 1.5 -8.5 q1 -3 3 -2 q2 -1 3 3.5 q1 4.5 1 9.5 l0 14 l3 205 l0 10 q0 9 -4 10 Z" /><glyph glyph-name="e" unicode="e" d="M316 489 q46 0 90 -15.5 q44 -15.5 78 -48 q34 -32.5 53 -82 q19 -49.5 16 -117.5 q0 -12 -7.5 -21.5 q-7.5 -9.5 -21.5 -9.5 l-257 0 l0 -189 q28 -7 61 -6 q50 2 85.5 17.5 q35.5 15.5 68.5 35.5 q19 11 34 4.5 q15 -6.5 15 -20.5 q0 -14 -9.5 -24 q-9.5 -10 -26.5 -21 q-41 -26 -89.5 -39.5 q-48.5 -13.5 -103.5 -13.5 q-56 0 -102 21 q-46 21 -79.5 56.5 q-33.5 35.5 -52 81 q-18.5 45.5 -18.5 93.5 q0 78 20 134.5 q20 56.5 56 93 q36 36.5 84.5 53.5 q48.5 17 105.5 17 ZM267 258 l224 0 q-2 34 -16.5 66.5 q-14.5 32.5 -37.5 57.5 q-23 25 -54 40.5 q-31 15.5 -67 15.5 q-13 0 -25.5 -1 q-12.5 -1 -23.5 -3 l0 -176 ZM231 363 q0 1 -1 3 q-3 3 -4 3 q-1 0 -4 -3 q-1 -2 -1 -3 l0 -19 q0 -4 2 -6 q1 -1 3 0 q1 0 4 3 q1 1 1 2 l0 20 ZM222 22 q2 -1 4 -2 q2 -1 4 -2 l0 15 l0 9 l0 249 q1 5 1 9 q0 9 -4 10 q-3 0 -5 -8 q-1 -4 -1 -8 l0 -252 q0 -8 0.5 -12.5 q0.5 -4.5 0.5 -7.5 Z" /><glyph glyph-name="g" unicode="g" d="M557 363 q1 -5 1 -8.5 q0 -3.5 0 -6.5 l-1 -71 l0 -375 q0 -14 -3.5 -39 q-3.5 -25 -17.5 -52 q-14 -27 -42 -51 q-28 -24 -78 -35 q-35 -8 -74 -10.5 q-39 -2.5 -77.5 1 q-38.5 3.5 -75 15 q-36.5 11.5 -66.5 32.5 q-12 8 -23.5 18 q-11.5 10 -22.5 20 q-11 9 -15 18 q-5 11 -1 22 q4 11 14 16 q11 6 23 3 q11 -3 19.5 -10 q8.5 -7 16.5 -14 q9 -8 19 -15 q10 -7 21 -12 q12 -6 29.5 -12 q17.5 -6 37 -9.5 q19.5 -3.5 37.5 -3.5 q18 0 31 6 q21 10 32 30 q11 20 11 41 l0 87 q-17 -7 -33.5 -9.5 q-16.5 -2.5 -31.5 -2.5 q-55 0 -99 23 q-44 23 -74.5 60 q-30.5 37 -47 84 q-16.5 47 -16.5 95 q0 67 18.5 121.5 q18.5 54.5 53 93.5 q34.5 39 82.5 60.5 q48 21.5 107 21.5 q69 0 115 -13.5 q46 -13.5 74 -33.5 q28 -20 41 -42.5 q13 -22.5 16 -41.5 l0 -1 ZM287 -6 q14 0 31 6 q17 6 34 17 l0 418 q-10 1 -20 1.5 q-10 0.5 -21 0.5 q-45 0 -81.5 -17 q-36.5 -17 -62.5 -48.5 q-26 -31.5 -40 -75.5 q-14 -44 -14 -98 q0 -44 14 -81.5 q14 -37.5 38 -64.5 q24 -27 55.5 -42.5 q31.5 -15.5 66.5 -15.5 ZM516 -119 q3 19 3 26.5 q0 7.5 -4 12.5 q-2 2 -3 -2 q-1 -4 -2 -11 q-1 -7 -1.5 -14.5 q-0.5 -7.5 -1.5 -11.5 q-3 -17 -10.5 -36 q-7.5 -19 -16.5 -33 q-8 -13 -13.5 -21 q-5.5 -8 -9.5 -13 q-4 -6 -8 -9 q-1 -2 13 7 q14 9 26 29 q8 14 15.5 30.5 q7.5 16.5 12.5 45.5 Z" /><glyph glyph-name="h" unicode="h" d="M379 495 q43 0 80 -14.5 q37 -14.5 64 -40.5 q27 -26 42 -62 q15 -36 15 -80 l0 -311 q0 -17 -7 -31.5 q-7 -14.5 -27 -13.5 q-14 1 -21.5 11.5 q-7.5 10.5 -7.5 33.5 l0 311 q0 41 -17 72.5 q-17 31.5 -47.5 49.5 q-30.5 18 -72 20.5 q-41.5 2.5 -90.5 -13.5 l0 -449 q2 -12 0 -22 q-2 -8 -6.5 -15.5 q-4.5 -7.5 -16.5 -8.5 q-14 -1 -20 5.5 q-6 6.5 -8 14.5 q-3 10 -1 22 l0 80 l0 17 l0 24 q-1 4 -2.5 0 q-1.5 -4 -3.5 -9 l-4 -16 l-2 -102 q2 -7 2 -12 q0 -5 -2 -10 q-2 -5 -8 -10 q-5 -4 -11 -4 q-7 0 -11 4 q-4 4 -6 9 q-2 -4 -6 -7 q-4 -3 -10 -3 q-13 0 -16 15 q-2 -10 -8 -18 q-6 -8 -17 -8 q-9 0 -15.5 6.5 q-6.5 6.5 -7.5 18.5 q-5 -14 -24 -14 q-21 0 -21 30 l0 709 q0 15 9 22 q9 7 23 8 q10 0 16.5 -3 q6.5 -3 10 -7.5 q3.5 -4.5 4 -9 q0.5 -4.5 0.5 -6.5 q0 -2 0.5 -14.5 q0.5 -12.5 1 -26.5 q0.5 -14 1.5 -25.5 q1 -11.5 3 -12.5 q3 -3 3 -7 l0 -5 q0 -8 1 -12 q1 -4 1.5 -5.5 q0.5 -1.5 2.5 5.5 l0 59 l0 54 q0 6 4 10 q5 9 22 9 q8 0 13.5 -3.5 q5.5 -3.5 7.5 -7.5 q3 -4 3 -10 q1 4 5 8 q7 7 21 5 q8 -2 11.5 -6.5 q3.5 -4.5 5.5 -9.5 q2 -6 3 -12 q3 -1 6 0 q2 1 4.5 2.5 q2.5 1.5 2.5 6.5 q1 10 6 16.5 q5 6.5 17 6.5 q6 0 9 -4.5 q3 -4.5 5 -9.5 q2 -6 2 -15 l0 -194 q46 15 89 15 ZM242 150 q0 1 -1 3 q-2 3 -4 3 q-1 0 -4 -3 q-1 -1 -1 -2 l0 -20 q0 -4 2 -6 q1 -1 3 0 q1 0 4 3 q1 1 1 2 l0 20 Z" /><glyph glyph-name="i" unicode="i" d="M193 735 q43 0 72.5 -29.5 q29.5 -29.5 29.5 -72.5 q0 -21 -8 -39 q-8 -18 -21.5 -32 q-13.5 -14 -32.5 -22 q-19 -8 -40 -8 q-21 0 -39.5 8 q-18.5 8 -32.5 22 q-14 14 -22 32 q-8 18 -8 39 q0 21 8 40 q8 19 22 32.5 q14 13.5 32.5 21.5 q18.5 8 39.5 8 ZM213 697 q5 2 0.5 6 q-4.5 4 -13.5 2 q-8 -2 -10 -6.5 q-2 -4.5 3 -6.5 q5 -2 12 2 q4 1 8 3 ZM129 651 q0 -5 2 -9 q2 -3 3.5 -6 q1.5 -3 5.5 -3 q3 0 5.5 3.5 q2.5 3.5 5 9 q2.5 5.5 4 11 q1.5 5.5 3.5 8.5 q2 3 6 6.5 q4 3.5 7 7.5 q3 4 3.5 7 q0.5 3 -5.5 5 q-6 1 -13 -3.5 q-7 -4.5 -13.5 -11.5 q-6.5 -7 -10.5 -14 q-4 -7 -3 -11 ZM305 -14 q2 -12 0 -22 q-2 -8 -6.5 -15.5 q-4.5 -7.5 -16.5 -8.5 q-14 -1 -20 5.5 q-6 6.5 -8 14.5 q-3 10 -1 22 l-1 80 q1 9 1 17 q0 7 0 13.5 q0 6.5 -1 10.5 q-1 4 -2 0 q-1 -4 -3 -9 l-4 -16 l-2 -102 q2 -7 2 -12 q0 -5 -2 -10 q-2 -5 -8 -10 q-6 -5 -11 -4 q-5 1 -9 3 q-4 3 -8 8 q-9 -8 -15 -8.5 q-6 -0.5 -10 3.5 q-4 4 -7 12 q0 -12 -8 -20.5 q-8 -8.5 -23 -5.5 q-8 1 -11 5 q-3 4 -5 9 q-2 5 -1 11 q-2 -4 -6 -7 q-7 -7 -19 -7 q-12 0 -17 9 q-3 4 -3 10 l0 498 q1 7 5 12 q3 5 9.5 8.5 q6.5 3.5 17.5 3.5 q10 0 16.5 -3.5 q6.5 -3.5 10 -8 q3.5 -4.5 4 -9 q0.5 -4.5 0.5 -6.5 q0 -2 0 -14 q0 -12 1 -26 q1 -14 2 -25.5 q1 -11.5 3 -12.5 q3 -3 3 -7 l0 -6 q0 -4 1 -8 q2 -7 4 -4 q1 2 1 20.5 q0 18.5 0 38.5 q0 24 -1 54 q1 6 4 10 q2 4 7 7 q5 3 14 3 q9 -1 14 -4 q5 -3 7 -7 q3 -4 4 -10 q1 4 5 8 q7 7 21 5 q8 -2 11.5 -6.5 q3.5 -4.5 5.5 -9.5 q2 -5 3 -12 q3 -1 6 0 q2 1 4 2.5 q2 1.5 3 6.5 q1 10 5.5 16.5 q4.5 6.5 17.5 6.5 q6 0 9 -4.5 q3 -4.5 5 -9.5 q2 -6 2 -15 l0 -468 ZM247 135 q4 0 4 3 l0 2 l1 20 q0 1 -1 3 q-2 4 -4 4 q-2 -1 -4 -3 q-1 -1 -1 -3 l0 -20 q0 -3 2 -5 q1 -1 3 -1 Z" /><glyph glyph-name="n" unicode="n" d="M374 498 q25 0 58.5 -10 q33.5 -10 63.5 -36.5 q30 -26.5 51 -72.5 q21 -46 21 -118 l0 -288 q0 -33 -34 -33 q-14 0 -23 7.5 q-9 7.5 -9 27.5 l0 286 q0 39 -9 70.5 q-9 31.5 -26.5 54 q-17.5 22.5 -41.5 35 q-24 12.5 -54 12.5 q-54 0 -82 -24 q-28 -24 -33 -66 l0 -355 q1 -10 0 -18 q-1 -7 -5 -13 q-4 -6 -13 -7 q-11 -1 -15.5 4 q-4.5 5 -6.5 12 q-2 8 0 18 l0 67 q1 7 1 14 q0 6 0 11.5 q0 5.5 -1 9.5 q-1 3 -2 0 q-1 -3 -3 -8 q-2 -5 -4 -13 l-1 -85 q1 -6 1 -10 q0 -11 -7 -17 q-9 -6 -16 -1 q-4 3 -6 7 q-12 -12 -19 -4 q-4 3 -5 9 q0 -9 -6.5 -16 q-6.5 -7 -17.5 -6 q-9 2 -11.5 8.5 q-2.5 6.5 -2.5 10.5 q-1 -3 -3 -5.5 q-2 -2.5 -9 -2.5 q-8 0 -11 4 q-1 -10 -11 -13 q-5 -2 -8.5 0.5 q-3.5 2.5 -5 6.5 q-1.5 4 -2 7.5 q-0.5 3.5 -0.5 4.5 l0 515 q-2 7 -1 13 q0 5 2.5 9.5 q2.5 4.5 7.5 5.5 q7 1 9.5 -3 q2.5 -4 4.5 -9 l0 3 q0 6 2 11 q2 4 6 7.5 q4 3.5 12 3.5 q8 0 12 -3 q4 -3 6 -7 q2 -4 2.5 -8.5 q0.5 -4.5 0.5 -5.5 q0 -2 0.5 -12 q0.5 -10 1 -21.5 q0.5 -11.5 1 -21.5 q0.5 -10 1.5 -10 q3 -3 3 -6 l0 -4 q0 -4 1 -7 q0 -2 0.5 -4 q0.5 -2 1.5 0 q1 2 1 17 q0 15 0 32 q0 20 -1 45 q0 5 3 9 q6 8 17 8 q11 -1 17 -9 q3 -4 3 -9 q1 4 4 7 q5 5 16 4 q6 -2 9 -5.5 q3 -3.5 5 -7.5 q2 -4 2 -10 q3 -1 5 0 q4 0 5 7 q0 9 3.5 14.5 q3.5 5.5 14.5 5.5 q5 0 6.5 -4 q1.5 -4 3.5 -9 l2 -12 l0 -28 q21 15 50.5 24.5 q29.5 9.5 67.5 9.5 Z" /><glyph glyph-name="o" unicode="o" d="M309 494 q59 0 107.5 -20.5 q48.5 -20.5 82.5 -58 q34 -37.5 52 -89.5 q18 -52 17 -116 q-1 -68 -22.5 -120.5 q-21.5 -52.5 -56.5 -88.5 q-35 -36 -81.5 -54.5 q-46.5 -18.5 -97.5 -18.5 q0 0 -19.5 0.5 q-19.5 0.5 -48 8 q-28.5 7.5 -61.5 24 q-33 16.5 -62 47.5 q-29 31 -48.5 80 q-19.5 49 -20.5 122 q-1 64 17 116 q18 52 52 89.5 q34 37.5 82.5 58 q48.5 20.5 107.5 20.5 ZM497 210 q1 49 -12 89 q-13 40 -37.5 69 q-24.5 29 -59 45.5 q-34.5 16.5 -77.5 16.5 l0 -437 q40 0 74 17 q34 17 58.5 46 q24.5 29 38.5 68.5 q14 39.5 15 85.5 ZM283 322 q-1 2 -1 4 q-2 3 -3 3 q-2 -1 -4 -3 q-1 -1 -1 -3 q-1 -3 -1 -7 l0 -13 q0 -3 2 -5 q1 -1 3 -1 q1 0 4 3 q1 1 1 2 l0 20 ZM279 269 q-4 0 -6 -8 q-1 -4 0 -8 l-1 -65 l0 -63 q0 -25 -0.5 -49.5 q-0.5 -24.5 -0.5 -35.5 q-1 -12 0 -18 q1 -6 2 -8 q1 -3 3 -2 q2 -1 3 3.5 q1 4.5 1 9.5 l0 13 l2 212 q1 5 1 9 q0 9 -4 10 Z" /><glyph glyph-name="p" unicode="p" d="M370 495 q56 0 99.5 -23 q43.5 -23 73.5 -61 q30 -38 45.5 -88.5 q15.5 -50.5 15.5 -105.5 q0 -62 -19.5 -113.5 q-19.5 -51.5 -53.5 -88.5 q-34 -37 -80 -58 q-46 -21 -100 -21 q-14 0 -29.5 0.5 q-15.5 0.5 -31.5 2.5 l0 -138 q0 -12 -4.5 -21 q-4.5 -9 -15.5 -9 q-9 0 -13.5 6 q-4.5 6 -5.5 15 q-2 15 -13 11 q-1 -10 -6.5 -18.5 q-5.5 -8.5 -16.5 -8.5 q-9 0 -14.5 3.5 q-5.5 3.5 -9.5 8.5 q-2 -8 -8.5 -14.5 q-6.5 -6.5 -17.5 -6.5 q-11 0 -17.5 6 q-6.5 6 -6.5 14 l0 104 q0 8 -2 8 q-2 0 -2 -4.5 q0 -4.5 0 -7.5 q-1 -3 -1 -6 q-2 -7 -3 -7 q-1 -1 -2 -12.5 q-1 -11.5 -1.5 -25 q-0.5 -13.5 -1 -25.5 q-0.5 -12 -0.5 -14 q0 -9 -7.5 -18 q-7.5 -9 -24.5 -9 q-12 0 -21.5 8 q-9.5 8 -9.5 23 l0 681 q0 5 3 9 q2 3 5.5 6 q3.5 3 10.5 3 q7 0 12 -2.5 q5 -2.5 8 -4.5 q4 -4 6 -7 q-1 7 1 12 q2 5 5 8.5 q3 3.5 11 5.5 q14 2 22.5 -6.5 q8.5 -8.5 8.5 -19.5 q3 7 7 11 q4 3 9.5 3.5 q5.5 0.5 14.5 -7.5 q4 5 8 8 q4 2 9 3 q5 1 11 -4 q10 -9 10 -21 q0 -6 -1 -12 l1 -101 q2 -10 4 -16 q2 -5 3.5 -9 q1.5 -4 2.5 0 q1 4 1 11 q0 7 0 14 q0 8 -1 17 l1 79 q-2 12 1 22 q2 8 7.5 14.5 q5.5 6.5 19.5 5.5 q12 -1 17 -8.5 q5 -7.5 7 -15.5 q23 10 42.5 12.5 q19.5 2.5 37.5 2.5 ZM338 -7 q46 0 84 16.5 q38 16.5 64.5 46 q26.5 29.5 41 70.5 q14.5 41 14.5 91 q0 46 -13 86 q-13 40 -36 69.5 q-23 29.5 -54.5 46.5 q-31.5 17 -68.5 17 q-16 0 -38 -6.5 q-22 -6.5 -42 -17.5 l0 -417 q13 -2 25 -2 q12 0 23 0 ZM236 149 q4 0 4 2 l0 2 l1 20 q0 1 -1 3 q-2 4 -4 4 q-2 0 -2.5 -1 q-0.5 -1 -1.5 -2 q-1 -2 -1 -3 l0 -19 q0 -4 2 -6 q1 -1 3 0 ZM239 101 q1 6 1 10 q0 9 -4 10 q-3 0 -5 -8 q-1 -4 -1 -8 l-1 -64 l-1 -150 q-1 -11 0 -17 q1 -6 2 -8 q1 -3 3 -2 q2 -1 3 3 q1 4 1 9 l0 13 l2 212 Z" /><glyph glyph-name="r" unicode="r" d="M424 502 q12 -2 21 -7 q8 -5 14 -13 q6 -8 4 -21 q-2 -20 -15 -24 q-13 -4 -33 -2 q-29 4 -49.5 -1 q-20.5 -5 -45.5 -22 q-10 -7 -21 -19 q-11 -12 -21.5 -27 q-10.5 -15 -19 -32 q-8.5 -17 -11.5 -34 l0 -320 q1 -10 0 -18 q-1 -7 -4.5 -12.5 q-3.5 -5.5 -12.5 -6.5 q-10 -1 -14 4.5 q-4 5.5 -6 12.5 q-2 8 -1 17 l-1 63 l0 14 l0 20 q-1 2 -4 -7 q-2 -5 -3 -13 l-1 -81 q1 -5 1 -9 q0 -10 -8 -17 q-9 -7 -15 -1 q-4 2 -5 6 q-7 -7 -11 -6.5 q-4 0.5 -7 3.5 q-4 4 -6 9 q0 -9 -6 -16 q-6 -7 -17 -5 q-4 1 -6.5 4.5 q-2.5 3.5 -4 7 q-1.5 3.5 -2 5.5 q-0.5 2 -0.5 0 q0 -2 -2 -5 q-2 -3 -9 -3 q-6 0 -10 4 q-3 -8 -11 -11 q-5 -2 -8 0 q-3 2 -4.5 6 q-1.5 4 -2 7.5 q-0.5 3.5 -0.5 4.5 l0 512 q-1 7 -1 13 q0 5 2 9 q2 4 8 5 q3 0 5 -2.5 q2 -2.5 3.5 -5.5 q1.5 -3 2.5 -4.5 q1 -1.5 1 0.5 l0 3 q0 6 2 10 q2 4 5.5 6.5 q3.5 2.5 11.5 3.5 q8 0 12.5 -2.5 q4.5 -2.5 6.5 -6.5 q2 -4 2 -8 q0 -4 0 -5 q0 -2 0 -11.5 q0 -9.5 0.5 -21 q0.5 -11.5 1.5 -20.5 q1 -9 2 -10 q2 -2 2 -5 l0 -5 q0 -3 1 -6 q2 -6 3 -3 q1 2 1 16 q0 14 0 31 q0 19 -1 43 q0 3 3 7 q2 2 5.5 4.5 q3.5 2.5 10.5 2.5 q12 0 16 -8 q2 -4 2 -7 q1 3 4 6 q2 2 5.5 4 q3.5 2 9.5 0 q6 -2 9 -5.5 q3 -3.5 5 -7.5 q2 -4 2 -9 q2 -1 4 -1 q5 0 5 8 q1 8 4.5 12.5 q3.5 4.5 12.5 5.5 q5 0 6.5 -3 q1.5 -3 3.5 -8 l2 -12 l0 -44 q11 12 21 21 q10 9 20 16 q36 24 67 28.5 q31 4.5 69 -1.5 ZM212 127 q0 1 -1 3 q-2 4 -4 4 q-1 0 -4 -3 q-1 -2 -1 -3 l0 -19 q0 -4 2 -6 q1 -1 3 0 q2 0 4 2 q1 1 1 2 l0 20 Z" /><glyph glyph-name="s" unicode="s" d="M453 116 q5 -51 -19.5 -88 q-24.5 -37 -64 -59.5 q-39.5 -22.5 -87 -30 q-47.5 -7.5 -89.5 -0.5 q-37 7 -68 19 q-14 6 -34 19 q-20 13 -36.5 30 q-16.5 17 -23 36 q-6.5 19 8.5 37 q8 10 17.5 9.5 q9.5 -0.5 19 -6.5 q9.5 -6 17.5 -14.5 q8 -8.5 14 -14.5 q23 -25 59.5 -37.5 q36.5 -12.5 74.5 -13.5 l0 196 q-32 6 -64.5 15 q-32.5 9 -59.5 23.5 q-27 14.5 -45.5 34.5 q-18.5 20 -22.5 47 q-6 36 5 63.5 q11 27.5 33 48 q22 20.5 52 33 q30 12.5 62.5 17.5 q32.5 5 64.5 3.5 q32 -1.5 58 -10.5 q27 -9 56 -25.5 q29 -16.5 46 -40.5 q5 -8 9.5 -16 q4.5 -8 4.5 -17 q0 -16 -12 -27 q-12 -11 -27 -10 q-11 1 -19 6 q-8 5 -16 13 q-10 10 -22.5 21 q-12.5 11 -25.5 18 q-12 7 -25.5 11 q-13.5 4 -27.5 6 q-6 1 -12 1.5 q-6 0.5 -12 -0.5 l0 -152 q16 -2 32 -5 q16 -3 31 -6 q25 -6 50.5 -17 q25.5 -11 46 -27.5 q20.5 -16.5 34.5 -39 q14 -22.5 17 -50.5 ZM376 184 q-5 6 -10 6 q-5 0 -3 -4 q2 -3 5 -6.5 q3 -3.5 6 -8.5 q3 -5 5.5 0.5 q2.5 5.5 -3.5 12.5 ZM424 74 q1 11 -0.5 24 q-1.5 13 -11.5 32 q-7 14 -11 18 q-4 4 -9 6 q-3 1 -2 -2 q1 -3 3.5 -7.5 q2.5 -4.5 5.5 -9.5 q3 -5 5 -8 q5 -11 8 -25.5 q3 -14.5 2 -26.5 q-2 -20 -6 -28.5 q-4 -8.5 -2 -10.5 q3 -2 9.5 9.5 q6.5 11.5 8.5 28.5 Z" /><glyph glyph-name="t" unicode="t" d="M420 113 q13 -2 18 -10.5 q5 -8.5 6 -19 q1 -10.5 -2 -21.5 q-3 -11 -6 -19 q-5 -14 -14 -29.5 q-9 -15.5 -23.5 -29.5 q-14.5 -14 -34.5 -25.5 q-20 -11.5 -47 -17.5 q-44 -10 -89 -7 q-45 3 -81 25.5 q-36 22.5 -59 67.5 q-23 45 -23 119 l0 471 q0 9 2 15 q2 5 4.5 9.5 q2.5 4.5 8.5 4.5 q12 -1 16.5 -7 q4.5 -6 5.5 -15 q0 -5 2 -6.5 q2 -1.5 4 -2.5 q3 -1 6 0 q0 7 2 12 q4 11 17 15 q8 2 12.5 -0.5 q4.5 -2.5 7.5 -4.5 q4 -4 5 -7 q0 6 3 10 q5 9 20 10 q8 0 13 -3 q5 -3 7 -7 q3 -4 4 -9 q-1 -28 -1 -51 q0 -20 0 -37.5 q0 -17.5 1 -19.5 q1 -2 2 -0.5 q1 1.5 2 4.5 q1 4 1 8 q-1 2 0 5 q0 5 4 7 q1 1 2 12 q1 11 1.5 24 q0.5 13 1 24.5 q0.5 11.5 0.5 13.5 q-1 4 4 15 q5 11 25 11 q18 -1 25 -12 q4 -5 5 -11 l0 -131 l124 0 q11 0 19 -8.5 q8 -8.5 8 -21.5 q0 -13 -8 -21.5 q-8 -8.5 -19 -8.5 l-124 0 l0 -331 q0 -13 3 -27.5 q3 -14.5 10 -26 q7 -11.5 18 -18 q11 -6.5 28 -3.5 q23 5 34.5 24.5 q11.5 19.5 18.5 39.5 q3 11 12.5 17.5 q9.5 6.5 17.5 4.5 ZM235 433 l-1 0 l1 0 ZM238 396 q0 8 -3 10 q-5 0 -5 -7 q-1 -4 0 -8 l-1 -184 q-1 -31 -1 -57 q-1 -23 -1 -45.5 q0 -22.5 0 -33.5 q0 -11 0.5 -16.5 q0.5 -5.5 1.5 -7.5 q1 -3 3 -3 q2 -1 3 3 q1 4 1 9 l0 13 l2 318 l0 9 Z" /><glyph glyph-name="u" unicode="u" d="M526 498 q8 -1 12 -6 q4 -5 5 -12 q1 -8 0 -18 l0 -511 l-2 -12 q-2 -5 -3.5 -8 q-1.5 -3 -6.5 -3 q-9 0 -12.5 5 q-3.5 5 -4.5 13 q0 8 -5 8 q-3 0 -5 -1 q0 -6 -2 -10 q-2 -4 -5 -7.5 q-3 -3.5 -8 -4.5 q-6 -2 -9.5 0 q-3.5 2 -5.5 4 q-3 3 -4 6 q-1 -4 -3 -8 q-4 -8 -15 -8 q-12 -1 -16 7 q-3 4 -3 8 q1 21 1 38 q0 14 0 27 q0 13 -1 15 q-1 2 -3 -3 q-1 -3 -1 -6 l0 -5 q0 -4 -2 -6 q-1 0 -2 -8 q-1 -8 -1.5 -17 q-0.5 -9 -0.5 -17.5 q0 -8.5 0 -9.5 q0 -3 -2.5 -13 q-2.5 -10 -17.5 -10 q-8 0 -11.5 3 q-3.5 3 -5.5 7 q-2 4 -2 11 l0 3 q-2 -5 -4.5 -9 q-2.5 -4 -8.5 -3 q-10 1 -10 14 q-1 5 1 13 l0 17 q-20 -20 -47 -33 q-27 -13 -65 -13 q-24 0 -56 6.5 q-32 6.5 -60.5 28 q-28.5 21.5 -48.5 62.5 q-20 41 -20 109 l0 325 q0 32 32 32 q14 0 22.5 -7 q8.5 -7 8.5 -26 l0 -324 q0 -28 8 -54 q8 -26 24 -46 q16 -20 40 -32 q24 -12 55 -12 q23 0 40 8 q17 8 29.5 21.5 q12.5 13.5 21 31.5 q8.5 18 15.5 39 l1 -1 l0 389 q0 2 2.5 10.5 q2.5 8.5 13.5 7.5 q8 -1 11 -11 q4 4 10 4 q6 0 8.5 -6 q2.5 -6 2.5 -3 q0 5 2 10 q2 5 10 7 q11 2 17 -4.5 q6 -6.5 6 -15.5 q1 6 5 9 q3 2 7.5 2 q4.5 0 11.5 -6 q1 4 5 7 q6 6 15 -1 q5 -4 6 -8.5 q1 -4.5 1 -8.5 q0 -4 -1 -9 l2 -81 q1 -8 3 -13 q1 -5 2 -7.5 q1 -2.5 2 0.5 l0 19 l0 14 l1 64 q-1 10 1 17 q2 6 6 11 q4 5 14 5 ZM504 291 q4 0 4 2 l0 2 l1 20 q0 1 -1 3 q-2 4 -4 4 q-2 0 -2.5 -1 q-0.5 -1 -1.5 -2 q-1 -2 -1 -3 l0 -19 q0 -4 2 -6 q1 -1 3 0 ZM507 243 q1 6 1 10 q0 9 -4 10 q-3 0 -5 -8 q-1 -4 -1 -8 l-1 -94 l-1 -149 q0 -14 2 -22 q1 -4 3 -6 q4 8 4 16 l0 10 l2 241 Z" /><glyph glyph-name="v" unicode="v" d="M642 447 q14 -4 16 -17 q1 -6 -1 -13 l-185 -480 l-250 1 l1 2 q-22 -2 -32 20 l-159 485 q-4 12 1 24.5 q5 12.5 17 17.5 q11 5 23 0 q12 -5 16 -17 l156 -470 l182 499 q2 6 6 10 q7 9 22 5 q8 -3 12 -8.5 q4 -5.5 5 -10.5 q1 -6 0 -13 l-39 -139 q-2 -7 -2 -12 q0 -5 1 -8.5 q1 -3.5 6 -3.5 q4 0 7.5 5 q3.5 5 5.5 11 q3 7 4 16 l43 147 q1 2 4 5 q5 5 15 5 q11 -1 15 -7.5 q4 -6.5 2 -15.5 l-3 -11 q2 3 6 5 q7 4 23 -2 q8 -3 12.5 -8.5 q4.5 -5.5 6.5 -10.5 q3 -6 3 -13 q2 2 5 4 q6 4 17 0 q10 -2 12.5 -6.5 q2.5 -4.5 1.5 -7.5 q2 5 6 10.5 q4 5.5 18 1.5 ZM575 282 q1 2 1 4 q0 3 -3 5 q-3 1 -5 -1 l-2 -2 q-1 -3 -2 -7 q-1 -3 -2.5 -7 q-1.5 -4 -2.5 -6 q-2 -4 0 -6 q1 -1 2 -1 q3 -2 5 0 q1 1 1 2 l8 19 ZM546 211 q2 5 4 9 q4 9 1 12 q-4 3 -8 -5 l-4 -8 l-84 -213 q-5 -11 -6 -17.5 q-1 -6.5 -1 -8.5 q0 -4 2 -3 q2 -2 4 2 q2 4 4 9 q3 5 5 13 l83 210 Z" /><glyph glyph-name="y" unicode="y" d="M574 428 q8 -5 8 -11 q0 -6 -2 -12 q-3 -7 -8 -14 l-44 -73 l-5 -7 l-230 -420 l-7 -13 l-39 -63 q-3 -4 -7 -8 q-8 -8 -15 -3 q-8 5 -8 10.5 q0 5.5 3 11.5 q2 5 -1 8 l-4 2 q-2 -3 -6 -6 q-3 -2 -8 -3.5 q-5 -1.5 -10 0.5 q-9 4 -11 11 q-1 4 0 7 q-2 -3 -6 -5 q-8 -4 -18 2 q-6 3 -8 7 q-2 4 -2 7 q0 4 1 8 l58 96 q11 18 21.5 35.5 q10.5 17.5 18.5 31.5 q8 14 13 23 q5 9 5 10 q0 1 -3.5 -4.5 q-3.5 -5.5 -9.5 -14.5 q-6 -9 -13.5 -21 q-7.5 -12 -14.5 -25 l-40 -68 l-2 -4 q-2 -3 -5 -3 q-1 0 -6 -6.5 q-5 -6.5 -11 -15 q-6 -8.5 -11 -15.5 q-5 -7 -5 -8 q0 -1 -2 -4 q-2 -3 -5.5 -5 q-3.5 -2 -8.5 -2 q-5 0 -12 4 q-12 7 -10 17 q1 4 4 9 l1 2 q2 4 -4.5 -1 q-6.5 -5 -11.5 -1 q-5 4 -4.5 8 q0.5 4 2.5 8 q3 4 7 9 l125 221 l-188 309 q-7 12 -5.5 24 q1.5 12 12.5 20 q11 8 24 5 q13 -3 21 -14 l0 1 l172 -282 q31 55 61.5 109 q30.5 54 54 96 q23.5 42 38.5 68 q15 26 15 27 q1 2 7 7 q6 5 14 -2 q6 -4 4 -14 q4 1 10 -2 q6 -3 6 -8 q0 -5 1 -3 q2 3 6 6 q4 3 12 0 q11 -4 13 -12 q2 -8 -3 -16 q5 3 9 4 q10 2 14 -12 q4 2 8 2 q8 0 12 -8 q3 -10 -1 -17 q-2 -4 -5 -6 l-36 -62 q-2 -7 -4 -11 q-2 -4 -2 -7 q0 -3 2 -1 q2 2 5 5.5 q3 3.5 5 8.5 q3 5 6 11 l30 48 q3 8 8 12 q4 4 10.5 5.5 q6.5 1.5 14.5 -3.5 ZM374 74 q1 1 1 2 q0 3 -2 5 q-4 2 -5 1 l-2 -2 l-8 -14 q-3 -3 -1 -5 q1 -1 2 -1 q2 -2 3 -1.5 q1 0.5 2 0.5 q1 0 1 1 l9 14 ZM347 32 q4 6 1 9 q-4 1 -8 -3 q-2 -2 -4 -5 l-28 -46 l-64 -103 q-5 -8 -6.5 -13 q-1.5 -5 -1.5 -7 q0 -3 1 -3 q2 -2 4 1 q2 3 4 6 q3 4 6 9 l92 149 l4 6 Z" /><glyph glyph-name="uni3001" unicode="&#x3001;" d="M383 -121 q-19 -16 -39 -13.5 q-20 2.5 -37 16.5 q-6 6 -22.5 22 q-16.5 16 -35 35.5 q-18.5 19.5 -35.5 38 q-17 18.5 -25 28.5 q-17 20 -20 41 q-3 21 11 36 q18 19 41 15 q23 -4 37 -20 q17 -19 49 -53 q32 -34 68 -72 q15 -17 18 -30.5 q3 -13.5 1 -23.5 q-3 -11 -11 -20 Z" /><glyph glyph-name="uni4E09" unicode="&#x4e09;" d="M840 384 q13 0 22 -9 q9 -9 9 -22 q0 -14 -9 -23 q-9 -9 -22 -9 l-675 0 q-12 1 -21 10 q-9 9 -9 22 q0 11 8.5 21 q8.5 10 21.5 10 l675 0 ZM931 3 q13 0 22 -8.5 q9 -8.5 9 -21.5 q0 -13 -9 -22 q-9 -9 -22 -9 l-863 0 q-12 0 -21 9 q-9 9 -9 22 q0 11 9 20.5 q9 9.5 21 9.5 l863 0 ZM891 747 q13 0 22 -9.5 q9 -9.5 9 -22.5 q0 -13 -9 -22 q-9 -9 -22 -9 l-793 0 q-12 0 -21 9 q-9 9 -9 22 q0 11 9 21.5 q9 10.5 21 10.5 l793 0 Z" /><glyph glyph-name="uni4E0D" unicode="&#x4e0d;&#xf967;" d="M943 796 q13 0 22 -9 q9 -9 9 -22 q0 -13 -9 -22 q-9 -9 -22 -9 l-348 0 l0 -161 q44 -26 90.5 -59.5 q46.5 -33.5 91 -70 q44.5 -36.5 85 -75 q40.5 -38.5 72.5 -74.5 q27 -30 34.5 -56.5 q7.5 -26.5 2.5 -43.5 q-5 -17 -20.5 -23 q-15.5 -6 -34.5 3 q-11 5 -21 17 q-10 12 -23.5 31 q-13.5 19 -33.5 45 q-20 26 -53 59 q-26 26 -54.5 51 q-28.5 25 -55.5 46 q-27 21 -48.5 36.5 q-21.5 15.5 -31.5 23.5 l0 -559 q-1 -13 -8 -20 q-4 -4 -7 -5 q-12 0 -16 5.5 q-4 5.5 -4 9.5 q0 -4 -2.5 -13.5 q-2.5 -9.5 -16.5 -10.5 q-8 -1 -12 4 q-4 5 -5 10 q-1 5 -1 9 q0 4 0 1 q-2 -6 -3.5 -15 q-1.5 -9 -16.5 -12 q-11 -2 -14.5 5.5 q-3.5 7.5 -3.5 13.5 q-1 -8 -5 -18.5 q-4 -10.5 -17 -9.5 q-9 1 -13 7 q-4 6 -6 13 q-2 8 -2 18 l0 4 q0 7 1 12 q1 44 0 79.5 q-1 35.5 0 46.5 q0 11 -3 20 q-3 9 -8 5 q1 -10 1 -21 q0 -9 0 -19 q0 -10 -1 -17 q-1 -7 -1.5 -22.5 q-0.5 -15.5 -1 -33 q-0.5 -17.5 0 -32 q0.5 -14.5 2.5 -20.5 q2 -5 2.5 -10.5 q0.5 -5.5 2.5 -8.5 q-5 -7 -16 -7 q-8 0 -11.5 4.5 q-3.5 4.5 -5.5 10.5 q-2 6 -2 15 l0 566 q-29 -44 -64.5 -90.5 q-35.5 -46.5 -70 -86 q-34.5 -39.5 -63 -68 q-28.5 -28.5 -43.5 -37.5 q-19 -17 -38.5 -28.5 q-19.5 -11.5 -37 -16 q-17.5 -4.5 -31.5 -1 q-14 3.5 -22 15.5 q-13 21 -4.5 42 q8.5 21 31.5 46 q23 25 59 55 q36 30 79 68 q30 27 61 60.5 q31 33.5 58 65.5 q27 32 49.5 61 q22.5 29 36.5 47 l0 113 l-342 0 q-12 0 -21 9 q-9 9 -9 22 q0 11 9 21 q9 10 21 10 l883 0 ZM564 471 q0 8 1 26.5 q1 18.5 2 37 q1 18.5 -0.5 32 q-1.5 13.5 -5.5 13.5 q-2 0 -4 -4 q-2 -4 -3 -13.5 q-1 -9.5 -1 -26.5 q0 -18 0.5 -37.5 q0.5 -19.5 1 -38.5 q0.5 -19 1.5 -34.5 q1 -15.5 1 -24.5 q0 -9 0 -23 q0 -14 -0.5 -28.5 q-0.5 -14.5 -1.5 -28.5 q-1 -14 -2 -24 q-2 -10 -1.5 -21.5 q0.5 -11.5 1.5 -21 q1 -9.5 3 -16.5 q2 -7 5 -8 q3 -1 2.5 11 q-0.5 12 -1.5 28.5 q-1 16.5 -2 33.5 q-1 17 1 26 q1 8 1.5 28.5 q0.5 20.5 1 43 q0.5 22.5 0.5 42.5 q0 20 0 28 ZM567 700 q0 11 -1 17.5 q-1 6.5 -2 8.5 q-2 3 -3 3 q-2 0 -4 -2 q-3 -3 -3 -14 q0 -6 0 -15.5 q0 -9.5 0 -19 q0 -9.5 1 -17 q1 -7.5 3 -8.5 q3 -3 6 10 q3 13 3 37 ZM56 194 q1 8 3 16.5 q2 8.5 2.5 16 q0.5 7.5 -0.5 12 q-1 4.5 -5 4.5 q-2 -1 -4 -4 q-2 -2 -3 -7 q-1 -5 -1 -14 q0 -19 2 -29 q2 -10 6 5 ZM75 201 q-3 -3 -5 -7 q-4 -8 -1 -18 q4 -11 9 -4 q5 7 2 17 l-5 12 ZM460 34 q0 2 0 6.5 q0 4.5 0 8 q0 3.5 -0.5 5 q-0.5 1.5 -1.5 -1.5 q-2 -7 -4 -14 q-2 -6 -2 -12 q0 -6 2 -11 q2 -4 3 -2.5 q1 1.5 1.5 5.5 q0.5 4 0.5 8.5 q0 4.5 1 7.5 Z" /><glyph glyph-name="uni4E1A" unicode="&#x4e1a;" d="M455 807 q9 2 12.5 -5.5 q3.5 -7.5 5.5 -17.5 q1 -11 0 -26 l0 -812 l176 0 l0 829 q0 14 9 23 q9 9 22 9 q13 0 22 -9 q9 -9 9 -23 l0 -829 l232 0 q13 0 22 -9 q9 -9 9 -22 q0 -14 -9 -23 q-9 -9 -22 -9 l-883 0 q-12 1 -21 10 q-9 9 -9 22 q0 11 9 21 q9 10 21 10 l222 0 l0 822 q0 8 3 15 q2 6 7 10.5 q5 4.5 16 6.5 q10 1 15.5 -4 q5.5 -5 8.5 -11 q4 -7 5 -17 q0 5 2 9 q4 9 15 9 q6 -1 9.5 -4.5 q3.5 -3.5 4.5 -7.5 q0 5 0 12 q0 7 2 13 q2 6 6.5 11 q4.5 5 12.5 5 q10 1 15 -6 q5 -7 7 -16 q3 -11 2 -25 l0 -125 q1 -3 2 -5 q2 -5 6 1 q2 3 3 19 q1 16 1 33 l0 46 q-2 9 -1 16 q1 6 3.5 11 q2.5 5 10.5 4 q-2 10 -1 18 q1 7 4.5 13 q3.5 6 13.5 8 ZM32 518 q-6 21 0 34 q6 13 17.5 16 q11.5 3 24 -3.5 q12.5 -6.5 18.5 -22.5 q2 -7 10.5 -33.5 q8.5 -26.5 20.5 -64.5 q12 -38 26.5 -82.5 q14.5 -44.5 28.5 -87.5 q14 -43 26.5 -80 q12.5 -37 20.5 -59 q10 -28 13.5 -47 q3.5 -19 1.5 -30.5 q-2 -11.5 -8.5 -17 q-6.5 -5.5 -15.5 -6.5 q-18 -4 -34.5 9.5 q-16.5 13.5 -33.5 64.5 q-6 19 -16 53.5 q-10 34.5 -22 76 q-12 41.5 -24 85.5 q-12 44 -23 83.5 q-11 39.5 -19.5 69 q-8.5 29.5 -11.5 42.5 ZM909 542 q6 16 18.5 22.5 q12.5 6.5 23.5 3.5 q11 -3 17 -16 q6 -13 0 -34 q-4 -13 -12 -42.5 q-8 -29.5 -18.5 -69 q-10.5 -39.5 -22.5 -83.5 q-12 -44 -23.5 -85.5 q-11.5 -41.5 -22 -76 q-10.5 -34.5 -16.5 -53.5 q-8 -26 -16 -41 q-8 -15 -16.5 -23 q-8.5 -8 -16.5 -10 q-8 -2 -17 0 q-9 1 -15.5 6.5 q-6.5 5.5 -8.5 17 q-2 11.5 1 30.5 q3 19 13 47 q8 22 20.5 59 q12.5 37 26 80 q13.5 43 28 87.5 q14.5 44.5 26.5 82.5 q12 38 20.5 64.5 q8.5 26.5 10.5 33.5 ZM304 256 q-3 0 -4 -4.5 q-1 -4.5 -1 -10.5 l0 -16 l0 -257 q-1 -5 -1 -9 q0 -4 0.5 -7.5 q0.5 -3.5 2.5 -5.5 l7 0 q4 4 4 10 l0 8 l0 258 q0 14 -1 21 q-1 7 -3 10 q-2 4 -4 3 ZM335 -21 q-4 0 -7 -3 q-1 -1 0 -2 l0 -22 l0 -2 q0 -2 2 -4 l10 0 q3 3 3 3 l0 2 l0 22 q0 4 -4 6 q-2 1 -4 0 ZM419 614 q-7 -1 -6 -14 q1 -13 0 -21 q-1 -8 3.5 -0.5 q4.5 7.5 6.5 16.5 q1 7 -1 14 q-1 3 -3 5 Z" /><glyph glyph-name="uni4E3B" unicode="&#x4e3b;" d="M939 -48 q13 0 22 -9 q9 -9 9 -23 q0 -13 -9 -22 q-9 -9 -22 -9 l-883 0 q-12 1 -21 9.5 q-9 8.5 -9 21.5 q0 11 9 21.5 q9 10.5 21 10.5 l343 0 l0 285 l-269 0 q-12 0 -21 9 q-9 9 -9 22 q0 11 9 21.5 q9 10.5 21 10.5 l269 0 l0 251 l-325 0 q-13 1 -21.5 10 q-8.5 9 -8.5 22 q0 11 8.5 21 q8.5 10 21.5 10 l844 0 q13 0 22 -9 q9 -9 9 -22 q0 -14 -9 -23 q-9 -9 -22 -9 l-328 0 l0 -251 l271 0 q13 0 22 -9.5 q9 -9.5 9 -22.5 q0 -13 -9 -22 q-9 -9 -22 -9 l-271 0 l0 -285 l349 0 ZM494 822 q38 0 64.5 -26 q26.5 -26 26.5 -64 q0 -37 -26.5 -63.5 q-26.5 -26.5 -64.5 -26.5 q-37 0 -63.5 26.5 q-26.5 26.5 -26.5 63.5 q0 38 26.5 64 q26.5 26 63.5 26 ZM570 -35 q5 -2 6.5 5.5 q1.5 7.5 1.5 19 q0 11.5 -0.5 24 q-0.5 12.5 -0.5 20.5 q0 8 0 22.5 q0 14.5 0 31 q0 16.5 0 32.5 q0 16 0 27 q-1 12 -1 26 q0 14 0 28 q0 14 -0.5 26.5 q-0.5 12.5 -1.5 21.5 q-1 9 -1.5 25 q-0.5 16 -0.5 30 q0 14 -0.5 22.5 q-0.5 8.5 -1.5 3.5 q-2 -5 -3 -20.5 q-1 -15.5 -1 -34.5 q0 -19 -0.5 -36.5 q-0.5 -17.5 -0.5 -24.5 q0 -7 0 -20.5 q0 -13.5 0 -29.5 q0 -16 0 -31.5 q0 -15.5 0 -25.5 q-1 -20 -3 -51.5 q-2 -31.5 -2 -60.5 q0 -15 1.5 -21.5 q1.5 -6.5 3.5 -8.5 q2 -3 5 0 ZM431 532 q-2 -1 -2.5 -6.5 q-0.5 -5.5 -0.5 -12.5 l0 -18 l0 -135 q0 -26 0 -50 q0 -24 0.5 -43 q0.5 -19 1 -30.5 q0.5 -11.5 1.5 -11.5 q1 0 1.5 3.5 q0.5 3.5 0.5 8.5 l0 11 l0 241 q0 19 -0.5 27.5 q-0.5 8.5 -0.5 12.5 q-1 4 -1 3 ZM443 757 q-1 -4 0 -7 q0 -6 5 -8 q2 -1 4.5 1.5 q2.5 2.5 5 6 q2.5 3.5 4.5 7 q2 3.5 4 5.5 q4 3 12 7.5 q8 4.5 0 8.5 q-4 2 -10 0 q-6 -2 -11.5 -5.5 q-5.5 -3.5 -9.5 -8 q-4 -4.5 -4 -7.5 ZM438 165 q0 7 0.5 19.5 q0.5 12.5 0.5 25 q0 12.5 -0.5 20.5 q-0.5 8 -1.5 6 q-1 -4 -1 -9 q-1 -5 -1 -13 q0 -8 0 -20 q0 -26 1 -34 q1 -8 2 5 ZM572 346 q2 2 0 15.5 q-2 13.5 -3 21.5 q-1 4 -1.5 1.5 q-0.5 -2.5 -1 -7.5 q-0.5 -5 -0.5 -12 q0 -7 0 -13 q0 -6 0.5 -7.5 q0.5 -1.5 2.5 -1.5 q1 0 3 3 ZM501 784 q-4 -1 -1.5 -5 q2.5 -4 9.5 -4 q7 0 9 3.5 q2 3.5 -1 5.5 q-2 1 -5 1 q-3 0 -5 0 q-4 0 -6 -1 Z" /><glyph glyph-name="uni4EE3" unicode="&#x4ee3;" d="M910 -80 q-27 -23 -74.5 -34 q-47.5 -11 -102 -4 q-54.5 7 -108.5 34.5 q-54 27.5 -94 83.5 q-26 35 -42.5 79.5 q-16.5 44.5 -26.5 98.5 q-10 54 -14.5 118.5 q-4.5 64.5 -6.5 140.5 l-123 -8 q-10 -1 -20.5 7.5 q-10.5 8.5 -11.5 21.5 q-1 13 7 22.5 q8 9.5 21 11.5 l127 8 l-2 251 q0 19 4 26 q4 7 9 8 q5 1 13 -5 q1 7 4 12 q5 11 16 12 q11 0 16 -9 q5 -9 6 -14 l0 8 q1 6 4 10 q5 9 16 8 q6 -2 9 -5 q3 -3 5 -6 q2 -4 1 -8 q-1 -20 -1 -37 q0 -14 -0.5 -26 q-0.5 -12 -0.5 -14 q0 -2 -0.5 -15.5 q-0.5 -13.5 -1 -30.5 q-0.5 -17 -0.5 -33 q0 -16 1 -22 q1 -11 4 -9 q3 2 2 5 q-1 2 -0.5 17.5 q0.5 15.5 1.5 33.5 q1 21 1 48 q0 18 1 32 q0 12 0.5 21.5 q0.5 9.5 0.5 10.5 q0 1 1 9 q1 8 12 8 q9 0 11 -7 q2 -7 2 -10 q0 3 2 8 q2 5 7 7 q6 1 9 -3.5 q3 -4.5 4 -7.5 q0 0 1.5 3.5 q1.5 3.5 4.5 6.5 q3 3 6.5 3.5 q3.5 0.5 7.5 -4.5 q2 -3 2 -13.5 q0 -10.5 -0.5 -24.5 q-0.5 -14 -2 -29 q-1.5 -15 -2.5 -27 q0 -4 -1 -19 q-1 -15 -2 -38.5 q-1 -23.5 -1.5 -54 q-0.5 -30.5 -0.5 -65.5 l289 20 q13 1 22.5 -7.5 q9.5 -8.5 10.5 -22.5 q1 -13 -7.5 -22.5 q-8.5 -9.5 -21.5 -10.5 l-292 -20 q1 -45 3.5 -92.5 q2.5 -47.5 7 -93 q4.5 -45.5 12.5 -86.5 q8 -41 19 -74 q9 -27 22 -54.5 q13 -27.5 31 -49.5 q18 -22 42 -35 q24 -13 54 -11 q34 2 51.5 17.5 q17.5 15.5 25.5 35 q8 19.5 11.5 38.5 q3.5 19 9.5 28 q14 21 32 21 q18 0 29 -14 q5 -8 8 -25 q3 -17 -1 -39.5 q-4 -22.5 -17 -47 q-13 -24.5 -40 -46.5 ZM327 810 q18 -3 19.5 -24 q1.5 -21 -9.5 -56 q-11 -35 -33 -83.5 q-22 -48.5 -50 -107.5 l0 -629 q0 -14 -9 -22.5 q-9 -8.5 -22 -8.5 q-9 0 -20 7 q-11 7 -11 24 l0 513 q-25 -38 -46 -58 q-21 -20 -38.5 -28.5 q-17.5 -8.5 -30 -8 q-12.5 0.5 -19.5 5.5 q-17 12 -18.5 32.5 q-1.5 20.5 9.5 37.5 q6 9 18 22 q12 13 27 29 q15 16 31.5 35 q16.5 19 31.5 39 q15 20 31 48 q16 28 32 58.5 q16 30.5 29.5 61.5 q13.5 31 23.5 57 q10 26 19.5 38 q9.5 12 17.5 16 q9 4 17 2 ZM802 779 q38 0 64.5 -26.5 q26.5 -26.5 26.5 -64.5 q0 -19 -7 -35.5 q-7 -16.5 -19.5 -29 q-12.5 -12.5 -29 -19.5 q-16.5 -7 -35.5 -7 q-19 0 -35.5 7 q-16.5 7 -29 19.5 q-12.5 12.5 -19.5 29 q-7 16.5 -7 35.5 q0 38 26.5 64.5 q26.5 26.5 64.5 26.5 ZM480 299 q-2 2 -6.5 -4.5 q-4.5 -6.5 -3.5 -25.5 q0 -9 1 -21.5 q1 -12.5 3 -26.5 q2 -14 4.5 -28 q2.5 -14 5.5 -26 q7 -23 10.5 -30.5 q3.5 -7.5 7.5 2.5 q3 9 -1 18.5 q-4 9.5 -6 17.5 q-2 7 -8 31.5 q-6 24.5 -4 48.5 q2 15 1.5 23.5 q-0.5 8.5 -1.5 13.5 q-1 5 -3 7 ZM737 712 q-1 -3 0 -6 q1 -2 2 -5 q1 -3 4 -4 q2 -1 4.5 1.5 q2.5 2.5 4.5 6 q2 3.5 4 7 q2 3.5 4 5.5 q4 3 12 8 q8 5 1 9 q-4 2 -10 -0.5 q-6 -2.5 -12 -6 q-6 -3.5 -10 -8 q-4 -4.5 -4 -7.5 ZM919 62 q1 5 -4.5 3.5 q-5.5 -1.5 -7.5 -9.5 q-2 -7 1 -10.5 q3 -3.5 6 -0.5 q1 2 2 4.5 q1 2.5 2 5.5 q1 4 1 7 ZM510 116 q-4 6 -8.5 5 q-4.5 -1 -2.5 -6 q1 -4 3 -7 q3 -7 6 -8 q2 -2 4 3.5 q2 5.5 -2 12.5 ZM796 739 q-5 0 -2 -4 q3 -4 10 -4 q6 0 8.5 3 q2.5 3 -1.5 5 q-2 1 -9 1 q-3 0 -6 -1 Z" /><glyph glyph-name="uni4F5C" unicode="&#x4f5c;" d="M453 750 q4 10 8.5 20 q4.5 10 10.5 17.5 q6 7.5 12.5 12 q6.5 4.5 15.5 2.5 q19 -5 22.5 -25 q3.5 -20 -7.5 -59 q-3 -10 -6 -18.5 q-3 -8.5 -5 -17.5 l407 0 q13 0 22 -9 q9 -9 9 -22 q0 -13 -9 -22.5 q-9 -9.5 -22 -9.5 l-265 0 l0 -174 l251 0 q13 0 22 -9 q9 -9 9 -23 q0 -13 -9 -22 q-9 -9 -22 -9 l-251 0 l0 -186 l260 0 q14 0 23 -9 q9 -9 9 -22 q0 -14 -9 -23 q-9 -9 -23 -9 l-260 0 l0 -157 q0 -12 0.5 -29.5 q0.5 -17.5 -0.5 -32.5 q-1 -15 -3 -25 q-2 -10 -6 -7 q-8 5 -8 21.5 q0 16.5 0 23.5 q0 -4 -1.5 -10 q-1.5 -6 -3 -11.5 q-1.5 -5.5 -4.5 -8.5 q-3 -3 -6 -1 q-8 4 -6.5 15.5 q1.5 11.5 -0.5 16.5 q-1 2 -1.5 -6 q-0.5 -8 -2 -19 q-1.5 -11 -5 -20 q-3.5 -9 -10.5 -8 q-7 1 -9.5 4.5 q-2.5 3.5 -3.5 8.5 q-1 5 -1 10.5 q0 5.5 -1 9.5 q-1 4 -2 -0.5 q-1 -4.5 -2.5 -11.5 q-1.5 -7 -5 -12.5 q-3.5 -5.5 -9.5 -3.5 q-6 2 -9 9.5 q-3 7.5 -4 13.5 q-1 6 -1 8 q0 2 0 -6 q-2 -32 -10 -32 q-6 -1 -10.5 2 q-4.5 3 -5.5 14 q0 5 -0.5 15.5 q-0.5 10.5 -0.5 21.5 q0 11 -0.5 21.5 q-0.5 10.5 -1.5 16.5 q-1 6 -2 0 q-1 -6 -1.5 -16.5 q-0.5 -10.5 -0.5 -23 q0 -12.5 0 -19.5 q0 -14 -5 -25.5 q-5 -11.5 -13 -4.5 q-5 3 -6.5 10.5 q-1.5 7.5 -1.5 14.5 q-1 -5 -4 -9.5 q-3 -4.5 -8 -3.5 q-5 0 -7.5 3.5 q-2.5 3.5 -4.5 8.5 q-2 5 -2 12 l0 634 q-16 -39 -34.5 -77 q-18.5 -38 -41.5 -77 q-12 -21 -24.5 -33 q-12.5 -12 -24.5 -16.5 q-12 -4.5 -23 -2.5 q-11 2 -19 8 q-15 12 -16 37.5 q-1 25.5 28 67.5 q31 43 58.5 95 q27.5 52 48.5 97 q25 53 46 106 ZM256 758 q4 9 9 18.5 q5 9.5 11 17 q6 7.5 12.5 11.5 q6.5 4 15.5 2 q38 -6 13 -79 q-15 -45 -36 -97 q-21 -52 -45 -105 l0 -616 q0 -14 -9 -22.5 q-9 -8.5 -22 -8.5 q-9 0 -20 7 q-11 7 -11 24 l0 491 q-19 -35 -35 -61 q-25 -40 -50 -47 q-25 -7 -41 5 q-15 11 -16 35 q-1 24 29 64 q15 20 32 46.5 q17 26.5 33.5 55.5 q16.5 29 33 59.5 q16.5 30.5 30.5 59.5 q33 68 66 140 ZM626 281 q0 10 -1 19 q-1 8 -1.5 13.5 q-0.5 5.5 -2.5 6.5 q-1 1 -2 -3 q-1 -4 -1.5 -14 q-0.5 -10 -0.5 -30 l0 -120 q0 -38 1 -78 l0 -53 q0 -7 1 -12 q1 -5 1.5 -8.5 q0.5 -3.5 2.5 -3.5 q1 0 1.5 12 q0.5 12 1 31.5 q0.5 19.5 0.5 45 q0 25.5 0 52.5 l0 142 ZM490 515 q-2 3 -3 -4.5 q-1 -7.5 -1 -11.5 q1 -5 1 -18 q0 -13 0 -19 q-1 -7 0 -17 q1 -10 3 -6 q2 4 2.5 12.5 q0.5 8.5 -0.5 14.5 q-1 6 1 12.5 q2 6.5 1 19.5 q0 11 -2 15 q-1 2 -2 2 ZM625 -19 q-1 0 -3 1 l-2 0 q-2 0 -2 -3 l0 -9 q-1 -1 0 -2 q0 -1 4 -1 q2 0 3 1 q0 1 1 2 l0 10 l-1 1 Z" /><glyph glyph-name="uni4F7F" unicode="&#x4f7f;" d="M573 802 q5 3 9.5 0.5 q4.5 -2.5 8.5 -7 q4 -4.5 6.5 -9.5 q2.5 -5 3.5 -6 q0 1 4 10.5 q4 9.5 14 8.5 q11 -1 12.5 -10 q1.5 -9 1.5 -10 q0 -1 0.5 -8.5 q0.5 -7.5 0.5 -17 q0 -9.5 0.5 -18 q0.5 -8.5 0.5 -10.5 l1 0 q1 2 2 5.5 q1 3.5 1 5.5 l0 33 q0 13 -1 30 q0 4 2 8 q2 3 4.5 5.5 q2.5 2.5 9.5 3.5 q10 1 14 -9 q2 -4 3 -10 l0 -7 q1 6 6.5 14 q5.5 8 15.5 6 q5 -1 8.5 -4.5 q3.5 -3.5 5.5 -8.5 q2 -5 3 -12 q7 7 11 6 q4 -1 7 -8.5 q3 -7.5 4 -28.5 q0 -8 0.5 -15 q0.5 -7 0.5 -14 l195 0 q13 0 22 -9 q9 -9 9 -22 q0 -13 -9 -22 q-9 -9 -22 -9 l-193 0 q1 -20 1 -39.5 q0 -19.5 0 -38.5 q54 -8 96.5 -28 q42.5 -20 65.5 -54 q23 -34 27.5 -77 q4.5 -43 1.5 -82 q-4 -46 -16 -93 l-212 0 q-14 -48 -33 -90 q-19 -42 -44 -81 q2 -2 4 -2 q57 -28 107.5 -45.5 q50.5 -17.5 91 -28 q40.5 -10.5 69.5 -15.5 q29 -5 43 -8 q18 -3 27.5 -14.5 q9.5 -11.5 10 -25 q0.5 -13.5 -9.5 -25.5 q-10 -12 -32 -16 q-20 -4 -48.5 0.5 q-28.5 4.5 -55.5 11.5 q-32 8 -65 18 q-54 22 -100 43.5 q-46 21.5 -88 43.5 q-35 -40 -73.5 -67.5 q-38.5 -27.5 -72 -44 q-33.5 -16.5 -56.5 -22.5 q-23 -6 -25 -4 q-11 10 -6 18.5 q5 8.5 7 10.5 q-2 -1 -8 -2.5 q-6 -1.5 -13 -2.5 q-7 -1 -12.5 -0.5 q-5.5 0.5 -6.5 4.5 q-1 6 3 16 q2 4 4 8 q-15 -6 -24 -2 q-9 4 -7 18 q1 7 6.5 11 q5.5 4 15.5 9 q10 5 25 11.5 q15 6.5 35 18.5 q40 22 57.5 35.5 q17.5 13.5 23.5 24.5 q3 5 -2.5 1 q-5.5 -4 -16 -12 q-10.5 -8 -25 -18 q-14.5 -10 -29.5 -17 q-15 -7 -30.5 -15 q-15.5 -8 -29.5 -13.5 q-14 -5.5 -25 -7 q-11 -1.5 -15 3.5 q-9 10 -5 17 q1 4 5 6 q-3 0 -5 1 q-5 2 -5 13 q-1 7 2.5 12 q3.5 5 8.5 8 q5 4 12 6 q72 35 122 77 l-46 34 q-20 15 -25.5 28 q-5.5 13 -3.5 22 q2 11 11 19 q8 7 17.5 5.5 q9.5 -1.5 17.5 -5.5 q10 -5 19 -13 q7 -5 17 -11 q8 -5 19 -12 q11 -7 25 -15 q29 35 51 80 l-206 0 l0 239 q3 11 17 22 q12 10 35.5 22.5 q23.5 12.5 66.5 26.5 q30 10 64.5 17 q34.5 7 70.5 11 l2 74 l-236 0 q-13 0 -21.5 9 q-8.5 9 -8.5 22 q0 11 8.5 21 q8.5 10 21.5 10 l236 0 l0 4 q0 24 -0.5 45 q-0.5 21 10.5 28 ZM220 756 q7 19 16.5 37 q9.5 18 26.5 16 q39 -4 20 -78 q-22 -88 -57 -188 l0 -633 q0 -14 -9 -22.5 q-9 -8.5 -22 -8.5 q-9 0 -20 7 q-11 7 -11 24 l0 489 q-8 -15 -15.5 -29 q-7.5 -14 -15.5 -27 q-25 -40 -49.5 -48 q-24.5 -8 -40.5 4 q-15 11 -16 35 q-1 24 29 64 q15 20 30.5 46.5 q15.5 26.5 30 55.5 q14.5 29 27.5 59 q13 30 25 59 q27 67 51 138 ZM849 311 q7 32 7.5 66 q0.5 34 -11 64 q-11.5 30 -37.5 53 q-26 23 -72 33 q-2 -63 -7.5 -116 q-5.5 -53 -14.5 -100 l135 0 ZM474 311 l63 0 q9 31 14.5 89.5 q5.5 58.5 7.5 122.5 q-29 -6 -51 -14 q-22 -8 -34 -15 l0 -183 ZM672 288 q5 17 3 25 q-2 8 -4 6 q-2 -2 -5 -6 q-2 -4 -4.5 -12 q-2.5 -8 -4.5 -23 q-3 -25 -14 -47 q-11 -22 -15 -28 q-4 -6 -9.5 -14.5 q-5.5 -8.5 -4.5 -18.5 q1 -10 5.5 -4 q4.5 6 16.5 27 q11 21 21 49.5 q10 28.5 15 45.5 ZM456 432 q1 10 -2 18 q-3 8 -7 4 q1 -10 1 -19 q0 -8 0 -16 q0 -8 -1 -14 q0 -6 -1 -20 q-1 -14 -1 -29 q0 -15 0 -28.5 q0 -13.5 2 -18.5 q1 -5 2.5 -10.5 q1.5 -5.5 3 -7 q1.5 -1.5 2.5 5 q1 6.5 1 25.5 q2 38 0.5 69.5 q-1.5 31.5 -0.5 40.5 ZM891 438 q2 -1 1.5 9 q-0.5 10 -2.5 21 q-2 12 -13.5 31 q-11.5 19 -25.5 29 q-15 11 -21.5 14.5 q-6.5 3.5 -14.5 3.5 q-4 0 -1 -3 q3 -3 8.5 -7 q5.5 -4 12 -8 q6.5 -4 9.5 -7 q8 -5 18 -17.5 q10 -12.5 16 -26.5 q4 -9 6 -16.5 q2 -7.5 4 -12.5 q2 -6 3 -10 ZM342 428 q1 5 -1.5 9.5 q-2.5 4.5 -6.5 2.5 q1 -5 1 -10 q0 -5 0 -9.5 q0 -4.5 -1 -8.5 q0 -3 -0.5 -11 q-0.5 -8 -1 -16 q-0.5 -8 0 -15 q0.5 -7 1.5 -10 q1 -3 2.5 -6 q1.5 -3 2.5 -3.5 q1 -0.5 2 2.5 q1 3 1 14 q1 21 0 38.5 q-1 17.5 0 22.5 ZM610 147 q3 4 -0.5 6 q-3.5 2 -8.5 -3 q-5 -5 -4.5 -11 q0.5 -6 3.5 -5 q1 0 2.5 2.5 q1.5 2.5 3.5 4.5 l4 6 ZM340 329 q0 3 -3 2 q-3 -1 -4 -6 q-1 -5 1 -7 q2 -2 4 0 q2 2 2 7 l0 4 Z" /><glyph glyph-name="uni5148" unicode="&#x5148;" d="M936 379 q13 0 22 -9 q9 -9 9 -23 q0 -13 -9 -22 q-9 -9 -22 -9 l-259 0 l0 -176 q0 -23 4.5 -51.5 q4.5 -28.5 16.5 -53 q12 -24.5 34 -41.5 q22 -17 57 -16 q34 0 48.5 16 q14.5 16 20.5 37 q6 21 8.5 42 q2.5 21 12.5 32 q10 11 21.5 15.5 q11.5 4.5 22 3 q10.5 -1.5 18.5 -8 q8 -6.5 11 -18.5 q6 -18 3.5 -49.5 q-2.5 -31.5 -15.5 -63 q-13 -31.5 -37 -57.5 q-24 -26 -61 -34 q-51 -11 -93 1 q-42 12 -72 43 q-30 31 -46.5 80.5 q-16.5 49.5 -16.5 113.5 l0 185 l-152 0 l0 -81 q-2 -51 -13 -101 q-11 -43 -33 -90.5 q-22 -47.5 -65 -84.5 q-32 -29 -59 -44.5 q-27 -15.5 -47 -22.5 q-20 -7 -33.5 -7 q-13.5 0 -19.5 3 q-12 7 -10.5 14 q1.5 7 2.5 9 q-1 -1 -9 -3.5 q-8 -2.5 -17 -0.5 q-9 2 -5.5 8 q3.5 6 4.5 8 l-18 -10 q-6 -3 -10 -2.5 q-4 0.5 -3 4 q1 3.5 7.5 10 q6.5 6.5 21.5 15.5 q15 9 31 20 q16 11 27 18.5 q11 7.5 13.5 10.5 q2.5 3 -9.5 -3 q-11 -7 -29.5 -18.5 q-18.5 -11.5 -37.5 -21.5 q-19 -10 -34 -16 q-15 -6 -20 -2 q-5 4 -0.5 9.5 q4.5 5.5 10.5 10.5 q6 5 9.5 7 q3.5 2 -3.5 -1 q-14 -7 -25 -7.5 q-11 -0.5 -14 7.5 q-2 3 1 7 q3 4 7 7.5 q4 3.5 8.5 6.5 q4.5 3 7.5 4 q-11 -3 -17.5 0 q-6.5 3 -9 8.5 q-2.5 5.5 -0.5 11.5 q2 6 9 9 q6 3 16.5 7 q10.5 4 21.5 9 q12 4 25 10 q50 25 76 58 q26 33 38 62 q14 34 15 69 l0 93 l-188 0 q-12 1 -21 10 q-9 9 -9 21 q0 11 9 21.5 q9 10.5 21 10.5 l341 0 l0 197 l-168 0 q-5 -11 -12.5 -26 q-7.5 -15 -18.5 -35 q-16 -30 -32 -48 q-16 -18 -30 -26.5 q-14 -8.5 -26.5 -9 q-12.5 -0.5 -20.5 4.5 q-19 12 -20.5 29.5 q-1.5 17.5 6.5 38.5 q8 21 22.5 42.5 q14.5 21.5 27.5 40.5 q26 39 43 70.5 q17 31.5 27 54.5 q11 26 16 47 q4 9 8.5 19 q4.5 10 10.5 17 q6 7 13.5 10.5 q7.5 3.5 17.5 0.5 q16 -5 21.5 -28 q5.5 -23 -5.5 -61 l-23 -78 l143 0 l0 137 q0 10 4.5 21 q4.5 11 15.5 12 q7 1 11 -7 q4 -8 5 -19 q1 -8 1.5 -19 q0.5 -11 0.5 -22 q0 -11 -0.5 -21.5 q-0.5 -10.5 -0.5 -17.5 q0 -5 4 -5.5 q4 -0.5 6 10.5 q2 5 2 15.5 q0 10.5 0 21.5 q-1 7 -1 13.5 q0 6.5 0 12.5 q0 6 -1 13 q0 21 20 21 q6 -1 9 -7.5 q3 -6.5 4 -11.5 q-1 7 1.5 20 q2.5 13 16.5 14 q10 1 13 -9 q3 -10 3 -12 q0 2 3.5 7 q3.5 5 11.5 5 q14 1 15.5 -8.5 q1.5 -9.5 0.5 -12.5 q1 1 3 3 q2 2 6 2 q4 0 6.5 -4 q2.5 -4 2.5 -9 l0 -68 q0 -1 1.5 -2.5 q1.5 -1.5 3 0 q1.5 1.5 3 8 q1.5 6.5 2.5 21.5 q2 29 3.5 41.5 q1.5 12.5 5.5 13.5 q7 1 8 -3.5 q1 -4.5 1 -12.5 l0 -141 l253 0 q13 0 22 -9 q9 -9 9 -23 q0 -13 -9 -22 q-9 -9 -22 -9 l-253 0 l0 -197 l321 0 ZM439 277 q0 18 -4.5 24.5 q-4.5 6.5 -6.5 4.5 q-2 -2 -3 -7 q-1 -5 -1 -13 q0 -8 2 -23 q4 -25 -1.5 -49.5 q-5.5 -24.5 -7.5 -32.5 q-2 -7 -5 -16.5 q-3 -9.5 0 -19.5 q4 -9 7.5 -1.5 q3.5 7.5 9.5 30.5 q6 24 8 54.5 q2 30.5 2 48.5 ZM597 505 q1 8 -1.5 15 q-2.5 7 -6.5 4 q1 -8 1 -16 l0 -27 q0 -6 -0.5 -18 q-0.5 -12 -0.5 -25 q0 -13 0.5 -24.5 q0.5 -11.5 1.5 -15.5 q1 -5 2.5 -10 q1.5 -5 3 -6 q1.5 -1 2 4.5 q0.5 5.5 0.5 22.5 q1 33 -0.5 60.5 q-1.5 27.5 -1.5 35.5 ZM933 99 q-1 0 -3 -1 q-4 -2 -3 -4 q0 -2 0 -7 q0 -5 1 -9.5 q1 -4.5 2.5 -6.5 q1.5 -2 5.5 2 q4 4 4 8.5 q0 4.5 -2 8.5 q-2 4 -5 9 ZM416 122 q2 5 -3 5.5 q-5 0.5 -8 -5.5 q-3 -7 -1.5 -12.5 q1.5 -5.5 4.5 -3.5 q1 1 5 9 q2 4 3 7 ZM115 483 q1 4 0.5 11 q-0.5 7 -1.5 3 q-2 -6 -3 -11 q-1 -5 -1.5 -9.5 q-0.5 -4.5 1.5 -7.5 q2 -3 2.5 -2 q0.5 1 1 4 q0.5 3 0.5 6.5 q0 3.5 0 5.5 Z" /><glyph glyph-name="uni5177" unicode="&#x5177;" d="M934 173 q13 0 22 -9 q9 -9 9 -23 q0 -13 -9 -22 q-9 -9 -22 -9 l-872 0 q-12 1 -21 9.5 q-9 8.5 -9 21.5 q0 11 9 21.5 q9 10.5 21 10.5 l84 0 l0 439 q7 45 28.5 77 q21.5 32 52 54 q30.5 22 68.5 35.5 q38 13.5 77.5 20.5 q39.5 7 79 9.5 q39.5 2.5 73.5 2.5 q55 0 107.5 -8.5 q52.5 -8.5 95 -29 q42.5 -20.5 70.5 -54.5 q28 -34 34 -85 q4 -35 5.5 -94 q1.5 -59 2 -124.5 q0.5 -65.5 0 -130.5 q-0.5 -65 -1.5 -112 l96 0 ZM765 426 l-427 0 l0 -98 l427 0 l0 98 ZM763 173 q0 17 0.5 40.5 q0.5 23.5 0.5 51.5 l-426 0 l0 -92 l425 0 ZM763 580 l-425 0 l0 -91 l427 0 l-2 91 ZM525 736 q-50 -3 -84 -14.5 q-34 -11.5 -55 -26 q-21 -14.5 -31.5 -29 q-10.5 -14.5 -14.5 -23.5 l413 0 q-8 21 -25.5 39 q-17.5 18 -45.5 31 q-28 13 -67 19.5 q-39 6.5 -90 3.5 ZM291 65 q18 13 39 18 q21 5 32 -8 q9 -11 7.5 -21 q-1.5 -10 -9 -20 q-7.5 -10 -20 -19.5 q-12.5 -9.5 -25.5 -18.5 q-51 -35 -90 -57 q-39 -22 -76 -40 q-43 -21 -77.5 -20 q-34.5 1 -42.5 22 q-3 7 -3 16.5 q0 9.5 6 19.5 q6 10 19.5 19.5 q13.5 9.5 38.5 18.5 q51 17 88.5 33 q37.5 16 62.5 29 q29 15 50 28 ZM684 15 q-33 17 -40.5 30.5 q-7.5 13.5 -2.5 26.5 q5 14 25 16.5 q20 2.5 55 -11.5 q69 -25 115.5 -46 q46.5 -21 83.5 -41 q38 -22 48.5 -48.5 q10.5 -26.5 1.5 -40.5 q-4 -6 -11.5 -10.5 q-7.5 -4.5 -19.5 -5.5 q-12 -1 -27 3.5 q-15 4.5 -34 17.5 q-38 27 -73 47.5 q-35 20.5 -62 34.5 q-32 16 -59 27 ZM179 587 q1 11 -2 20.5 q-3 9.5 -8 4.5 l0 -21 l0 -35 q-1 -7 -1.5 -23 q-0.5 -16 -1 -33 q-0.5 -17 0 -32.5 q0.5 -15.5 2.5 -21.5 q1 -6 3 -12.5 q2 -6.5 3.5 -8 q1.5 -1.5 2.5 6 q1 7.5 1 29.5 q2 44 0.5 79.5 q-1.5 35.5 -0.5 46.5 ZM311 261 q0 3 1 9 q1 6 1.5 12 q0.5 6 -0.5 10.5 q-1 4.5 -5 4.5 q-2 0 -4 -2 q-3 -3 -3 -13 q0 -11 1.5 -25 q1.5 -14 2.5 -20 q0 -7 -1 -17.5 q-1 -10.5 -3 -17.5 q-2 -7 0 -14.5 q2 -7.5 7 -8.5 q2 0 2 4 q0 4 -1 9.5 q-1 5.5 -1.5 11 q-0.5 5.5 0.5 8.5 q1 3 1.5 10 q0.5 7 1 14.5 q0.5 7.5 0.5 14.5 q0 7 0 10 ZM315 338 q0 5 -1 8 q-1 3 -2 5 q-2 2 -3 1 q-2 0 -4 -1 q-3 -2 -3 -7 q0 -6 0 -16.5 q0 -10.5 3 -11.5 q4 -2 7 4.5 q3 6.5 3 17.5 Z" /><glyph glyph-name="uni51B3" unicode="&#x51b3;" d="M282 593 q-2 11 4.5 19 q6.5 8 14.5 13 q10 5 23 9 q22 6 48 11 q23 5 53.5 10 q30.5 5 67.5 10 q-3 40 -3 72 q0 24 4 40.5 q4 16.5 15 23.5 q10 6 16 -2 q3 -4 4 -9 q0 2 3.5 7 q3.5 5 9.5 3 q5 -2 6.5 -7 q1.5 -5 1.5 -8 q0 4 3 10.5 q3 6.5 11 5.5 q11 -1 13 -10 q2 -9 2 -10 q0 -1 0 -9.5 q0 -8.5 1 -19.5 q0 -12 1 -27 l0 -19 q1 -5 2 -9 q2 -8 2 -4 q-2 24 -2 44 q0 20 0 34 q0 17 1 30 q0 4 2 8 q2 3 4.5 5.5 q2.5 2.5 9.5 3.5 q12 1 16 -9 q2 -4 2 -10 l0 -8 q2 6 7.5 14.5 q5.5 8.5 16.5 6.5 q5 -1 8.5 -4.5 q3.5 -3.5 5.5 -8.5 q2 -5 3 -12 q7 7 12 6 q5 -1 8 -8.5 q3 -7.5 4 -28.5 q1 -23 2 -44 q1 -21 1 -42 q20 -2 38.5 -4 q18.5 -2 37.5 -6 q69 -15 104 -51 q35 -36 45.5 -80.5 q10.5 -44.5 2.5 -91.5 q-8 -47 -24 -84 l33 0 q13 0 22 -9 q9 -9 9 -23 q0 -13 -9 -22 q-9 -9 -22 -9 l-265 0 l0 -1 q9 -26 25.5 -62.5 q16.5 -36.5 42 -76 q25.5 -39.5 60.5 -79 q35 -39.5 82 -72.5 q28 -20 43.5 -29.5 q15.5 -9.5 25.5 -22.5 q11 -15 10 -27 q-1 -12 -9.5 -19 q-8.5 -7 -23 -8.5 q-14.5 -1.5 -31.5 4.5 q-21 8 -54 33 q-33 25 -68.5 64.5 q-35.5 39.5 -69 91 q-33.5 51.5 -57.5 112.5 q-25 -79 -57.5 -133.5 q-32.5 -54.5 -67 -89.5 q-34.5 -35 -68 -54 q-33.5 -19 -60.5 -27 q-27 -8 -45 -8.5 q-18 -0.5 -21 1.5 q-6 4 -7.5 9 q-1.5 5 -0.5 9.5 q1 4.5 3.5 7.5 q2.5 3 2.5 4 q-1 -1 -7 -3.5 q-6 -2.5 -13.5 -4.5 q-7.5 -2 -13.5 -2.5 q-6 -0.5 -7 2.5 q-2 4 -1.5 8.5 q0.5 4.5 1.5 8.5 q1 4 3 9 q-14 -8 -24 -6 q-10 2 -10 16 q0 7 10.5 14.5 q10.5 7.5 27 17 q16.5 9.5 36.5 20.5 q20 11 40 25 q19 14 31 26.5 q12 12.5 19.5 22 q7.5 9.5 11.5 17.5 q4 8 6 13 q3 6 -4 -0.5 q-7 -6.5 -19.5 -18.5 q-12.5 -12 -29 -27.5 q-16.5 -15.5 -32.5 -28.5 q-14 -11 -31 -21.5 q-17 -10.5 -33 -18.5 q-16 -8 -29 -11.5 q-13 -3.5 -18 1.5 q-11 9 -8.5 15 q2.5 6 3.5 8 q-1 -1 -5.5 0 q-4.5 1 -6.5 12 q-2 7 1 12 q3 5 8 9 q5 4 12 8 q94 43 147.5 108.5 q53.5 65.5 80.5 141.5 l-172 0 q-13 1 -22 9.5 q-9 8.5 -9 21.5 q0 11 9 21.5 q9 10.5 22 10.5 l190 0 q14 63 17 125 q3 62 1 118 q-32 -5 -66.5 -12.5 q-34.5 -7.5 -73.5 -16.5 q1 0 -9.5 -2 q-10.5 -2 -23.5 -1.5 q-13 0.5 -25 6.5 q-12 6 -15 23 ZM687 610 q0 -74 -5 -137.5 q-5 -63.5 -13 -119.5 l147 0 q11 21 22 47.5 q11 26.5 16 54 q5 27.5 1 54 q-4 26.5 -22 48 q-18 21.5 -53.5 36 q-35.5 14.5 -92.5 17.5 ZM252 344 q-45 -93 -69 -159 q-24 -66 -37.5 -110 q-13.5 -44 -22 -70 q-8.5 -26 -21.5 -40 q-8 -9 -19.5 -10 q-11.5 -1 -22.5 4.5 q-11 5.5 -19 17.5 q-8 12 -8 29 q0 22 10 55.5 q10 33.5 26.5 72 q16.5 38.5 37 78.5 q20.5 40 40.5 75.5 q20 35.5 38 62.5 q18 27 29 40 q11 13 22 15.5 q11 2.5 17.5 -4.5 q6.5 -7 7 -22 q0.5 -15 -8.5 -35 ZM259 465 q-8 -2 -15 0.5 q-7 2.5 -13.5 8.5 q-6.5 6 -12.5 14 q-6 8 -12 16 q-51 69 -116 129 q-35 32 -38 51.5 q-3 19.5 8 31.5 q33 37 91 -30 q4 -5 18 -22 q14 -17 31 -40.5 q17 -23.5 34 -49.5 q17 -26 27.5 -49 q10.5 -23 11.5 -39.5 q1 -16.5 -14 -20.5 ZM657 611 l-3 0 q-4 -2 -6 -9.5 q-2 -7.5 -2 -15.5 q0 -11 -2 -46.5 q-2 -35.5 -3 -79.5 q0 -22 0.5 -29.5 q0.5 -7.5 2 -6 q1.5 1.5 3.5 8 q2 6.5 4 12.5 q2 6 3 21 q1 15 1.5 32 q0.5 17 0.5 33 q0 16 0 23 q-1 7 -0.5 17 q0.5 10 1.5 19 q1 11 1 21 l-1 0 ZM505 14 q10 11 20 24 q10 13 12 21 q-9 -8 -18 -17 l-35 -35 q-13 -12 -31.5 -24.5 q-18.5 -12.5 -24.5 -16.5 q-6 -3 -15.5 -8 q-9.5 -5 -10.5 -11 q0 -5 8.5 -2 q8.5 3 28.5 15 q20 12 38.5 28 q18.5 16 27.5 26 ZM905 -45 q-2 -1 -3 -2 q-3 -2 -2 -4 q0 -2 1 -6.5 q1 -4.5 2 -9 q1 -4.5 3.5 -6.5 q2.5 -2 5.5 3 q3 5 2 9 q-1 4 -3 8 q-3 4 -6 8 ZM631 581 q-1 3 -1.5 1.5 q-0.5 -1.5 -1 -5 q-0.5 -3.5 -0.5 -7.5 q0 -4 0 -7 q1 -3 1 -7.5 q0 -4.5 0 -8.5 q0 -4 1 -5.5 q1 -1.5 3 2.5 q2 5 2 11 q0 6 -1 12 q-1 7 -3 14 ZM394 -67 q5 2 -1.5 3.5 q-6.5 1.5 -15.5 -1.5 q-9 -3 -9.5 -6.5 q-0.5 -3.5 4.5 -3.5 q4 0 14 4 l8 4 Z" /><glyph glyph-name="uni51B5" unicode="&#x51b5;&#xfa71;" d="M748 359 l0 -300 q0 -20 5 -37.5 q5 -17.5 15 -31 q10 -13.5 23.5 -21 q13.5 -7.5 30.5 -6.5 q19 1 33 9.5 q14 8.5 24 23 q10 14.5 15 32.5 q5 18 6 38 q2 39 11 53.5 q9 14.5 30 14.5 q21 0 27 -25 q6 -25 3 -57 q-2 -16 -9.5 -41.5 q-7.5 -25.5 -24.5 -49.5 q-17 -24 -44.5 -41 q-27.5 -17 -68.5 -17 q-38 0 -64 11 q-26 11 -43 31 q-17 20 -24.5 47.5 q-7.5 27.5 -7.5 60.5 l0 306 l-101 0 q-1 -76 -8 -134.5 q-7 -58.5 -22.5 -106.5 q-15.5 -48 -42.5 -89 q-27 -41 -67 -81 q-8 -8 -26 -21.5 q-18 -13.5 -38.5 -25.5 q-20.5 -12 -38 -18.5 q-17.5 -6.5 -24.5 0.5 q-5 5 1 13.5 q6 8.5 11 13.5 q-7 -5 -17 -11.5 q-10 -6.5 -18 -4.5 q-5 1 -3.5 5 q1.5 4 5 8 q3.5 4 5.5 7 q2 3 -1 3 q-4 0 -10.5 -6.5 q-6.5 -6.5 -10.5 1.5 q-2 5 14.5 18.5 q16.5 13.5 33.5 27.5 q25 19 27 27 q2 8 -1 4 q-2 -2 -7 -7 q-5 -5 -12 -12 q-7 -7 -15 -13.5 q-8 -6.5 -15 -11.5 q-5 -4 -11 -9.5 q-6 -5.5 -12 -9 q-6 -3.5 -11.5 -5 q-5.5 -1.5 -8.5 2.5 q-5 6 -2 11.5 q3 5.5 5 7.5 q-4 -2 -9.5 -2 q-5.5 0 -9 2.5 q-3.5 2.5 -2.5 7.5 q1 5 10 13 q-18 -2 -21 4 q-3 6 0 13 q4 8 15 19 q60 37 94.5 82.5 q34.5 45.5 51.5 93.5 q17 48 21.5 95 q4.5 47 4.5 88 l-119 0 l0 343 q24 21 58 37.5 q34 16.5 73.5 28 q39.5 11.5 82 17.5 q42.5 6 83.5 6 q128 -2 203.5 -52 q75.5 -50 92.5 -135 q8 -39 7 -82 q-1 -43 -4 -79 q-4 -42 -11 -84 l-137 0 ZM480 423 l344 0 q3 23 5 50 q2 27 1 54.5 q-1 27.5 -5 53 q-4 25.5 -14 45.5 q-9 17 -24 34.5 q-15 17.5 -37.5 31.5 q-22.5 14 -52.5 23.5 q-30 9.5 -68 10.5 q-31 1 -58 -3.5 q-27 -4.5 -47.5 -10.5 q-20.5 -6 -32 -13.5 q-11.5 -7.5 -11.5 -12.5 l0 -263 ZM265 325 q-40 -90 -65 -155.5 q-25 -65.5 -41.5 -111 q-16.5 -45.5 -27.5 -73 q-11 -27.5 -24 -41.5 q-8 -9 -20 -10 q-12 -1 -23 4.5 q-11 5.5 -19 17.5 q-8 12 -8 30 q0 31 18.5 80.5 q18.5 49.5 46 104.5 q27.5 55 59 108 q31.5 53 57.5 90 q10 14 22 16.5 q12 2.5 20.5 -4 q8.5 -6.5 11 -21.5 q2.5 -15 -6.5 -35 ZM254 487 q-14 -8 -28.5 -2.5 q-14.5 5.5 -25.5 21.5 q-23 35 -53.5 73.5 q-30.5 38.5 -58.5 67.5 q-32 34 -36.5 52.5 q-4.5 18.5 6.5 30.5 q33 36 92 -30 q4 -5 17 -20.5 q13 -15.5 29 -36.5 q16 -21 32 -45 q16 -24 26.5 -46 q10.5 -22 11.5 -39.5 q1 -17.5 -12 -25.5 ZM436 421 q6 -2 7 10 q1 12 1 32 l0 179 q0 11 -4 20.5 q-4 9.5 -9 5.5 q-1 -33 -2 -61 q-1 -24 -1 -46.5 q0 -22.5 0 -29.5 q0 -8 0.5 -25.5 q0.5 -17.5 1 -36 q0.5 -18.5 2 -33 q1.5 -14.5 4.5 -15.5 ZM365 -65 q-1 -2 6 0.5 q7 2.5 20 12.5 q13 10 33 26.5 q20 16.5 31 31.5 q11 16 14 23.5 q3 7.5 -2 1.5 q-7 -7 -12 -14 q-5 -7 -9 -12 q-4 -4 -18.5 -18.5 q-14.5 -14.5 -33.5 -26.5 q-12 -8 -18 -12.5 q-6 -4.5 -8 -7.5 q-3 -4 -3 -5 ZM367 -45 q2 3 -0.5 2.5 q-2.5 -0.5 -6 -2.5 q-3.5 -2 -8 -4.5 q-4.5 -2.5 -5.5 -4.5 q-2 -2 -6.5 -5 q-4.5 -3 -8 -6 q-3.5 -3 -4 -4.5 q-0.5 -1.5 5.5 -0.5 q6 1 12 4.5 q6 3.5 11 8.5 q5 5 10 12 Z" /><glyph glyph-name="uni524D" unicode="&#x524d;" d="M317 559 q39 1 69 -4.5 q30 -5.5 52 -14.5 q22 -9 37.5 -21 q15.5 -12 26.5 -25 q24 -30 29 -68 l0 -377 q0 -21 -2.5 -47.5 q-2.5 -26.5 -12.5 -50.5 q-10 -24 -30 -42 q-20 -18 -56 -22 q-34 -4 -57 5 q-23 9 -37 23 q-14 14 -20.5 30.5 q-6.5 16.5 -6.5 28.5 q-2 23 13 32 q15 9 35 3 q10 -3 15.5 -12 q5.5 -9 12 -18 q6.5 -9 15 -16 q8.5 -7 24.5 -7 q12 0 21 7 q9 7 14 17 q5 10 7.5 20.5 q2.5 10.5 2.5 18.5 l0 107 l-176 0 l0 -197 q0 -8 -2 -15 q-2 -6 -6.5 -11 q-4.5 -5 -12.5 -5 q-9 -1 -14 1.5 q-5 2.5 -8 5.5 q-4 4 -4 8 q-5 -5 -8.5 -6 q-3.5 -1 -6 0.5 q-2.5 1.5 -4.5 3.5 q-2 2 -2 3 q0 -1 -1 -5.5 q-1 -4.5 -4 -10 q-3 -5.5 -9.5 -10 q-6.5 -4.5 -17.5 -4.5 q-12 0 -18.5 4.5 q-6.5 4.5 -9.5 9.5 q-4 6 -4 13 l0 62 l-3 41 l3 18 l-3 7 l-7 -7 l0 -101 q0 -11 -3 -19 q-2 -8 -7.5 -13.5 q-5.5 -5.5 -15.5 -5.5 q-11 0 -15.5 5.5 q-4.5 5.5 -6.5 13.5 q-2 8 -1 19 l0 464 q4 45 28 80 q10 15 25.5 29.5 q15.5 14.5 38 26.5 q22.5 12 53 19.5 q30.5 7.5 70.5 8.5 ZM317 819 q37 0 62.5 -25.5 q25.5 -25.5 25.5 -63.5 q0 -20 -8.5 -37.5 q-8.5 -17.5 -22.5 -29.5 l221 0 l15 11 q40 25 72.5 61.5 q32.5 36.5 56.5 66.5 q12 15 23 19 q11 4 20 2 q10 -2 19 -10 q6 -8 7 -20 q1 -11 -4 -28 q-5 -17 -22 -43 q-12 -18 -26.5 -33 q-14.5 -15 -28.5 -26 l211 0 q13 0 22 -9 q9 -9 9 -22 q0 -13 -9 -22 q-9 -9 -22 -9 l-875 0 q-12 0 -21 9 q-9 9 -9 22 q0 11 9 21 q9 10 21 10 l196 0 q-14 12 -22.5 29.5 q-8.5 17.5 -8.5 37.5 q0 38 26 63.5 q26 25.5 63 25.5 ZM900 125 q0 -129 -52 -188 q-52 -59 -156 -56 q-41 1 -68 13.5 q-27 12.5 -40.5 29 q-13.5 16.5 -13 33.5 q0.5 17 14.5 29.5 q14 12.5 41.5 15.5 q27.5 3 69.5 -8 q42 -12 69.5 -4.5 q27.5 7.5 43.5 25.5 q16 18 22.5 40.5 q6.5 22.5 6.5 39.5 l0 427 q0 14 9 23 q9 9 22 9 q13 0 22 -9 q9 -9 9 -23 l0 -397 ZM680 514 q13 0 22 -9 q9 -9 9 -23 l0 -393 q0 -14 -9 -22.5 q-9 -8.5 -22 -8.5 q-9 0 -20 7 q-11 7 -11 24 l0 393 q0 14 9 23 q9 9 22 9 ZM293 354 l176 0 l0 72 q-6 19 -17 34 q-10 13 -26 23 q-16 10 -41 11 q-32 0 -50.5 -9 q-18.5 -9 -27.5 -20 q-11 -13 -14 -30 l0 -81 ZM293 189 l176 0 l0 102 l-176 0 l0 -102 ZM259 321 q0 6 -0.5 10.5 q-0.5 4.5 -2.5 3.5 q-2 1 -3 -3 q-1 -3 -1.5 -9.5 q-0.5 -6.5 -0.5 -20.5 l0 -260 q0 -6 1 -10 q2 -10 4 -9 q2 1 2.5 4.5 q0.5 3.5 0.5 8.5 l0 11 l0 258 l0 16 ZM183 480 q11 12 18.5 18 q7.5 6 9.5 8 q-8 -3 -14.5 -7.5 q-6.5 -4.5 -16.5 -12.5 q-10 -9 -20 -23 q-10 -14 -17 -29 q-14 -28 -4 -22 q6 3 8.5 9.5 q2.5 6.5 4.5 11.5 q2 5 10.5 19.5 q8.5 14.5 20.5 27.5 ZM264 753 q-1 -3 0 -6 q0 -6 5 -8 q2 -1 4.5 1.5 q2.5 2.5 4.5 6 q2 3.5 4 7 q2 3.5 4 5.5 q2 1 6 3 q4 2 6.5 4.5 q2.5 2.5 3.5 4.5 q1 2 -3 4 q-4 2 -10 0 q-6 -2 -11.5 -6 q-5.5 -4 -9.5 -8.5 q-4 -4.5 -4 -7.5 ZM262 -5 q-1 1 -1 2 q-1 1 -1 1.5 q0 0.5 -2 1.5 q-2 0 -3 -1 q-2 -2 -2 -6 l0 -21 q0 -1 1 -3 q2 -4 4 -4 q1 0 3 4 q0 2 1 4 l0 22 ZM600 -47 q1 -2 2 -3 q3 -3 6 -2 q3 2 2.5 7.5 q-0.5 5.5 0.5 8.5 q2 3 5 9 q3 6 -3 4 q-3 -1 -5.5 -4.5 q-2.5 -3.5 -4.5 -7.5 q-2 -4 -3 -7.5 q-1 -3.5 0 -4.5 ZM322 781 q-4 -1 -1.5 -5 q2.5 -4 9.5 -4 q7 0 9 3.5 q2 3.5 -1 5.5 q-3 1 -10 1 q-3 0 -6 -1 ZM132 396 q1 5 -1.5 6.5 q-2.5 1.5 -4.5 -1.5 q0 -2 -1 -5 q-2 -6 -1 -7 q1 -2 4 0 q3 2 4 7 Z" /><glyph glyph-name="uni529F" unicode="&#x529f;" d="M396 575 q-5 13 3.5 23.5 q8.5 10.5 25.5 19.5 q17 9 42 15.5 q25 6.5 55 11.5 q0 24 -0.5 45 q-0.5 21 -0.5 39 q-1 24 -2 45.5 q-1 21.5 8 29.5 q8 6 12 -1.5 q4 -7.5 5 -9.5 q0 3 3 7.5 q3 4.5 8 2.5 q4 -2 5 -6.5 q1 -4.5 1 -8.5 q0 5 2 11 q2 6 9 5 q9 -1 11 -10.5 q2 -9.5 2 -10.5 q0 -1 0 -9.5 q0 -8.5 1 -19.5 q0 -12 1 -28 l2 -68 l0 -6 l6 0 q0 13 0 28.5 q0 15.5 -0.5 28 q-0.5 12.5 -0.5 21.5 q0 9 0 10 q0 2 -0.5 12 q-0.5 10 -1.5 21 q-1 13 -1 30 q-1 4 1 8 q1 3 4 6 q3 3 8 4 q9 0 13 -10 q2 -4 2 -10 l1 -7 q0 5 5 14 q5 9 14 7 q8 -1 11 -12 q3 -11 4 -13 q0 1 4.5 7 q4.5 6 10 8 q5.5 2 11 -5.5 q5.5 -7.5 8.5 -32.5 q2 -30 3 -58.5 q1 -28.5 2 -56.5 q9 0 18 -0.5 q9 -0.5 17 -1.5 q74 -8 114.5 -44 q40.5 -36 59.5 -86 q19 -50 22.5 -106 q3.5 -56 3.5 -104 q0 -8 -1 -34 q-1 -26 -4.5 -61.5 q-3.5 -35.5 -10 -77.5 q-6.5 -42 -19 -82.5 q-12.5 -40.5 -31 -75.5 q-18.5 -35 -44.5 -58 q-24 -21 -51.5 -29.5 q-27.5 -8.5 -53 -7 q-25.5 1.5 -47 11 q-21.5 9.5 -34.5 23.5 q-13 14 -15 32 q-2 18 12 36 q10 12 24.5 13 q14.5 1 28.5 -4 q16 -5 32 -16 q15 -5 30 -1.5 q15 3.5 28 13 q13 9.5 23 23.5 q10 14 15 29 q14 29 24 78 q8 42 14 109 q6 67 4 167 q-1 51 -14 85 q-13 34 -34.5 55 q-21.5 21 -50 31 q-28.5 10 -60.5 13 q-1 -139 -17 -245 q-16 -106 -39.5 -183.5 q-23.5 -77.5 -52 -129 q-28.5 -51.5 -54.5 -82.5 q-26 -31 -45.5 -44.5 q-19.5 -13.5 -25.5 -14.5 q-9 -1 -10 5.5 q-1 6.5 2 15.5 q3 9 7.5 17 q4.5 8 6.5 11 q-2 -2 -9.5 -10 q-7.5 -8 -17 -15.5 q-9.5 -7.5 -19.5 -11.5 q-10 -4 -17 1 q-5 3 -5.5 7.5 q-0.5 4.5 1.5 9 q2 4.5 4.5 8 q2.5 3.5 4.5 5.5 q-11 -8 -21 -4 q-10 4 -5 15 q1 4 3.5 6.5 q2.5 2.5 7.5 7 q5 4.5 13.5 12 q8.5 7.5 20.5 22.5 q32 36 50 67.5 q18 31.5 22 42.5 q2 6 -5 -5 q-7 -11 -18.5 -28 q-11.5 -17 -24.5 -35.5 q-13 -18.5 -24 -28.5 q-11 -10 -21 -20.5 q-10 -10.5 -18.5 -18.5 q-8.5 -8 -15 -11 q-6.5 -3 -10.5 2 q-7 8 -3.5 17 q3.5 9 4.5 11 q-2 -2 -7.5 -3 q-5.5 -1 -7.5 11 q-1 4 4.5 11 q5.5 7 12.5 15 q8 9 17 18 q42 56 68.5 123.5 q26.5 67.5 42 139 q15.5 71.5 21.5 142.5 q6 71 8 134 q-31 -5 -53 -9.5 q-22 -4.5 -36.5 -5 q-14.5 -0.5 -23 4 q-8.5 4.5 -12.5 16.5 ZM410 118 q2 -13 -5.5 -23.5 q-7.5 -10.5 -20.5 -12.5 l-326 -62 q-13 -1 -22.5 7 q-9.5 8 -11.5 20 q-2 10 6 21.5 q8 11.5 19 13.5 l72 14 l0 510 l-67 0 q-13 1 -22 9.5 q-9 8.5 -9 21.5 q0 11 9 21.5 q9 10.5 22 10.5 l310 0 q14 0 23 -9 q9 -9 9 -23 q0 -13 -9 -22 q-9 -9 -23 -9 l-65 0 l0 -476 l76 15 q13 2 23 -6 q10 -8 12 -21 ZM268 287 q-2 13 -5 12 q-2 1 -3 -2 q-3 -5 -3 -26 l0 -116 q-1 -5 0 -9 q1 -3 2 -6 q1 -3 4 -2 q5 0 5 10 l0 10 l0 115 l0 14 ZM582 74 q4 9 9 22.5 q5 13.5 9.5 26 q4.5 12.5 7 21.5 q2.5 9 1.5 8 q-9 -18 -17 -35 q-7 -14 -14 -30 q-7 -16 -12 -26 q-8 -14 -18 -30 q-10 -16 -13 -21 q-2 -4 -6.5 -9 q-4.5 -5 -3.5 -11 q0 -11 16 15 q4 7 10.5 17 q6.5 10 12.5 19.5 q6 9.5 11 18.5 q5 9 7 14 ZM243 176 q0 2 -1 3 q-2 1 -6 3 q-2 0 -4 -1 q-3 -2 -3 -7 l0 -27 q0 -2 1 -4 q2 -4 6 -4 q4 0 6 5 q1 2 1 5 l0 27 ZM639 -19 q-1 -2 0 -4 q0 -4 4 -4 q3 -1 6 4.5 q3 5.5 6 7.5 q2 2 7.5 5 q5.5 3 0.5 5 q-6 2 -15 -4.5 q-9 -6.5 -9 -9.5 ZM518 -30 q3 3 -2 4.5 q-5 1.5 -10 -3.5 q-6 -5 -6 -9 q0 -4 4 -3 q3 0 9 6 l5 5 Z" /><glyph glyph-name="uni52A8" unicode="&#x52a8;" d="M504 471 q13 0 22 -9 q9 -9 9 -23 q0 -13 -9 -22 q-9 -9 -22 -9 l-147 0 q-10 -18 -28.5 -51.5 q-18.5 -33.5 -38 -73.5 q-19.5 -40 -38 -82 q-18.5 -42 -28.5 -77 q-10 -35 -9.5 -58.5 q0.5 -23.5 18.5 -27.5 q32 -4 65 2.5 q33 6.5 60 16 q27 9.5 46 19 q19 9.5 24 12.5 q-9 18 -21 42 q-12 24 -23 47.5 q-11 23.5 -21 43.5 q-10 20 -14 30 q-7 14 -6 22.5 q1 8.5 4 13.5 q4 6 11 9 q11 4 19.5 0 q8.5 -4 14.5 -9 q7 -7 12 -16 q26 -39 48 -74 q9 -15 19 -30.5 q10 -15.5 18.5 -29.5 q8.5 -14 15.5 -25.5 q7 -11.5 11 -18.5 l2 -5 q38 56 61.5 117.5 q23.5 61.5 36.5 123.5 q13 62 18 122.5 q5 60.5 5 114.5 q-39 -7 -66 -12.5 q-27 -5.5 -44 -6.5 q-17 -1 -27 3.5 q-10 4.5 -14 18.5 q-5 15 5.5 27.5 q10.5 12.5 31.5 22 q21 9.5 50.5 16 q29.5 6.5 63.5 9.5 q0 23 -0.5 43 q-0.5 20 -0.5 37 q0 25 -0.5 46.5 q-0.5 21.5 8.5 28.5 q8 6 11.5 -0.5 q3.5 -6.5 4.5 -9.5 q0 2 3.5 6.5 q3.5 4.5 8.5 2.5 q4 -2 5 -6.5 q1 -4.5 1 -8.5 q0 5 2 11 q2 6 9 5 q9 -1 11 -10 q2 -9 2 -11 l0 -28 q0 -12 1 -28 l1 -68 l0 -5 l4 0 q0 13 0 28 q0 15 -0.5 27.5 q-0.5 12.5 -0.5 21.5 q0 9 0 10 q0 2 -0.5 12 q-0.5 10 -0.5 21 l0 30 q-1 4 1 8 q2 8 12 9 q9 1 13 -9 q2 -4 2 -10 l0 -8 q2 6 6.5 14.5 q4.5 8.5 13.5 6.5 q5 -1 7 -5 q2 -4 4 -9 q2 -5 3 -12 q11 9 19 10 q7 1 12.5 -5.5 q5.5 -6.5 6.5 -27.5 q1 -31 1.5 -60 q0.5 -29 0.5 -58 q41 -8 68.5 -27.5 q27.5 -19.5 45 -47 q17.5 -27.5 26.5 -60.5 q9 -33 13.5 -68 q4.5 -35 5.5 -69.5 q1 -34.5 2 -64.5 q0 -8 0 -32 q0 -24 -3 -58.5 q-3 -34.5 -9.5 -75.5 q-6.5 -41 -19 -82 q-12.5 -41 -32.5 -78.5 q-20 -37.5 -49 -64.5 q-23 -21 -49 -29.5 q-26 -8.5 -50.5 -7.5 q-24.5 1 -45 10.5 q-20.5 9.5 -33 24 q-12.5 14.5 -14 32.5 q-1.5 18 11.5 36 q9 13 24.5 14.5 q15.5 1.5 29.5 -2.5 q17 -4 36 -14 q10 -3 20 -2 q10 1 20.5 10 q10.5 9 21.5 28 q11 19 25 51 q16 40 27 93 q9 45 13.5 108 q4.5 63 -6.5 141 q-10 72 -30.5 108.5 q-20.5 36.5 -49.5 50.5 q-4 -145 -22.5 -252 q-18.5 -107 -45 -183 q-26.5 -76 -56.5 -124.5 q-30 -48.5 -57 -76 q-27 -27.5 -47.5 -38.5 q-20.5 -11 -26.5 -11 q-9 -1 -10 5 q-1 6 2 14 q3 8 7.5 16 q4.5 8 7.5 12 q-3 -3 -10.5 -10.5 q-7.5 -7.5 -17 -14 q-9.5 -6.5 -20 -10.5 q-10.5 -4 -17.5 1 q-5 3 -5.5 8 q-0.5 5 0.5 9.5 q1 4.5 3.5 8 q2.5 3.5 3.5 4.5 q-12 -8 -22 -3.5 q-10 4.5 -5 15.5 q1 4 3 5.5 q2 1.5 7 5 q5 3.5 14 11 q9 7.5 23 24.5 q32 37 51.5 68 q19.5 31 24.5 42 q2 5 -5.5 -5.5 q-7.5 -10.5 -19.5 -27 q-12 -16.5 -26 -35 q-14 -18.5 -25 -28.5 q-11 -10 -21.5 -20.5 q-10.5 -10.5 -19 -18 q-8.5 -7.5 -15.5 -10.5 q-7 -3 -11 2 q-7 8 -3.5 17 q3.5 9 4.5 11 q-2 -2 -7.5 -3 q-5.5 -1 -6.5 11 q0 3 3 8 q3 5 7.5 10.5 q4.5 5.5 9.5 11 q5 5.5 8 8.5 l-4 4 q-4 -2 -22 -9.5 q-18 -7.5 -48 -17 q-30 -9.5 -70.5 -20 q-40.5 -10.5 -89.5 -17.5 q-66 -9 -103.5 -2 q-37.5 7 -56 22 q-18.5 15 -23 33.5 q-4.5 18.5 -5.5 32.5 q-2 31 11 81 q11 43 40 111 q29 68 88 166 l-119 0 q-12 0 -21 9 q-9 9 -9 22 q0 11 9 21.5 q9 10.5 21 10.5 l440 0 ZM461 729 q13 0 22 -9 q9 -9 9 -23 q0 -13 -9 -22 q-9 -9 -22 -9 l-354 0 q-12 1 -21 9.5 q-9 8.5 -9 21.5 q0 11 9 21.5 q9 10.5 21 10.5 l354 0 ZM273 331 q0 1 -6 -8.5 q-6 -9.5 -14 -24 q-8 -14.5 -16.5 -30 q-8.5 -15.5 -13.5 -25.5 q-3 -6 -7.5 -18 q-4.5 -12 -8.5 -25.5 q-4 -13.5 -8 -26.5 q-4 -13 -7 -23 q-5 -19 -6 -26 q-1 -7 6 -2 q6 5 7.5 13 q1.5 8 3.5 14 q2 6 8 28 q6 22 13 40 q5 13 13.5 32.5 q8.5 19.5 16.5 37.5 q9 21 19 44 ZM789 523 q0 6 -0.5 14.5 q-0.5 8.5 -1.5 15.5 q-1 7 -2 12 q-1 5 -1 4 q-1 -7 -2 -15 q-1 -7 -1 -16.5 q0 -9.5 0 -19.5 q0 -17 -1.5 -31 q-1.5 -14 -3.5 -23 q-1 -5 -2 -14.5 q-1 -9.5 1 -16.5 q3 -6 4.5 1 q1.5 7 3.5 23 q3 17 4.5 35.5 q1.5 18.5 1.5 30.5 ZM690 -52 q0 -2 2 -3 q2 -4 6 -2 q3 1 2.5 7 q-0.5 6 1.5 9 q1 3 4 8.5 q3 5.5 -3 4.5 q-3 -1 -5.5 -4.5 q-2.5 -3.5 -4.5 -7.5 q-2 -4 -3 -7.5 q-1 -3.5 0 -4.5 ZM777 414 q1 3 -2 3 q-3 0 -5 -5 q-1 -5 1 -8.5 q2 -3.5 4 -1.5 q2 2 2 7 l0 5 ZM190 104 q-1 5 -4 7 q-3 2 -3 -1 l0 -5 q0 -7 1 -8 q2 -2 4 0 q2 2 2 7 Z" /><glyph glyph-name="uni52A9" unicode="&#x52a9;" d="M426 92 l11 3 q17 3 28 -2.5 q11 -5.5 13 -16 q2 -10.5 -5.5 -22.5 q-7.5 -12 -26.5 -21 q-27 -12 -68 -27 q-41 -15 -86.5 -30 q-45.5 -15 -92 -29 q-46.5 -14 -83.5 -24 q-43 -11 -64.5 -5 q-21.5 6 -23.5 24 q-2 16 7.5 27.5 q9.5 11.5 33.5 20.5 l0 641 q0 10 8.5 35 q8.5 25 30.5 50.5 q22 25.5 58.5 45.5 q36.5 20 93.5 20 q61 1 94.5 -18 q33.5 -19 49.5 -45 q16 -26 19 -52.5 q3 -26.5 3 -39.5 l0 -535 ZM457 575 q-5 14 4.5 25.5 q9.5 11.5 29 20.5 q19.5 9 47.5 15.5 q28 6.5 61 10.5 q-1 23 -1.5 43.5 q-0.5 20.5 -0.5 37.5 q-1 24 -1 45.5 q0 21.5 8 28.5 q8 6 12 -2 q2 -4 3 -9 q0 3 2.5 8 q2.5 5 7.5 3 q3 -2 5 -10 q1 -4 1 -8 q0 6 1 10 q2 9 9 9 q8 -1 10 -10 q2 -9 2 -10 q0 -1 0 -9.5 q0 -8.5 1 -19.5 q0 -12 1 -28 l2 -68 l0 -7 l3 0 q0 13 -0.5 28.5 q-0.5 15.5 -0.5 28.5 q0 13 -0.5 22 q-0.5 9 -0.5 10 q0 2 -0.5 12 q-0.5 10 -0.5 21 q-1 13 -1 30 q0 4 1 8 q1 3 3.5 6 q2.5 3 7.5 4 q8 0 12 -10 q2 -4 2 -10 l0 -6 q1 6 5.5 14 q4.5 8 12.5 6 q8 -1 10.5 -12 q2.5 -11 2.5 -13 q0 1 5 6 q5 5 11 6.5 q6 1.5 12 -5.5 q6 -7 8 -30 q2 -31 2.5 -59.5 q0.5 -28.5 1.5 -56.5 q2 0 5 -0.5 q3 -0.5 6 -0.5 q50 -4 83 -21.5 q33 -17.5 53 -45 q20 -27.5 30 -61.5 q10 -34 13.5 -70.5 q3.5 -36.5 3 -73 q-0.5 -36.5 -0.5 -68.5 q0 -8 -0.5 -34 q-0.5 -26 -3.5 -61.5 q-3 -35.5 -9 -77.5 q-6 -42 -18 -82.5 q-12 -40.5 -30 -75.5 q-18 -35 -45 -58 q-24 -21 -51 -29.5 q-27 -8.5 -52.5 -7 q-25.5 1.5 -47 11 q-21.5 9.5 -34.5 23.5 q-13 14 -15 32 q-2 18 12 36 q10 12 24 13 q14 1 28 -4 q16 -5 33 -16 q15 -5 29.5 -1.5 q14.5 3.5 27.5 13 q13 9.5 23.5 23.5 q10.5 14 15.5 29 q13 29 24 78 q8 42 14.5 109 q6.5 67 4.5 167 q-2 47 -11.5 80 q-9.5 33 -26 54.5 q-16.5 21.5 -38.5 33 q-22 11.5 -47 15.5 q-2 -143 -17 -250 q-15 -107 -37.5 -184.5 q-22.5 -77.5 -49 -127.5 q-26.5 -50 -50.5 -80 q-24 -30 -42.5 -42.5 q-18.5 -12.5 -24.5 -13.5 q-9 -1 -9.5 5.5 q-0.5 6.5 2.5 15.5 q3 9 7 17 q4 8 6 11 q-2 -2 -9 -10 q-7 -8 -16 -15.5 q-9 -7.5 -18 -11.5 q-9 -4 -16 1 q-9 6 -3.5 16.5 q5.5 10.5 8.5 13.5 q-11 -8 -20 -4 q-9 4 -5 15 q1 4 3.5 6.5 q2.5 2.5 7.5 7 q5 4.5 12.5 12 q7.5 7.5 19.5 22.5 q29 36 46 67.5 q17 31.5 21 42.5 q1 6 -5.5 -5 q-6.5 -11 -17 -28 q-10.5 -17 -23 -35.5 q-12.5 -18.5 -22.5 -28.5 q-10 -10 -19 -20.5 q-9 -10.5 -17 -18.5 q-8 -8 -14 -11 q-6 -3 -10 2 q-7 8 -4.5 17 q2.5 9 4.5 11 q-1 -1 -6.5 -3 q-5.5 -2 -6.5 11 q-1 4 4 11 q5 7 11 15 q7 9 16 18 q42 57 68 125.5 q26 68.5 40.5 139.5 q14.5 71 20.5 142 q6 71 7 133 q-36 -6 -61 -11 q-25 -5 -41.5 -5.5 q-16.5 -0.5 -26 4 q-9.5 4.5 -13.5 17.5 ZM227 37 q37 11 71.5 20.5 q34.5 9.5 63.5 17.5 l0 160 l-135 0 l0 -198 ZM227 296 l135 0 l0 176 l-135 0 l0 -176 ZM362 634 q0 12 -2.5 26.5 q-2.5 14.5 -9.5 27 q-7 12.5 -20 21 q-13 8.5 -34 9.5 q-20 0 -33 -6.5 q-13 -6.5 -21 -17 q-8 -10.5 -11.5 -22.5 q-3.5 -12 -3.5 -23 l0 -117 l135 0 l0 102 ZM106 612 q1 10 -2 18.5 q-3 8.5 -7 4.5 l0 -19 l0 -32 q-1 -6 -1.5 -20.5 q-0.5 -14.5 -0.5 -30 q0 -15.5 0 -29.5 q0 -14 2 -19 q1 -5 2.5 -11 q1.5 -6 2.5 -7 q1 -1 2 5 q1 6 2 26 q1 40 0 72 q-1 32 0 42 ZM638 69 q4 9 9 22.5 q5 13.5 9 26 q4 12.5 7 21.5 q3 9 2 8 q-9 -18 -17 -35 q-7 -14 -14.5 -30 q-7.5 -16 -12.5 -26 q-7 -14 -17 -30 q-10 -16 -13 -21 q-2 -4 -6.5 -9 q-4.5 -5 -3.5 -11 q0 -6 3.5 -2.5 q3.5 3.5 12.5 17.5 q4 7 10 17 q6 10 12 19.5 q6 9.5 11 18.5 q5 9 8 14 ZM666 -23 q0 -4 4 -4 q3 -1 6 4.5 q3 5.5 5 7.5 q3 2 8.5 5 q5.5 3 -0.5 5 q-5 1 -14.5 -5 q-9.5 -6 -8.5 -9 l0 -4 ZM580 -34 q3 3 -1.5 4.5 q-4.5 1.5 -10.5 -3.5 q-5 -5 -5 -9 q0 -4 4 -3 q2 0 8 6 l5 5 Z" /><glyph glyph-name="uni5316" unicode="&#x5316;" d="M819 653 q12 12 25 22.5 q13 10.5 26 16.5 q13 6 24.5 5.5 q11.5 -0.5 19.5 -9.5 q17 -17 5 -47 q-12 -30 -44 -67 q-46 -53 -100 -102.5 q-54 -49.5 -111 -94.5 l0 -311 q0 -18 3.5 -37.5 q3.5 -19.5 14 -36 q10.5 -16.5 29.5 -27 q19 -10.5 49 -10.5 q41 1 60.5 18 q19.5 17 27 43 q7.5 26 8 56.5 q0.5 30.5 3 58 q2.5 27.5 12 48 q9.5 20.5 34.5 27.5 q26 7 42 -10 q16 -17 21 -47.5 q5 -30.5 -1 -69.5 q-6 -39 -23.5 -75.5 q-17.5 -36.5 -46.5 -66 q-29 -29.5 -70 -41.5 q-33 -9 -70 -13 q-37 -4 -73.5 -1 q-36.5 3 -71.5 13 q-35 10 -64 30 q-31 21 -53 59 q-22 38 -22 76 l0 179 l-68 -42 q-25 -15 -45.5 -20 q-20.5 -5 -36 -3 q-15.5 2 -26.5 9.5 q-11 7.5 -17 18.5 q-5 10 -5 22 q0 12 7.5 25 q7.5 13 24 26.5 q16.5 13.5 44.5 27.5 q62 29 122 68 l0 403 q0 8 3 15 q2 5 7 10 q5 5 16 6 q8 1 13.5 -2.5 q5.5 -3.5 9 -9 q3.5 -5.5 5 -10.5 q1.5 -5 1.5 -8 q0 2 3 10 q3 8 14 7 q7 -1 10 -5 q3 -4 4 -8 q0 4 0 11 q0 7 1.5 13.5 q1.5 6.5 6 12 q4.5 5.5 13.5 5.5 q10 1 15 -6 q5 -7 7 -16 q3 -11 2 -25 l0 -125 q1 -3 2 -5 q1 -2 2 -2.5 q1 -0.5 3 3.5 q2 3 3 19 q1 16 2 33 l0 46 q-2 9 -1 16 q1 6 3.5 11 q2.5 5 10.5 4 q-2 10 -1 18 q1 7 4.5 13 q3.5 6 12.5 8 q9 2 12.5 -5.5 q3.5 -7.5 5.5 -17.5 q2 -11 1 -26 l0 -254 q35 29 64 55 q29 26 49 46 q24 23 42 42 ZM246 -85 q0 -14 -9 -23 q-9 -9 -22 -9 q-14 0 -23 9 q-9 9 -9 23 l0 516 q-25 -39 -47 -60 q-22 -21 -39.5 -30 q-17.5 -9 -30.5 -8 q-13 1 -20 6 q-17 12 -18.5 32.5 q-1.5 20.5 10.5 37.5 q6 9 18 22 q12 13 27 29 q15 16 31.5 35 q16.5 19 31.5 39 q15 20 31 48 q16 28 32 58.5 q16 30.5 29.5 61 q13.5 30.5 23.5 56.5 q10 26 19.5 38 q9.5 12 17.5 17 q9 4 17 2 q18 -3 19.5 -23.5 q1.5 -20.5 -9 -55 q-10.5 -34.5 -31.5 -82 q-21 -47.5 -49 -105.5 l0 -634 ZM641 344 q0 5 -0.5 8.5 q-0.5 3.5 -2.5 2.5 q-2 1 -3 -2 q-1 -2 -1.5 -7.5 q-0.5 -5.5 -0.5 -16.5 l0 -206 q-1 -4 0 -8 q0 -3 1.5 -5.5 q1.5 -2.5 3.5 -1.5 q2 0 2.5 3 q0.5 3 0.5 6 l0 9 l0 205 l0 13 ZM527 745 q-3 -2 -3 -12 l0 -11 l0 -82 q0 -15 0 -30 q0 -15 0.5 -26.5 q0.5 -11.5 1 -18 q0.5 -6.5 1.5 -6.5 q3 0 3 8 l0 7 l0 144 q0 12 -0.5 17.5 q-0.5 5.5 -1.5 7.5 q-1 3 -1 2 ZM934 174 q-1 0 -3 -1 q-4 -2 -3 -4 q0 -2 0 -6.5 q0 -4.5 0.5 -9 q0.5 -4.5 2.5 -6.5 q2 -2 6 2 q4 4 4 8.5 q0 4.5 -2 8.5 q-2 4 -5 8 ZM641 80 q-2 2 -4 2 l-3 0 q-2 -2 -2 -5 l0 -17 q0 -1 1 -2 q3 -3 4 -3 q2 0 4 3 q1 1 1 3 l0 18 l-1 1 Z" /><glyph glyph-name="uni53D1" unicode="&#x53d1;" d="M923 585 q13 0 22.5 -8.5 q9.5 -8.5 10.5 -21.5 q1 -14 -8 -23.5 q-9 -9.5 -23 -9.5 l-478 0 q-4 -25 -8 -48.5 q-4 -23.5 -9 -45.5 q38 5 79 8 q41 3 82 3 q71 0 128.5 -6.5 q57.5 -6.5 96 -23 q38.5 -16.5 55.5 -45 q17 -28.5 7 -70.5 q-19 -78 -75.5 -140 q-56.5 -62 -129.5 -110 q49 -25 91.5 -40 q42.5 -15 74.5 -23 q37 -10 67 -14 q21 -5 37 -12 q14 -7 23.5 -17 q9.5 -10 5.5 -27 q-4 -15 -16 -21.5 q-12 -6.5 -28 -8 q-16 -1.5 -32 0 q-16 1.5 -28 4.5 q-6 1 -30.5 8.5 q-24.5 7.5 -61.5 21.5 q-37 14 -83.5 34.5 q-46.5 20.5 -94.5 49.5 q-54 -29 -107.5 -51 q-53.5 -22 -98.5 -37.5 q-45 -15.5 -78.5 -24 q-33.5 -8.5 -46.5 -11.5 q-18 -3 -28 0 q-10 3 -13 8.5 q-3 5.5 0.5 11.5 q3.5 6 14.5 8 q21 5 51 15.5 q30 10.5 53 17.5 q11 3 15.5 5 q4.5 2 5.5 3 q1 1 -3 1 l-15 -3 q-5 -1 -9 -2 q-3 -1 -6 -2 q-3 -1 -3 -2 q-1 -1 -5 -1 q-2 0 -5 1 l-43 -14 q-11 -3 -21 -5 q-8 -2 -16.5 -3.5 q-8.5 -1.5 -12.5 -0.5 q-7 0 -4 5 q1 2 3 5 q-5 0 -9 1 q-8 2 -14 10 q-6 8 -1.5 13 q4.5 5 6.5 6 q-8 0 -17 6.5 q-9 6.5 -4 14.5 q-20 -12 -33.5 -16.5 q-13.5 -4.5 -18.5 -4.5 q-9 0 -10 6 q-1 6 3 13.5 q4 7.5 9.5 14.5 q5.5 7 8.5 10 q-3 -3 -11.5 -9 q-8.5 -6 -19 -11.5 q-10.5 -5.5 -20.5 -7.5 q-10 -2 -16 3 q-5 4 -5 8.5 q0 4.5 2 9.5 q3 5 8 10 q-13 -6 -22.5 -2 q-9.5 4 -4.5 15 q2 4 4 5 q2 1 7.5 4 q5.5 3 15 9.5 q9.5 6.5 25.5 20.5 q35 32 58 59.5 q23 27.5 28 37.5 q2 5 -6 -4 q-8 -9 -21.5 -24 q-13.5 -15 -29.5 -31 q-16 -16 -28 -25 q-12 -8 -23 -17 q-11 -9 -20.5 -15 q-9.5 -6 -16.5 -8 q-7 -2 -11 3 q-7 8 -3 15 q4 7 6 9 q-2 -1 -8 -0.5 q-6 0.5 -5 11.5 q0 4 5.5 10 q5.5 6 13.5 13 l20 16 q50 43 85.5 93.5 q35.5 50.5 60 105.5 q24.5 55 39 111 q14.5 56 23.5 109 l-69 0 q-18 0 -37.5 2 q-19.5 2 -37.5 8.5 q-18 6.5 -33 19 q-15 12.5 -24 33.5 q-14 33 -9.5 66.5 q4.5 33.5 16.5 61 q12 27.5 25.5 46.5 q13.5 19 17.5 22 q8 8 16.5 12 q8.5 4 21.5 0 q13 -4 19 -16.5 q6 -12.5 -2 -25.5 q-51 -85 -37.5 -125.5 q13.5 -40.5 83.5 -40.5 l59 0 q6 47 9 87.5 q3 40.5 6 71.5 q2 23 3.5 43.5 q1.5 20.5 11.5 25.5 q8 5 12 -3 q2 -4 3 -9 q0 3 3.5 7 q3.5 4 8.5 2 q4 -2 4.5 -6.5 q0.5 -4.5 -0.5 -7.5 q1 4 4 9 q3 5 10 4 q9 -2 9.5 -11 q0.5 -9 0.5 -10 q0 -1 -0.5 -9 q-0.5 -8 -1.5 -18 l-2 -26 l-6 -65 q-1 -9 -1 -16 q-1 -6 -1 -11 q0 -5 -1 -7 q-1 -3 -0.5 -8.5 q0.5 -5.5 3.5 5.5 q1 5 3 23 q2 18 3.5 38 q1.5 20 3 36 q1.5 16 1.5 18 q0 2 1 11 q1 9 2 20 l2 28 q0 3 2 7 q4 8 14 8 q8 0 12 -10 q1 -4 1 -10 l-1 -6 q2 5 7 12 q5 7 14 5 q5 -2 6.5 -5.5 q1.5 -3.5 3.5 -8.5 l2 -12 q10 8 19 8 q7 0 13 -7 q6 -7 4 -27 q-3 -48 -7.5 -91.5 q-4.5 -43.5 -9.5 -84.5 l467 0 ZM560 388 q-29 -2 -66 -6.5 q-37 -4.5 -78 -12.5 q-5 -18 -10 -35 q-5 -17 -10 -33 q17 -35 50.5 -81.5 q33.5 -46.5 96.5 -94.5 q45 28 76.5 56.5 q31.5 28.5 53 54.5 q21.5 26 34 48.5 q12.5 22.5 17.5 38.5 q11 33 -30 50.5 q-41 17.5 -134 14.5 ZM802 807 q19 0 35.5 -7 q16.5 -7 29 -19.5 q12.5 -12.5 19.5 -29 q7 -16.5 7 -35.5 q0 -19 -7 -36 q-7 -17 -19.5 -29.5 q-12.5 -12.5 -29 -19.5 q-16.5 -7 -35.5 -7 q-19 0 -35.5 7 q-16.5 7 -29 19.5 q-12.5 12.5 -19.5 29.5 q-7 17 -7 36 q0 38 26.5 64.5 q26.5 26.5 64.5 26.5 ZM222 -7 q78 20 140.5 44 q62.5 24 113.5 50 q-32 27 -60 59 q-28 32 -51 68 q-39 -94 -81.5 -147 q-42.5 -53 -77.5 -79 q4 2 7.5 3 q3.5 1 8.5 2 ZM388 383 q3 10 7 25.5 q4 15.5 7 29.5 q3 14 5 23.5 q2 9.5 1 8.5 q-7 -15 -13 -33 q-5 -15 -11.5 -34 q-6.5 -19 -11.5 -38 q-4 -14 -8.5 -28.5 q-4.5 -14.5 -9.5 -28 q-5 -13.5 -9 -23.5 q-4 -10 -6 -14 q-4 -8 -10 -19.5 q-6 -11.5 -6 -21.5 q1 -11 6.5 -2.5 q5.5 8.5 18.5 36.5 q6 14 12 30.5 q6 16.5 11.5 32.5 q5.5 16 9.5 30.5 q4 14.5 7 25.5 ZM397 7 q8 2 14 7 q6 5 2 8 q-7 -3 -15 -6 q-7 -2 -14.5 -4.5 q-7.5 -2.5 -12.5 -3.5 q-5 -1 -17 -4.5 q-12 -3.5 -24.5 -7 q-12.5 -3.5 -23.5 -7.5 q-11 -4 -15 -7 q-4 -3 -8.5 -6 q-4.5 -3 -5 -4.5 q-0.5 -1.5 5 -0.5 q5.5 1 22.5 6 q32 9 58 18.5 q26 9.5 34 11.5 ZM853 283 q1 -2 5.5 7 q4.5 9 6.5 20 q1 11 -3.5 30.5 q-4.5 19.5 -13.5 28.5 q-11 11 -16.5 13 q-5.5 2 -10.5 3 q-3 0 -1 -2.5 q2 -2.5 5.5 -6 q3.5 -3.5 7.5 -7.5 q4 -4 6 -6 q3 -3 10 -17.5 q7 -14.5 7 -26.5 q-1 -9 -1 -15.5 q0 -6.5 -1 -11.5 q-1 -5 -1 -9 ZM746 740 q-1 -3 0 -6 q1 -2 2 -5 q1 -3 4 -4 q2 -1 4.5 1.5 q2.5 2.5 4.5 6 q2 3.5 4 7 q2 3.5 4 5.5 q2 1 6 3.5 q4 2.5 6.5 4.5 q2.5 2 3.5 4.5 q1 2.5 -3 4.5 q-4 2 -10 -0.5 q-6 -2.5 -12 -6 q-6 -3.5 -10 -8 q-4 -4.5 -4 -7.5 ZM412 -14 q2 1 5.5 3 q3.5 2 6.5 3.5 q3 1.5 4 3 q1 1.5 -2 0.5 q-7 -2 -13 -4 q-5 -2 -10.5 -4.5 q-5.5 -2.5 -7.5 -6.5 q-3 -3 -1.5 -3 q1.5 0 5 1.5 q3.5 1.5 7.5 3.5 q4 2 6 3 ZM805 767 q-5 -1 -2 -4.5 q3 -3.5 10 -3.5 q7 0 9 3 q2 3 -1 5 q-3 1 -10 1 q-3 0 -6 -1 ZM305 185 q-1 -5 3 -4.5 q4 0.5 6 7.5 q3 7 1 10.5 q-2 3.5 -4 1.5 q-2 -1 -4 -8 q-1 -4 -2 -7 ZM847 258 q-1 -4 2 -2 q3 2 5 8 q2 7 0 9.5 q-2 2.5 -4 -0.5 q-3 -3 -3 -9 l0 -6 Z" /><glyph glyph-name="uni540C" unicode="&#x540c;" d="M70 519 q12 66 42 113.5 q30 47.5 79 79.5 q49 32 119.5 49.5 q70.5 17.5 163.5 23.5 q88 5 157 -3 q69 -8 120 -24.5 q51 -16.5 86.5 -40 q35.5 -23.5 57.5 -49.5 q22 -26 32 -52.5 q10 -26.5 11 -48.5 l0 -393 q-1 -63 -11.5 -111 q-10.5 -48 -33.5 -82 q-23 -34 -60.5 -52.5 q-37.5 -18.5 -92.5 -22.5 q-37 -2 -63 4 q-26 6 -41 17 q-15 11 -18.5 24.5 q-3.5 13.5 4.5 25.5 q9 15 30 21.5 q21 6.5 69 1.5 q42 -5 71 7 q29 12 47 33.5 q18 21.5 26 49 q8 27.5 8 54.5 l0 405 q1 15 -12.5 43 q-13.5 28 -46 55.5 q-32.5 27.5 -85 48 q-52.5 20.5 -129.5 21.5 q-84 1 -147 -7.5 q-63 -8.5 -106 -31.5 q-43 -23 -66.5 -63.5 q-23.5 -40.5 -29.5 -104.5 l0 -518 q2 -27 1 -47 q-1 -17 -3.5 -31.5 q-2.5 -14.5 -7.5 -13.5 q-6 0 -7.5 6.5 q-1.5 6.5 -2 12.5 q-0.5 6 -1 8 q-0.5 2 -4.5 -6 q-7 -15 -13.5 -10 q-6.5 5 -9.5 13 q-2 4 -2.5 0.5 q-0.5 -3.5 -1.5 -9.5 q-1 -6 -3.5 -11.5 q-2.5 -5.5 -7.5 -5.5 q-5 0 -7.5 5.5 q-2.5 5.5 -4 10 q-1.5 4.5 -2.5 5.5 q-1 1 -3 -8 q-3 -18 -12.5 -17 q-9.5 1 -11.5 7 q-2 6 -3.5 9.5 q-1.5 3.5 -6.5 -5.5 q-4 -7 -9 -2 q-2 2 -3 6 l0 51 q0 20 -1 37.5 q-1 17.5 -3 22.5 q-1 3 -1.5 -3.5 q-0.5 -6.5 -1 -19 q-0.5 -12.5 -0.5 -28 q0 -15.5 -0.5 -29.5 q-0.5 -14 -1.5 -25 q-1 -11 -3 -14 q-6 -10 -11.5 -2.5 q-5.5 7.5 -6.5 15.5 q0 8 1 8.5 q1 0.5 -10 -9.5 q-5 -5 -8 -3.5 q-3 1.5 -5 4.5 q-2 4 -3 10 l0 595 ZM338 93 l0 257 q6 21 26 40.5 q20 19.5 51.5 35 q31.5 15.5 73 24.5 q41.5 9 90.5 9 q51 0 88 -9.5 q37 -9.5 61.5 -27.5 q24.5 -18 38.5 -43 q14 -25 20 -56 q5 -29 2.5 -68.5 q-2.5 -39.5 -7.5 -75.5 q-5 -42 -14 -86 l-430 0 ZM618 396 q-32 0 -53 -7 q-21 -7 -33 -17 q-12 -10 -16.5 -20.5 q-4.5 -10.5 -3.5 -15.5 l0 -175 l202 0 q7 43 7 84.5 q0 41.5 -10.5 74.5 q-10.5 33 -32.5 54 q-22 21 -60 22 ZM751 600 q13 0 25 -9 q12 -9 12 -23 q0 -13 -12 -22.5 q-12 -9.5 -25 -9.5 l-388 0 q-13 1 -19.5 10 q-6.5 9 -6.5 22 q0 11 6.5 21.5 q6.5 10.5 19.5 10.5 l388 0 ZM176 111 q1 11 -2.5 20 q-3.5 9 -8.5 5 q1 -10 1 -21 q0 -9 0 -19 q0 -10 -1 -17 q-1 -7 -1.5 -22.5 q-0.5 -15.5 -1 -32.5 q-0.5 -17 0 -32 q0.5 -15 2.5 -21 q1 -6 3 -12.5 q2 -6.5 3.5 -8 q1.5 -1.5 2.5 5.5 q1 7 2 29 q1 44 0 79.5 q-1 35.5 0 46.5 ZM484 327 q-2 0 -3 -4.5 q-1 -4.5 -1 -9.5 l0 -15 l0 -119 l0 -10 q0 -4 1 -7.5 q1 -3.5 3 -4.5 q3 -1 5 9 l0 9 l0 120 q0 13 -1 19.5 q-1 6.5 -2 9.5 q-1 4 -2 3 ZM224 452 q0 3 1 9 q1 6 1.5 12 q0.5 6 -0.5 11 q-1 5 -5 5 q-2 0 -4 -2 q-3 -3 -3 -13 q0 -12 1.5 -26 q1.5 -14 2.5 -20 q0 -6 -1 -16.5 q-1 -10.5 -3 -18.5 q-2 -7 0 -14 q2 -7 7 -8 q2 0 2 4 q0 4 -1 9.5 q-1 5.5 -1.5 11 q-0.5 5.5 0.5 8.5 q1 3 1.5 10 q0.5 7 1 14.5 q0.5 7.5 0.5 14 q0 6.5 0 9.5 ZM228 529 q0 5 -1 8 q-1 3 -2 5 q-2 2 -3 1 q-2 0 -4 -1 q-3 -2 -3 -6 q0 -6 0 -16.5 q0 -10.5 3 -12.5 q4 -2 7 4.5 q3 6.5 3 17.5 ZM461 183 q-3 0 -5 -2 q-1 -1 -1 -2 l0 -21 q0 -2 1 -4 q1 -3 5 -3 q3 0 5 3 q1 1 1 3 l0 20 q0 3 -3 6 q-2 1 -3 0 ZM193 87 q1 5 0 14.5 q-1 9.5 -2 3.5 q-2 -7 -4 -14 q-2 -6 -2 -12 q0 -6 2 -10 q2 -5 3 -3.5 q1 1.5 1.5 5.5 q0.5 4 0.5 8.5 q0 4.5 1 7.5 Z" /><glyph glyph-name="uni548C" unicode="&#x548c;" d="M537 -35 l0 628 q0 22 10.5 52 q10.5 30 36.5 56.5 q26 26.5 70 44.5 q44 18 111 17 q41 -1 75.5 -11.5 q34.5 -10.5 59.5 -33.5 q25 -23 39.5 -60 q14.5 -37 16.5 -91 q4 -128 3 -238 q-1 -110 -5 -191 q-4 -95 -11 -173 l-406 0 ZM484 549 q13 0 22 -9 q9 -9 9 -23 q0 -13 -9 -22 q-9 -9 -22 -9 l-99 0 l0 -98 q13 -10 32.5 -26 q19.5 -16 39 -34 q19.5 -18 36 -36 q16.5 -18 23.5 -32 q9 -17 7.5 -32.5 q-1.5 -15.5 -8.5 -26 q-7 -10.5 -18 -14 q-11 -3.5 -22 2.5 q-9 4 -19.5 15 q-10.5 11 -22 25.5 q-11.5 14.5 -23.5 30 q-12 15.5 -25 30.5 l0 -363 q2 -12 0 -21 q-2 -8 -6 -14.5 q-4 -6.5 -14 -6.5 q-11 -1 -16 4.5 q-5 5.5 -7 13.5 q-2 9 -1 20 l-1 74 l0 15 l0 22 q-1 5 -5 -8 q-2 -6 -3 -15 l-2 -93 q2 -5 2 -10 q0 -5 -2 -10 q-2 -5 -7 -9 q-9 -8 -17 -2 q-4 3 -6 8 q-7 -7 -12 -7 q-5 0 -8 2.5 q-3 2.5 -5 6 q-2 3.5 -2 4.5 q0 -11 -7 -18.5 q-7 -7.5 -20 -5.5 q-6 1 -9 5 q-3 4 -4 8 q-1 4 -1 7.5 q0 3.5 0 3.5 q-1 -1 -6 -7 q-5 -6 -16 -6 q-10 0 -14 8 q-2 4 -3 9 l0 322 q-18 -42 -38.5 -68 q-20.5 -26 -40 -38.5 q-19.5 -12.5 -36 -11.5 q-16.5 1 -27.5 13 q-13 14 -9.5 30 q3.5 16 16.5 36.5 q13 20.5 32.5 45 q19.5 24.5 38.5 56.5 q17 30 29 61 q12 31 19.5 56.5 q7.5 25.5 11 43 q3.5 17.5 4.5 20.5 l0 14 l-127 0 q-13 1 -21.5 9.5 q-8.5 8.5 -8.5 21.5 q0 11 8.5 21.5 q8.5 10.5 21.5 10.5 l127 0 l0 149 l-42 -3 q-39 -4 -61 3.5 q-22 7.5 -25 30.5 q-2 16 16 25 q18 9 60 9 q54 0 107 4.5 q53 4.5 95 10.5 q49 7 94 16 q17 3 34 4.5 q17 1.5 23 -12.5 q6 -14 -4 -29 q-10 -15 -42 -24 q-14 -5 -29.5 -8 q-15.5 -3 -33.5 -6 l0 -170 l99 0 ZM728 27 l155 0 q6 51 9.5 116 q3.5 65 5 134.5 q1.5 69.5 1 139.5 q-0.5 70 -1.5 132 q0 11 -3 36 q-3 25 -12 50.5 q-9 25.5 -26.5 45 q-17.5 19.5 -46.5 19.5 q-26 0 -42 -11.5 q-16 -11.5 -24.5 -26.5 q-8.5 -15 -11.5 -31 q-3 -16 -3 -25 l0 -579 ZM701 274 q-2 1 -2.5 -4 q-0.5 -5 -0.5 -10 l0 -15 l0 -202 q-1 -7 -1 -11 q0 -4 1 -7.5 q1 -3.5 3 -3.5 q4 -1 6 9 q1 4 0 9 l0 204 q0 13 -1 19 q-1 6 -2 9 q-2 3 -3 3 ZM330 137 q-4 0 -4 -2 l0 -1 l0 -47 q-1 -2 0 -3 q0 -3 4 -3 q1 0 4 3 q1 1 1 3 l0 45 q0 2 -3 5 l-2 0 ZM679 47 q-3 -1 -5 -3 q-1 -1 -1 -2 l0 -20 q0 -2 1 -4 q2 -4 5 -3 q3 0 5 3 q1 1 1 3 l0 20 q0 3 -3 6 q-2 1 -3 0 Z" /><glyph glyph-name="uni5668" unicode="&#x5668;&#xfa38;" d="M941 444 q13 0 22 -9 q9 -9 9 -22 q0 -14 -9 -23 q-9 -9 -22 -9 l-371 0 q8 -7 31.5 -24 q23.5 -17 58.5 -35 q35 -18 80 -32.5 q45 -14.5 96 -17.5 q13 -1 26 -1 q11 0 25 -0.5 q14 -0.5 28 1.5 q26 2 41 -7 q15 -9 13 -38 q-2 -23 -31 -34 q-29 -11 -83 -6 q20 -17 34 -39 q14 -22 22 -48 q5 -21 5 -48.5 q0 -27.5 -4.5 -55.5 q-4.5 -28 -12 -52.5 q-7.5 -24.5 -16.5 -38.5 l-345 0 l0 214 q5 18 17.5 35.5 q12.5 17.5 32.5 32 q20 14.5 47.5 25 q27.5 10.5 63.5 14.5 q-62 25 -113.5 61.5 q-51.5 36.5 -83.5 82.5 q-35 -54 -83.5 -89 q-48.5 -35 -99.5 -56 q58 -9 93.5 -43.5 q35.5 -34.5 49.5 -81.5 q5 -21 5 -48.5 q0 -27.5 -4.5 -55.5 q-4.5 -28 -12 -52.5 q-7.5 -24.5 -16.5 -38.5 l-345 0 l0 214 q9 32 41 61 q-41 -3 -47 -1 q-15 4 -14 10 q1 6 7 11 q6 5 12 8 q6 3 0 1 q-6 -2 -14.5 -2 q-8.5 0 -15.5 1.5 q-7 1.5 -9 4 q-2 2.5 5 5.5 q14 6 10 6 q-4 0 -26 4 q-11 2 -8 6.5 q3 4.5 10 8 q7 3.5 12 6 q5 2.5 -1 1.5 q-6 -1 -13 1.5 q-7 2.5 -9.5 6 q-2.5 3.5 1.5 7 q4 3.5 20 4.5 q28 1 45.5 4.5 q17.5 3.5 25 6.5 q7.5 3 6.5 4.5 q-1 1.5 -9 -1.5 q-8 -3 -23 -5 q-15 -2 -30 -2.5 q-15 -0.5 -25 1 q-10 1.5 -8 6.5 q2 5 5 6 q3 1 4.5 1.5 q1.5 0.5 0.5 1 q-1 0.5 -6 4.5 q-5 4 -5.5 7.5 q-0.5 3.5 2.5 6.5 q3 3 8.5 4.5 q5.5 1.5 10.5 1.5 q-6 5 0 8 q6 3 17 5 q11 3 29 5 q57 7 100 19 q43 12 75 28 l-213 0 q-12 1 -21 10 q-9 9 -9 22 q0 11 9 21 q9 10 21 10 l300 0 q15 17 24 33 q9 16 14 30 l-315 0 l0 202 q6 18 20 36.5 q14 18.5 36.5 33 q22.5 14.5 54.5 23 q32 8.5 74 8.5 q69 0 110 -33.5 q41 -33.5 55 -86.5 q10 -38 4.5 -76 q-5.5 -38 -14.5 -66 q1 -1 1 -1.5 q0 -0.5 1 -1.5 q0 -1 1 -1 q6 15 10.5 16.5 q4.5 1.5 7.5 -3.5 q3 -5 4.5 -13 q1.5 -8 1.5 -11 q0 2 0.5 8 q0.5 6 2 12 q1.5 6 4 10.5 q2.5 4.5 7.5 3.5 q5 -1 6 -7.5 q1 -6.5 0.5 -13 q-0.5 -6.5 -1 -11 q-0.5 -4.5 2.5 -2.5 q4 5 7.5 16 q3.5 11 11.5 13 q4 0 6 -4.5 q2 -4.5 2 -12 q0 -7.5 -1 -16 q-1 -8.5 -4 -15.5 q-2 -7 -2.5 -13 q-0.5 -6 0.5 -8 q1 -2 3.5 1 q2.5 3 6.5 14 q7 21 10 38 q3 17 14 14 q7 -2 7.5 -12.5 q0.5 -10.5 -0.5 -18.5 q3 14 7 18 q2 3 5 4 q14 7 16 -12 l0 170 q6 18 19.5 36.5 q13.5 18.5 36.5 33 q23 14.5 55 23 q32 8.5 74 8.5 q68 0 109.5 -33.5 q41.5 -33.5 55.5 -86.5 q8 -32 5 -64.5 q-3 -32.5 -10 -58.5 q-8 -31 -21 -60 l-79 0 q9 -17 9 -36 q0 -14 -5 -27 l131 0 ZM781 122 q-23 0 -37 -7 q-14 -7 -22 -16.5 q-8 -9.5 -11.5 -20 q-3.5 -10.5 -4.5 -18.5 l0 -83 l142 0 q6 30 5 56.5 q-1 26.5 -9 46.5 q-8 20 -23.5 31 q-15.5 11 -39.5 11 ZM332 122 q-23 0 -37 -7 q-14 -7 -22 -16.5 q-8 -9.5 -11.5 -20 q-3.5 -10.5 -4.5 -18.5 l0 -83 l142 0 q6 30 5 56.5 q-1 26.5 -9 46.5 q-8 20 -23.5 31 q-15.5 11 -39.5 11 ZM311 712 q-30 -1 -45 -10 q-15 -9 -20 -20 q-7 -13 -5 -29 l0 -79 l131 0 q4 22 5.5 46.5 q1.5 24.5 -4 45 q-5.5 20.5 -20 33.5 q-14.5 13 -42.5 13 ZM789 712 q-31 -1 -45.5 -10 q-14.5 -9 -19.5 -20 q-6 -13 -5 -29 l0 -79 l131 0 q13 65 -2.5 102 q-15.5 37 -58.5 36 ZM549 479 q-2 -9 -5 -18 q-3 -9 -6 -17 l125 0 q-4 11 -4 26 q0 20 9 37 l-107 0 l0 21 q-1 -9 -3 -18 q-2 -9 -4 -16.5 q-2 -7.5 -3.5 -12 q-1.5 -4.5 -1.5 -2.5 ZM407 312 q8 5 19.5 15.5 q11.5 10.5 21.5 21.5 q10 11 16.5 19.5 q6.5 8.5 4.5 8.5 q-12 -13 -25 -24 q-11 -11 -26 -22 q-15 -11 -29 -20 q-10 -6 -21.5 -13 q-11.5 -7 -22 -12.5 q-10.5 -5.5 -19 -10 q-8.5 -4.5 -12.5 -5.5 q-8 -3 -19 -6.5 q-11 -3.5 -16 -10.5 q-5 -7 3.5 -4.5 q8.5 2.5 33.5 12.5 q26 11 50.5 25.5 q24.5 14.5 40.5 25.5 ZM234 61 q-2 0 -3 -4.5 q-1 -4.5 -1 -9.5 l0 -15 l0 -38 l0 -11 q0 -4 1 -7.5 q1 -3.5 3 -3.5 q3 -1 5 9 l0 9 l0 39 q0 13 -1 19.5 q-1 6.5 -2 9.5 q-1 4 -2 3 ZM687 505 q-1 -4 0 -7 q0 -6 5 -8 q5 -2 9.5 7.5 q4.5 9.5 9.5 12.5 q4 4 12.5 8.5 q8.5 4.5 0.5 9.5 q-4 2 -10.5 -0.5 q-6.5 -2.5 -12.5 -6.5 q-6 -4 -10 -8.5 q-4 -4.5 -4 -7.5 ZM219 659 q-2 0 -2.5 -4.5 q-0.5 -4.5 -0.5 -9.5 l0 -15 l0 -39 q-1 -6 -1 -10 q0 -4 1 -7.5 q1 -3.5 3 -4.5 q3 -1 5 9 l0 9 l0 41 q0 13 -1 19 q-1 6 -2 9 q-1 3 -2 3 ZM196 595 q-2 0 -2.5 -1 q-0.5 -1 -1.5 -2 q-1 -1 -1 -2 l0 -20 q0 -2 1 -4 q1 -3 4 -3 q3 0 5 3 q1 1 1 3 l0 20 q0 3 -3 6 q-2 1 -3 0 ZM211 -2 q-5 -2 -5 -3 q-1 -1 0 -2 l0 -20 q0 -2 1 -4 q2 -4 4 -3 q3 0 5 3 q1 1 1 3 l0 20 q0 3 -3 6 q-2 1 -3 0 ZM748 533 q-5 -2 -2 -5.5 q3 -3.5 11 -2.5 q7 0 9 3.5 q2 3.5 -2 5.5 q-2 1 -5 0.5 q-3 -0.5 -5 -0.5 q-3 -1 -6 -1 ZM241 235 q-3 -2 0 -3.5 q3 -1.5 8 0.5 q5 3 6.5 6.5 q1.5 3.5 -1.5 2.5 q-2 0 -4 -1 q-2 -1 -4 -2 q-3 -2 -5 -3 Z" /><glyph glyph-name="uni56FD" unicode="&#x56fd;" d="M51 -105 l0 687 q9 54 50.5 96 q41.5 42 103 70.5 q61.5 28.5 137 43.5 q75.5 15 152.5 15 q108 -1 188.5 -19.5 q80.5 -18.5 136 -62.5 q55.5 -44 85.5 -116 q30 -72 38 -180 q3 -44 3.5 -89.5 q0.5 -45.5 -1 -91.5 q-1.5 -46 -4 -90 q-2.5 -44 -5.5 -83 q-7 -92 -18 -180 l-866 0 ZM240 -42 l607 0 q5 37 11 90 q6 53 10 114.5 q4 61.5 4.5 127 q0.5 65.5 -5.5 128.5 q-8 87 -30.5 148.5 q-22.5 61.5 -65 100.5 q-42.5 39 -108.5 56.5 q-66 17.5 -160 16.5 q-66 -1 -114 -18.5 q-48 -17.5 -79.5 -41.5 q-31.5 -24 -48 -51 q-16.5 -27 -21.5 -48 l0 -623 ZM764 645 q14 0 23 -9 q9 -9 9 -22 q0 -13 -9 -22 q-9 -9 -23 -9 l-141 0 l0 -193 l148 0 q13 0 22 -9 q9 -9 9 -22 q0 -13 -9 -22 q-9 -9 -22 -9 l-148 0 l0 -227 l181 0 q14 0 23 -9 q9 -9 9 -22 q0 -14 -9 -23 q-9 -9 -23 -9 l-527 0 q-13 1 -22 10 q-9 9 -9 22 q0 11 9 21 q9 10 22 10 l157 0 l0 227 l-124 0 q-13 0 -21.5 9 q-8.5 9 -8.5 22 q0 11 8.5 21 q8.5 10 21.5 10 l124 0 l0 193 l-128 0 q-13 0 -22 9 q-9 9 -9 22 q0 11 9 21 q9 10 22 10 l458 0 ZM727 290 q18 0 34 -6.5 q16 -6.5 28 -18 q12 -11.5 19 -27.5 q7 -16 7 -34 q0 -18 -6.5 -33.5 q-6.5 -15.5 -18.5 -27.5 q-12 -12 -27.5 -19 q-15.5 -7 -33.5 -7 q-18 0 -34 6.5 q-16 6.5 -27.5 18 q-11.5 11.5 -18.5 27.5 q-7 16 -7 34 q0 18 6.5 34 q6.5 16 18 27.5 q11.5 11.5 27 18.5 q15.5 7 33.5 7 ZM211 213 q-2 0 -2.5 -3.5 q-0.5 -3.5 -0.5 -8.5 l0 -13 l0 -204 l0 -9 q0 -3 0.5 -6 q0.5 -3 2.5 -3 q2 -1 3 1.5 q1 2.5 1 5.5 l0 8 l0 205 q0 11 -0.5 16.5 q-0.5 5.5 -1.5 7.5 q-1 3 -2 3 ZM494 481 q1 1 1 12 q0 11 0 26.5 q0 15.5 -0.5 32.5 q-0.5 17 -0.5 31 l-11 0 q0 -10 0.5 -24.5 q0.5 -14.5 1 -27.5 q0.5 -13 1.5 -22.5 q1 -9.5 2 -9.5 q2 -2 2 -5 l0 -4 q0 -3 1 -6 q2 -6 3 -3 ZM565 101 l10 0 l0 64 l0 13 l0 19 q-1 4 -5 -7 q-2 -5 -3 -12 l-2 -77 ZM677 227 q-1 -3 0 -6 q0 -5 5 -7 q5 -2 9 6.5 q4 8.5 8 11.5 q4 3 11 7.5 q7 4.5 0 8.5 q-3 2 -9 0 q-6 -2 -11 -6 q-5 -4 -9 -8 q-4 -4 -4 -7 ZM579 254 q0 1 -1 3 q-1 3 -5 4 q-2 0 -3 -1 q-3 -2 -3 -8 l0 -29 q0 -3 1 -5 q2 -4 5 -4 q3 0 5 5 q1 2 1 5 l0 30 ZM187 24 q-4 -1 -4 -2 l0 -2 l0 -46 q-1 -2 0 -3 q0 -3 4 -3 q1 0 4 3 q1 1 1 3 l0 44 q0 2 -3 5 q-1 1 -2 1 ZM740 254 q-5 -1 -2 -5.5 q3 -4.5 11 -4.5 q8 0 11 4 q3 4 -1 6 q-3 1 -11 1 q-4 0 -8 -1 Z" /></font>
</defs>
</svg>
