<!-- Generated by IcoMoon.io -->
<svg version="1.1" xmlns="http://www.w3.org/2000/svg" width="2253" height="1024" viewBox="0 0 2253 1024">
<title>cyb</title>
<g id="icomoon-ignore">
</g>
<path fill="#79baff" d="M0 204.8h204.8v614.4h-204.8v-614.4zM204.8 819.2h204.8v204.8h-204.8v-204.8zM204.8 0h204.8v204.8h-204.8v-204.8z"></path>
<path fill="#3798ff" d="M0 819.2h204.8v204.8c-113.108 0-204.8-91.692-204.8-204.8zM409.6 819.2h204.8c0 113.108-91.692 204.8-204.8 204.8v-204.8zM204.8 0v204.8h-204.8c0-113.108 91.692-204.8 204.8-204.8zM614.4 204.8h-204.8v-204.8c113.108 0 204.8 91.692 204.8 204.8z"></path>
<path fill="#79baff" d="M1024 409.6h204.8v614.4h-204.8v-614.4zM819.2 204.8h204.8v204.8h-204.8v-204.8zM1228.8 204.8h204.8v204.8h-204.8v-204.8z"></path>
<path fill="#3798ff" d="M1228.8 614.4v-204.8h204.8c0 113.108-91.692 204.8-204.8 204.8zM1433.6 204.8h-204.8c0-113.108 91.692-204.8 204.8-204.8v204.8zM819.2 409.6h204.8v204.8c-113.108 0-204.8-91.692-204.8-204.8zM819.2 204.8v-204.8c113.108 0 204.8 91.692 204.8 204.8h-204.8z"></path>
<path fill="#3798ff" d="M2048 409.6h204.8c0 37.303-9.973 72.277-27.399 102.4 17.425 30.123 27.399 65.097 27.399 102.4h-204.8v-204.8zM1843.2 0v204.8h-204.8c0-113.108 91.692-204.8 204.8-204.8zM2048 204.8v-204.8c113.108 0 204.8 91.692 204.8 204.8h-204.8zM1638.4 819.2h204.8v204.8c-113.108 0-204.8-91.692-204.8-204.8zM2048 819.2h204.8c0 113.108-91.692 204.8-204.8 204.8v-204.8z"></path>
<path fill="#79baff" d="M1638.4 409.6v-204.8h204.8v204.8h204.8v204.8h-204.8v204.8h-204.8v-409.6zM2048 204.8h204.8v204.8h-204.8v-204.8zM2048 614.4h204.8v204.8h-204.8v-204.8zM1843.2 819.2h204.8v204.8h-204.8v-204.8zM1843.2 0h204.8v204.8h-204.8v-204.8z"></path>
</svg>
